<?xml version="1.0" encoding="iso-8859-1"?>
<!-- Generator: Adobe Illustrator 19.2.0, SVG Export Plug-In . SVG Version: 6.00 Build 0)  -->
<svg version="1.1" xmlns="http://www.w3.org/2000/svg" xmlns:xlink="http://www.w3.org/1999/xlink" x="0px" y="0px"
	 viewBox="0 0 119.021 138.239" style="enable-background:new 0 0 119.021 138.239;" xml:space="preserve">
<g id="Layer_5">
	<g>
		<g>
			<path style="fill:#404041;" d="M22.65,119.024c-0.913,0-1.785-0.362-2.43-1.007c-26.96-26.964-26.96-70.834,0-97.797
				c26.96-26.96,70.834-26.96,97.794,0c1.342,1.342,1.342,3.517,0,4.859l-92.935,92.938
				C24.435,118.662,23.563,119.024,22.65,119.024z M69.117,6.868c-15.95,0-31.893,6.071-44.038,18.212
				C1.616,48.546,0.827,86.238,22.717,110.662l87.941-87.945C98.873,12.153,83.993,6.868,69.117,6.868z"/>
		</g>
		<g>
			<path style="fill:#404041;" d="M69.117,138.239c-17.708,0-35.417-6.742-48.897-20.222c-0.644-0.644-1.007-1.517-1.007-2.43
				c0-0.913,0.362-1.785,1.007-2.43l46.467-46.471c1.289-1.289,3.571-1.289,4.859,0l46.467,46.471c1.342,1.342,1.342,3.517,0,4.859
				C104.534,131.498,86.826,138.239,69.117,138.239z M27.576,115.521c23.584,21.135,59.518,21.135,83.082,0L69.117,73.976
				L27.576,115.521z"/>
		</g>
	</g>
</g>
<g id="Layer_1">
</g>
</svg>
