<?xml version="1.0" encoding="iso-8859-1"?>
<!-- Generator: Adobe Illustrator 19.2.0, SVG Export Plug-In . SVG Version: 6.00 Build 0)  -->
<svg version="1.1" xmlns="http://www.w3.org/2000/svg" xmlns:xlink="http://www.w3.org/1999/xlink" x="0px" y="0px"
	 viewBox="0 0 132.471 132.471" style="enable-background:new 0 0 132.471 132.471;" xml:space="preserve">
<g id="Layer_6">
	<g>
		<g>
			<path style="fill:#404041;" d="M66.237,104.224c-20.948,0-37.99-17.042-37.99-37.99c0-20.944,17.042-37.987,37.99-37.987
				s37.99,17.042,37.99,37.987C104.227,87.181,87.185,104.224,66.237,104.224z M66.237,34.83c-17.319,0-31.407,14.088-31.407,31.404
				c0,17.319,14.088,31.407,31.407,31.407s31.407-14.088,31.407-31.407C97.644,48.918,83.556,34.83,66.237,34.83z"/>
		</g>
		<g>
			<path style="fill:#404041;" d="M66.237,132.471c-1.819,0-3.291-1.472-3.291-3.291V3.291C62.946,1.472,64.418,0,66.237,0
				c36.521,0,66.234,29.713,66.234,66.234C132.471,102.758,102.758,132.471,66.237,132.471z M69.528,6.673v119.125
				c31.368-1.713,56.359-27.775,56.359-59.564C125.888,34.448,100.897,8.386,69.528,6.673z"/>
		</g>
		<g>
			<path style="fill:#404041;" d="M66.237,132.471H3.291c-1.819,0-3.291-1.472-3.291-3.291V3.291C0,1.472,1.472,0,3.291,0h62.946
				c1.819,0,3.291,1.472,3.291,3.291v125.888C69.528,130.999,68.056,132.471,66.237,132.471z M6.583,125.888h56.363V6.583H6.583
				V125.888z"/>
		</g>
	</g>
</g>
<g id="Layer_1">
</g>
</svg>
