<?xml version="1.0" encoding="iso-8859-1"?>
<!-- Generator: Adobe Illustrator 19.2.0, SVG Export Plug-In . SVG Version: 6.00 Build 0)  -->
<svg version="1.1" xmlns="http://www.w3.org/2000/svg" xmlns:xlink="http://www.w3.org/1999/xlink" x="0px" y="0px"
	 viewBox="0 0 137.036 139.26" style="enable-background:new 0 0 137.036 139.26;" xml:space="preserve">
<g id="Layer_3">
	<g>
		<g>
			<path style="fill:#404041;" d="M69.628,139.26C31.236,139.26,0,108.024,0,69.628C0,31.236,31.236,0,69.628,0
				c1.806,0,3.267,1.461,3.267,3.267v132.725C72.896,137.798,71.434,139.26,69.628,139.26z M66.361,6.618
				C33.083,8.325,6.535,35.936,6.535,69.628c0,33.696,26.548,61.306,59.826,63.014V6.618z"/>
		</g>
		<g>
			<path style="fill:#404041;" d="M69.976,139.26c-1.806,0-3.267-1.461-3.267-3.267V72.2c0-1.806,1.461-3.267,3.267-3.267h63.792
				c1.806,0,3.267,1.461,3.267,3.267C137.036,109.176,106.952,139.26,69.976,139.26z M73.244,75.468v57.171
				c30.779-1.646,55.525-26.392,57.171-57.171H73.244z"/>
		</g>
		<g>
			<path style="fill:#404041;" d="M112.482,49.388c-0.849,0-1.685-0.332-2.31-0.957L67.318,5.578
				c-0.935-0.935-1.216-2.339-0.708-3.561C67.114,0.795,68.307,0,69.628,0h42.854c1.806,0,3.267,1.461,3.267,3.267v42.854
				c0,1.321-0.795,2.514-2.017,3.019C113.327,49.309,112.903,49.388,112.482,49.388z M77.516,6.535l31.698,31.698V6.535H77.516z"/>
		</g>
	</g>
</g>
<g id="Layer_1">
</g>
</svg>
