<svg xmlns="http://www.w3.org/2000/svg" xmlns:xlink="http://www.w3.org/1999/xlink" viewBox="0 0 405.51 59.9"><defs><style>.cls-1{fill:none;}.cls-2{isolation:isolate;}.cls-3{clip-path:url(#clip-path);}.cls-4{clip-path:url(#clip-path-2);}.cls-5{fill:#d83c92;mix-blend-mode:multiply;}.cls-6{clip-path:url(#clip-path-3);}.cls-7{clip-path:url(#clip-path-4);}.cls-8{clip-path:url(#clip-path-5);}.cls-9{clip-path:url(#clip-path-6);}.cls-10{clip-path:url(#clip-path-7);}.cls-11{clip-path:url(#clip-path-8);}.cls-12{clip-path:url(#clip-path-9);}.cls-13{clip-path:url(#clip-path-10);}.cls-14{clip-path:url(#clip-path-11);}.cls-15{clip-path:url(#clip-path-12);}.cls-16{clip-path:url(#clip-path-13);}.cls-17{clip-path:url(#clip-path-14);}.cls-18{clip-path:url(#clip-path-15);}.cls-19{clip-path:url(#clip-path-16);}.cls-20{clip-path:url(#clip-path-17);}.cls-21{clip-path:url(#clip-path-18);}.cls-22{clip-path:url(#clip-path-19);}.cls-23{clip-path:url(#clip-path-20);}.cls-24{clip-path:url(#clip-path-21);}.cls-25{clip-path:url(#clip-path-22);}.cls-26{clip-path:url(#clip-path-23);}.cls-27{clip-path:url(#clip-path-24);}.cls-28{clip-path:url(#clip-path-25);}.cls-29{clip-path:url(#clip-path-26);}.cls-30{clip-path:url(#clip-path-27);}.cls-31{clip-path:url(#clip-path-28);}.cls-32{clip-path:url(#clip-path-29);}.cls-33{clip-path:url(#clip-path-30);}.cls-34{clip-path:url(#clip-path-31);}.cls-35{clip-path:url(#clip-path-32);}.cls-36{clip-path:url(#clip-path-33);}.cls-37{clip-path:url(#clip-path-34);}.cls-38{clip-path:url(#clip-path-35);}.cls-39{clip-path:url(#clip-path-36);}.cls-40{clip-path:url(#clip-path-37);}.cls-41{clip-path:url(#clip-path-38);}.cls-42{clip-path:url(#clip-path-39);}.cls-43{clip-path:url(#clip-path-40);}.cls-44{clip-path:url(#clip-path-41);}.cls-45{clip-path:url(#clip-path-42);}.cls-46{clip-path:url(#clip-path-43);}.cls-47{clip-path:url(#clip-path-44);}.cls-48{clip-path:url(#clip-path-45);}.cls-49{clip-path:url(#clip-path-46);}.cls-50{clip-path:url(#clip-path-47);}.cls-51{clip-path:url(#clip-path-48);}.cls-52{clip-path:url(#clip-path-49);}.cls-53{clip-path:url(#clip-path-50);}.cls-54{clip-path:url(#clip-path-51);}.cls-55{clip-path:url(#clip-path-52);}.cls-56{clip-path:url(#clip-path-53);}.cls-57{clip-path:url(#clip-path-54);}.cls-58{clip-path:url(#clip-path-55);}.cls-59{clip-path:url(#clip-path-56);}.cls-60{clip-path:url(#clip-path-57);}.cls-61{clip-path:url(#clip-path-58);}.cls-62{clip-path:url(#clip-path-59);}.cls-63{clip-path:url(#clip-path-60);}.cls-64{clip-path:url(#clip-path-61);}.cls-65{clip-path:url(#clip-path-62);}.cls-66{clip-path:url(#clip-path-63);}.cls-67{clip-path:url(#clip-path-64);}.cls-68{clip-path:url(#clip-path-65);}.cls-69{clip-path:url(#clip-path-66);}.cls-70{clip-path:url(#clip-path-67);}.cls-71{clip-path:url(#clip-path-68);}.cls-72{clip-path:url(#clip-path-69);}.cls-73{clip-path:url(#clip-path-70);}.cls-74{clip-path:url(#clip-path-71);}.cls-75{clip-path:url(#clip-path-72);}.cls-76{clip-path:url(#clip-path-73);}.cls-77{clip-path:url(#clip-path-74);}.cls-78{clip-path:url(#clip-path-75);}.cls-79{clip-path:url(#clip-path-76);}.cls-80{clip-path:url(#clip-path-77);}.cls-81{clip-path:url(#clip-path-78);}.cls-82{clip-path:url(#clip-path-79);}.cls-83{clip-path:url(#clip-path-80);}.cls-84{clip-path:url(#clip-path-81);}.cls-85{clip-path:url(#clip-path-82);}.cls-86{clip-path:url(#clip-path-83);}.cls-87{clip-path:url(#clip-path-84);}.cls-88{clip-path:url(#clip-path-85);}.cls-89{clip-path:url(#clip-path-86);}.cls-90{clip-path:url(#clip-path-87);}.cls-91{clip-path:url(#clip-path-88);}.cls-92{clip-path:url(#clip-path-89);}.cls-93{clip-path:url(#clip-path-90);}.cls-94{clip-path:url(#clip-path-91);}.cls-95{clip-path:url(#clip-path-92);}.cls-96{clip-path:url(#clip-path-93);}.cls-97{clip-path:url(#clip-path-94);}.cls-98{clip-path:url(#clip-path-95);}.cls-99{clip-path:url(#clip-path-96);}.cls-100{clip-path:url(#clip-path-97);}.cls-101{clip-path:url(#clip-path-98);}.cls-102{clip-path:url(#clip-path-99);}.cls-103{clip-path:url(#clip-path-100);}.cls-104{clip-path:url(#clip-path-101);}.cls-105{clip-path:url(#clip-path-102);}.cls-106{clip-path:url(#clip-path-103);}.cls-107{clip-path:url(#clip-path-104);}.cls-108{clip-path:url(#clip-path-105);}.cls-109{clip-path:url(#clip-path-106);}.cls-110{clip-path:url(#clip-path-107);}.cls-111{clip-path:url(#clip-path-108);}.cls-112{clip-path:url(#clip-path-109);}.cls-113{clip-path:url(#clip-path-110);}.cls-114{clip-path:url(#clip-path-111);}.cls-115{clip-path:url(#clip-path-112);}.cls-116{clip-path:url(#clip-path-113);}</style><clipPath id="clip-path" transform="translate(-308.88 -345.38)"><polygon class="cls-1" points="711.63 398.61 312.37 398.61 317.06 350 711.63 350 711.63 398.61"/></clipPath><clipPath id="clip-path-2" transform="translate(-308.88 -345.38)"><rect class="cls-1" x="698.83" y="346.53" width="14.4" height="14.4"/></clipPath><clipPath id="clip-path-3" transform="translate(-308.88 -345.38)"><rect class="cls-1" x="698.83" y="360.93" width="14.4" height="14.4"/></clipPath><clipPath id="clip-path-4" transform="translate(-308.88 -345.38)"><rect class="cls-1" x="698.83" y="375.33" width="14.4" height="14.4"/></clipPath><clipPath id="clip-path-5" transform="translate(-308.88 -345.38)"><rect class="cls-1" x="698.83" y="389.73" width="14.4" height="14.4"/></clipPath><clipPath id="clip-path-6" transform="translate(-308.88 -345.38)"><rect class="cls-1" x="684.43" y="346.53" width="14.4" height="14.4"/></clipPath><clipPath id="clip-path-7" transform="translate(-308.88 -345.38)"><rect class="cls-1" x="684.43" y="360.93" width="14.4" height="14.4"/></clipPath><clipPath id="clip-path-8" transform="translate(-308.88 -345.38)"><rect class="cls-1" x="684.43" y="375.33" width="14.4" height="14.4"/></clipPath><clipPath id="clip-path-9" transform="translate(-308.88 -345.38)"><rect class="cls-1" x="684.43" y="389.73" width="14.4" height="14.4"/></clipPath><clipPath id="clip-path-10" transform="translate(-308.88 -345.38)"><rect class="cls-1" x="670.03" y="346.53" width="14.4" height="14.4"/></clipPath><clipPath id="clip-path-11" transform="translate(-308.88 -345.38)"><rect class="cls-1" x="670.03" y="360.93" width="14.4" height="14.4"/></clipPath><clipPath id="clip-path-12" transform="translate(-308.88 -345.38)"><rect class="cls-1" x="670.03" y="375.33" width="14.4" height="14.4"/></clipPath><clipPath id="clip-path-13" transform="translate(-308.88 -345.38)"><rect class="cls-1" x="670.03" y="389.73" width="14.4" height="14.4"/></clipPath><clipPath id="clip-path-14" transform="translate(-308.88 -345.38)"><rect class="cls-1" x="655.63" y="346.53" width="14.4" height="14.4"/></clipPath><clipPath id="clip-path-15" transform="translate(-308.88 -345.38)"><rect class="cls-1" x="655.63" y="360.93" width="14.4" height="14.4"/></clipPath><clipPath id="clip-path-16" transform="translate(-308.88 -345.38)"><rect class="cls-1" x="655.63" y="375.33" width="14.4" height="14.4"/></clipPath><clipPath id="clip-path-17" transform="translate(-308.88 -345.38)"><rect class="cls-1" x="655.63" y="389.73" width="14.4" height="14.4"/></clipPath><clipPath id="clip-path-18" transform="translate(-308.88 -345.38)"><rect class="cls-1" x="641.23" y="346.53" width="14.4" height="14.4"/></clipPath><clipPath id="clip-path-19" transform="translate(-308.88 -345.38)"><rect class="cls-1" x="641.23" y="360.93" width="14.4" height="14.4"/></clipPath><clipPath id="clip-path-20" transform="translate(-308.88 -345.38)"><rect class="cls-1" x="641.23" y="375.33" width="14.4" height="14.4"/></clipPath><clipPath id="clip-path-21" transform="translate(-308.88 -345.38)"><rect class="cls-1" x="641.23" y="389.73" width="14.4" height="14.4"/></clipPath><clipPath id="clip-path-22" transform="translate(-308.88 -345.38)"><rect class="cls-1" x="626.83" y="346.53" width="14.4" height="14.4"/></clipPath><clipPath id="clip-path-23" transform="translate(-308.88 -345.38)"><rect class="cls-1" x="626.83" y="360.93" width="14.4" height="14.4"/></clipPath><clipPath id="clip-path-24" transform="translate(-308.88 -345.38)"><rect class="cls-1" x="626.83" y="375.33" width="14.4" height="14.4"/></clipPath><clipPath id="clip-path-25" transform="translate(-308.88 -345.38)"><rect class="cls-1" x="626.83" y="389.73" width="14.4" height="14.4"/></clipPath><clipPath id="clip-path-26" transform="translate(-308.88 -345.38)"><rect class="cls-1" x="612.43" y="346.53" width="14.4" height="14.4"/></clipPath><clipPath id="clip-path-27" transform="translate(-308.88 -345.38)"><rect class="cls-1" x="612.43" y="360.93" width="14.4" height="14.4"/></clipPath><clipPath id="clip-path-28" transform="translate(-308.88 -345.38)"><rect class="cls-1" x="612.43" y="375.33" width="14.4" height="14.4"/></clipPath><clipPath id="clip-path-29" transform="translate(-308.88 -345.38)"><rect class="cls-1" x="612.43" y="389.73" width="14.4" height="14.4"/></clipPath><clipPath id="clip-path-30" transform="translate(-308.88 -345.38)"><rect class="cls-1" x="598.03" y="346.53" width="14.4" height="14.4"/></clipPath><clipPath id="clip-path-31" transform="translate(-308.88 -345.38)"><rect class="cls-1" x="598.03" y="360.93" width="14.4" height="14.4"/></clipPath><clipPath id="clip-path-32" transform="translate(-308.88 -345.38)"><rect class="cls-1" x="598.03" y="375.33" width="14.4" height="14.4"/></clipPath><clipPath id="clip-path-33" transform="translate(-308.88 -345.38)"><rect class="cls-1" x="598.03" y="389.73" width="14.4" height="14.4"/></clipPath><clipPath id="clip-path-34" transform="translate(-308.88 -345.38)"><rect class="cls-1" x="583.63" y="346.53" width="14.4" height="14.4"/></clipPath><clipPath id="clip-path-35" transform="translate(-308.88 -345.38)"><rect class="cls-1" x="583.63" y="360.93" width="14.4" height="14.4"/></clipPath><clipPath id="clip-path-36" transform="translate(-308.88 -345.38)"><rect class="cls-1" x="583.63" y="375.33" width="14.4" height="14.4"/></clipPath><clipPath id="clip-path-37" transform="translate(-308.88 -345.38)"><rect class="cls-1" x="583.63" y="389.73" width="14.4" height="14.4"/></clipPath><clipPath id="clip-path-38" transform="translate(-308.88 -345.38)"><rect class="cls-1" x="569.23" y="346.53" width="14.4" height="14.4"/></clipPath><clipPath id="clip-path-39" transform="translate(-308.88 -345.38)"><rect class="cls-1" x="569.23" y="360.93" width="14.4" height="14.4"/></clipPath><clipPath id="clip-path-40" transform="translate(-308.88 -345.38)"><rect class="cls-1" x="569.23" y="375.33" width="14.4" height="14.4"/></clipPath><clipPath id="clip-path-41" transform="translate(-308.88 -345.38)"><rect class="cls-1" x="569.23" y="389.73" width="14.4" height="14.4"/></clipPath><clipPath id="clip-path-42" transform="translate(-308.88 -345.38)"><rect class="cls-1" x="554.83" y="346.53" width="14.4" height="14.4"/></clipPath><clipPath id="clip-path-43" transform="translate(-308.88 -345.38)"><rect class="cls-1" x="554.83" y="360.93" width="14.4" height="14.4"/></clipPath><clipPath id="clip-path-44" transform="translate(-308.88 -345.38)"><rect class="cls-1" x="554.83" y="375.33" width="14.4" height="14.4"/></clipPath><clipPath id="clip-path-45" transform="translate(-308.88 -345.38)"><rect class="cls-1" x="554.83" y="389.73" width="14.4" height="14.4"/></clipPath><clipPath id="clip-path-46" transform="translate(-308.88 -345.38)"><rect class="cls-1" x="540.43" y="346.53" width="14.4" height="14.4"/></clipPath><clipPath id="clip-path-47" transform="translate(-308.88 -345.38)"><rect class="cls-1" x="540.43" y="360.93" width="14.4" height="14.4"/></clipPath><clipPath id="clip-path-48" transform="translate(-308.88 -345.38)"><rect class="cls-1" x="540.43" y="375.33" width="14.4" height="14.4"/></clipPath><clipPath id="clip-path-49" transform="translate(-308.88 -345.38)"><rect class="cls-1" x="540.43" y="389.73" width="14.4" height="14.4"/></clipPath><clipPath id="clip-path-50" transform="translate(-308.88 -345.38)"><rect class="cls-1" x="526.03" y="346.53" width="14.4" height="14.4"/></clipPath><clipPath id="clip-path-51" transform="translate(-308.88 -345.38)"><rect class="cls-1" x="526.03" y="360.93" width="14.4" height="14.4"/></clipPath><clipPath id="clip-path-52" transform="translate(-308.88 -345.38)"><rect class="cls-1" x="526.03" y="375.33" width="14.4" height="14.4"/></clipPath><clipPath id="clip-path-53" transform="translate(-308.88 -345.38)"><rect class="cls-1" x="526.03" y="389.73" width="14.4" height="14.4"/></clipPath><clipPath id="clip-path-54" transform="translate(-308.88 -345.38)"><rect class="cls-1" x="511.63" y="346.53" width="14.4" height="14.4"/></clipPath><clipPath id="clip-path-55" transform="translate(-308.88 -345.38)"><rect class="cls-1" x="511.63" y="360.93" width="14.4" height="14.4"/></clipPath><clipPath id="clip-path-56" transform="translate(-308.88 -345.38)"><rect class="cls-1" x="511.63" y="375.33" width="14.4" height="14.4"/></clipPath><clipPath id="clip-path-57" transform="translate(-308.88 -345.38)"><rect class="cls-1" x="511.63" y="389.73" width="14.4" height="14.4"/></clipPath><clipPath id="clip-path-58" transform="translate(-308.88 -345.38)"><rect class="cls-1" x="497.23" y="346.53" width="14.4" height="14.4"/></clipPath><clipPath id="clip-path-59" transform="translate(-308.88 -345.38)"><rect class="cls-1" x="497.23" y="360.93" width="14.4" height="14.4"/></clipPath><clipPath id="clip-path-60" transform="translate(-308.88 -345.38)"><rect class="cls-1" x="497.23" y="375.33" width="14.4" height="14.4"/></clipPath><clipPath id="clip-path-61" transform="translate(-308.88 -345.38)"><rect class="cls-1" x="497.23" y="389.73" width="14.4" height="14.4"/></clipPath><clipPath id="clip-path-62" transform="translate(-308.88 -345.38)"><rect class="cls-1" x="482.83" y="346.53" width="14.4" height="14.4"/></clipPath><clipPath id="clip-path-63" transform="translate(-308.88 -345.38)"><rect class="cls-1" x="482.83" y="360.93" width="14.4" height="14.4"/></clipPath><clipPath id="clip-path-64" transform="translate(-308.88 -345.38)"><rect class="cls-1" x="482.83" y="375.33" width="14.4" height="14.4"/></clipPath><clipPath id="clip-path-65" transform="translate(-308.88 -345.38)"><rect class="cls-1" x="482.83" y="389.73" width="14.4" height="14.4"/></clipPath><clipPath id="clip-path-66" transform="translate(-308.88 -345.38)"><rect class="cls-1" x="468.43" y="346.53" width="14.4" height="14.4"/></clipPath><clipPath id="clip-path-67" transform="translate(-308.88 -345.38)"><rect class="cls-1" x="468.43" y="360.93" width="14.4" height="14.4"/></clipPath><clipPath id="clip-path-68" transform="translate(-308.88 -345.38)"><rect class="cls-1" x="468.43" y="375.33" width="14.4" height="14.4"/></clipPath><clipPath id="clip-path-69" transform="translate(-308.88 -345.38)"><rect class="cls-1" x="468.43" y="389.73" width="14.4" height="14.4"/></clipPath><clipPath id="clip-path-70" transform="translate(-308.88 -345.38)"><rect class="cls-1" x="454.03" y="346.53" width="14.4" height="14.4"/></clipPath><clipPath id="clip-path-71" transform="translate(-308.88 -345.38)"><rect class="cls-1" x="454.03" y="360.93" width="14.4" height="14.4"/></clipPath><clipPath id="clip-path-72" transform="translate(-308.88 -345.38)"><rect class="cls-1" x="454.03" y="375.33" width="14.4" height="14.4"/></clipPath><clipPath id="clip-path-73" transform="translate(-308.88 -345.38)"><rect class="cls-1" x="454.03" y="389.73" width="14.4" height="14.4"/></clipPath><clipPath id="clip-path-74" transform="translate(-308.88 -345.38)"><rect class="cls-1" x="439.63" y="346.53" width="14.4" height="14.4"/></clipPath><clipPath id="clip-path-75" transform="translate(-308.88 -345.38)"><rect class="cls-1" x="439.63" y="360.93" width="14.4" height="14.4"/></clipPath><clipPath id="clip-path-76" transform="translate(-308.88 -345.38)"><rect class="cls-1" x="439.63" y="375.33" width="14.4" height="14.4"/></clipPath><clipPath id="clip-path-77" transform="translate(-308.88 -345.38)"><rect class="cls-1" x="439.63" y="389.73" width="14.4" height="14.4"/></clipPath><clipPath id="clip-path-78" transform="translate(-308.88 -345.38)"><rect class="cls-1" x="425.23" y="346.53" width="14.4" height="14.4"/></clipPath><clipPath id="clip-path-79" transform="translate(-308.88 -345.38)"><rect class="cls-1" x="425.23" y="360.93" width="14.4" height="14.4"/></clipPath><clipPath id="clip-path-80" transform="translate(-308.88 -345.38)"><rect class="cls-1" x="425.23" y="375.33" width="14.4" height="14.4"/></clipPath><clipPath id="clip-path-81" transform="translate(-308.88 -345.38)"><rect class="cls-1" x="425.23" y="389.73" width="14.4" height="14.4"/></clipPath><clipPath id="clip-path-82" transform="translate(-308.88 -345.38)"><rect class="cls-1" x="410.83" y="346.53" width="14.4" height="14.4"/></clipPath><clipPath id="clip-path-83" transform="translate(-308.88 -345.38)"><rect class="cls-1" x="410.83" y="360.93" width="14.4" height="14.4"/></clipPath><clipPath id="clip-path-84" transform="translate(-308.88 -345.38)"><rect class="cls-1" x="410.83" y="375.33" width="14.4" height="14.4"/></clipPath><clipPath id="clip-path-85" transform="translate(-308.88 -345.38)"><rect class="cls-1" x="410.83" y="389.73" width="14.4" height="14.4"/></clipPath><clipPath id="clip-path-86" transform="translate(-308.88 -345.38)"><rect class="cls-1" x="396.43" y="346.53" width="14.4" height="14.4"/></clipPath><clipPath id="clip-path-87" transform="translate(-308.88 -345.38)"><rect class="cls-1" x="396.43" y="360.93" width="14.4" height="14.4"/></clipPath><clipPath id="clip-path-88" transform="translate(-308.88 -345.38)"><rect class="cls-1" x="396.43" y="375.33" width="14.4" height="14.4"/></clipPath><clipPath id="clip-path-89" transform="translate(-308.88 -345.38)"><rect class="cls-1" x="396.43" y="389.73" width="14.4" height="14.4"/></clipPath><clipPath id="clip-path-90" transform="translate(-308.88 -345.38)"><rect class="cls-1" x="382.03" y="346.53" width="14.4" height="14.4"/></clipPath><clipPath id="clip-path-91" transform="translate(-308.88 -345.38)"><rect class="cls-1" x="382.03" y="360.93" width="14.4" height="14.4"/></clipPath><clipPath id="clip-path-92" transform="translate(-308.88 -345.38)"><rect class="cls-1" x="382.03" y="375.33" width="14.4" height="14.4"/></clipPath><clipPath id="clip-path-93" transform="translate(-308.88 -345.38)"><rect class="cls-1" x="382.03" y="389.73" width="14.4" height="14.4"/></clipPath><clipPath id="clip-path-94" transform="translate(-308.88 -345.38)"><rect class="cls-1" x="367.63" y="346.53" width="14.4" height="14.4"/></clipPath><clipPath id="clip-path-95" transform="translate(-308.88 -345.38)"><rect class="cls-1" x="367.63" y="360.93" width="14.4" height="14.4"/></clipPath><clipPath id="clip-path-96" transform="translate(-308.88 -345.38)"><rect class="cls-1" x="367.63" y="375.33" width="14.4" height="14.4"/></clipPath><clipPath id="clip-path-97" transform="translate(-308.88 -345.38)"><rect class="cls-1" x="367.63" y="389.73" width="14.4" height="14.4"/></clipPath><clipPath id="clip-path-98" transform="translate(-308.88 -345.38)"><rect class="cls-1" x="353.23" y="346.53" width="14.4" height="14.4"/></clipPath><clipPath id="clip-path-99" transform="translate(-308.88 -345.38)"><rect class="cls-1" x="353.23" y="360.93" width="14.4" height="14.4"/></clipPath><clipPath id="clip-path-100" transform="translate(-308.88 -345.38)"><rect class="cls-1" x="353.23" y="375.33" width="14.4" height="14.4"/></clipPath><clipPath id="clip-path-101" transform="translate(-308.88 -345.38)"><rect class="cls-1" x="353.23" y="389.73" width="14.4" height="14.4"/></clipPath><clipPath id="clip-path-102" transform="translate(-308.88 -345.38)"><rect class="cls-1" x="338.83" y="346.53" width="14.4" height="14.4"/></clipPath><clipPath id="clip-path-103" transform="translate(-308.88 -345.38)"><rect class="cls-1" x="338.83" y="360.93" width="14.4" height="14.4"/></clipPath><clipPath id="clip-path-104" transform="translate(-308.88 -345.38)"><rect class="cls-1" x="338.83" y="375.33" width="14.4" height="14.4"/></clipPath><clipPath id="clip-path-105" transform="translate(-308.88 -345.38)"><rect class="cls-1" x="338.83" y="389.73" width="14.4" height="14.4"/></clipPath><clipPath id="clip-path-106" transform="translate(-308.88 -345.38)"><rect class="cls-1" x="324.43" y="346.53" width="14.4" height="14.4"/></clipPath><clipPath id="clip-path-107" transform="translate(-308.88 -345.38)"><rect class="cls-1" x="324.43" y="360.93" width="14.4" height="14.4"/></clipPath><clipPath id="clip-path-108" transform="translate(-308.88 -345.38)"><rect class="cls-1" x="324.43" y="375.33" width="14.4" height="14.4"/></clipPath><clipPath id="clip-path-109" transform="translate(-308.88 -345.38)"><rect class="cls-1" x="324.43" y="389.73" width="14.4" height="14.4"/></clipPath><clipPath id="clip-path-110" transform="translate(-308.88 -345.38)"><rect class="cls-1" x="310.03" y="346.53" width="14.4" height="14.4"/></clipPath><clipPath id="clip-path-111" transform="translate(-308.88 -345.38)"><rect class="cls-1" x="310.03" y="360.93" width="14.4" height="14.4"/></clipPath><clipPath id="clip-path-112" transform="translate(-308.88 -345.38)"><rect class="cls-1" x="310.03" y="375.33" width="14.4" height="14.4"/></clipPath><clipPath id="clip-path-113" transform="translate(-308.88 -345.38)"><rect class="cls-1" x="310.03" y="389.73" width="14.4" height="14.4"/></clipPath></defs><title>motion5</title><g class="cls-2"><g id="motion5"><g class="cls-3"><g class="cls-4"><polygon class="cls-5" points="399.6 15.01 401.91 14.4 401.28 16.7 399.6 15.01"/><polygon class="cls-5" points="392.4 15.01 394.71 14.4 394.08 16.7 392.4 15.01"/><polygon class="cls-5" points="403.2 7.81 405.51 7.2 404.88 9.5 403.2 7.81"/><polygon class="cls-5" points="396 7.81 398.31 7.2 397.68 9.5 396 7.81"/><polygon class="cls-5" points="388.8 7.81 391.11 7.2 390.48 9.5 388.8 7.81"/><polygon class="cls-5" points="399.6 0.61 401.91 0 401.28 2.3 399.6 0.61"/><polygon class="cls-5" points="392.4 0.61 394.71 0 394.08 2.3 392.4 0.61"/></g><g class="cls-6"><polygon class="cls-5" points="399.6 29.41 401.91 28.8 401.28 31.1 399.6 29.41"/><polygon class="cls-5" points="392.4 29.41 394.71 28.8 394.08 31.1 392.4 29.41"/><polygon class="cls-5" points="403.2 22.21 405.51 21.6 404.88 23.9 403.2 22.21"/><polygon class="cls-5" points="396 22.21 398.31 21.6 397.68 23.9 396 22.21"/><polygon class="cls-5" points="388.8 22.21 391.11 21.6 390.48 23.9 388.8 22.21"/><polygon class="cls-5" points="399.6 15.01 401.91 14.4 401.28 16.7 399.6 15.01"/><polygon class="cls-5" points="392.4 15.01 394.71 14.4 394.08 16.7 392.4 15.01"/></g><g class="cls-7"><polygon class="cls-5" points="399.6 43.81 401.91 43.2 401.28 45.5 399.6 43.81"/><polygon class="cls-5" points="392.4 43.81 394.71 43.2 394.08 45.5 392.4 43.81"/><polygon class="cls-5" points="403.2 36.61 405.51 36 404.88 38.3 403.2 36.61"/><polygon class="cls-5" points="396 36.61 398.31 36 397.68 38.3 396 36.61"/><polygon class="cls-5" points="388.8 36.61 391.11 36 390.48 38.3 388.8 36.61"/><polygon class="cls-5" points="399.6 29.41 401.91 28.8 401.28 31.1 399.6 29.41"/><polygon class="cls-5" points="392.4 29.41 394.71 28.8 394.08 31.1 392.4 29.41"/></g><g class="cls-8"><polygon class="cls-5" points="399.6 58.21 401.91 57.6 401.28 59.9 399.6 58.21"/><polygon class="cls-5" points="392.4 58.21 394.71 57.6 394.08 59.9 392.4 58.21"/><polygon class="cls-5" points="403.2 51.01 405.51 50.4 404.88 52.7 403.2 51.01"/><polygon class="cls-5" points="396 51.01 398.31 50.4 397.68 52.7 396 51.01"/><polygon class="cls-5" points="388.8 51.01 391.11 50.4 390.48 52.7 388.8 51.01"/><polygon class="cls-5" points="399.6 43.81 401.91 43.2 401.28 45.5 399.6 43.81"/><polygon class="cls-5" points="392.4 43.81 394.71 43.2 394.08 45.5 392.4 43.81"/></g><g class="cls-9"><polygon class="cls-5" points="385.2 15.01 387.51 14.4 386.88 16.7 385.2 15.01"/><polygon class="cls-5" points="378 15.01 380.31 14.4 379.68 16.7 378 15.01"/><polygon class="cls-5" points="388.8 7.81 391.11 7.2 390.48 9.5 388.8 7.81"/><polygon class="cls-5" points="381.6 7.81 383.91 7.2 383.28 9.5 381.6 7.81"/><polygon class="cls-5" points="374.4 7.81 376.71 7.2 376.08 9.5 374.4 7.81"/><polygon class="cls-5" points="385.2 0.61 387.51 0 386.88 2.3 385.2 0.61"/><polygon class="cls-5" points="378 0.61 380.31 0 379.68 2.3 378 0.61"/></g><g class="cls-10"><polygon class="cls-5" points="385.2 29.41 387.51 28.8 386.88 31.1 385.2 29.41"/><polygon class="cls-5" points="378 29.41 380.31 28.8 379.68 31.1 378 29.41"/><polygon class="cls-5" points="388.8 22.21 391.11 21.6 390.48 23.9 388.8 22.21"/><polygon class="cls-5" points="381.6 22.21 383.91 21.6 383.28 23.9 381.6 22.21"/><polygon class="cls-5" points="374.4 22.21 376.71 21.6 376.08 23.9 374.4 22.21"/><polygon class="cls-5" points="385.2 15.01 387.51 14.4 386.88 16.7 385.2 15.01"/><polygon class="cls-5" points="378 15.01 380.31 14.4 379.68 16.7 378 15.01"/></g><g class="cls-11"><polygon class="cls-5" points="385.2 43.81 387.51 43.2 386.88 45.5 385.2 43.81"/><polygon class="cls-5" points="378 43.81 380.31 43.2 379.68 45.5 378 43.81"/><polygon class="cls-5" points="388.8 36.61 391.11 36 390.48 38.3 388.8 36.61"/><polygon class="cls-5" points="381.6 36.61 383.91 36 383.28 38.3 381.6 36.61"/><polygon class="cls-5" points="374.4 36.61 376.71 36 376.08 38.3 374.4 36.61"/><polygon class="cls-5" points="385.2 29.41 387.51 28.8 386.88 31.1 385.2 29.41"/><polygon class="cls-5" points="378 29.41 380.31 28.8 379.68 31.1 378 29.41"/></g><g class="cls-12"><polygon class="cls-5" points="385.2 58.21 387.51 57.6 386.88 59.9 385.2 58.21"/><polygon class="cls-5" points="378 58.21 380.31 57.6 379.68 59.9 378 58.21"/><polygon class="cls-5" points="388.8 51.01 391.11 50.4 390.48 52.7 388.8 51.01"/><polygon class="cls-5" points="381.6 51.01 383.91 50.4 383.28 52.7 381.6 51.01"/><polygon class="cls-5" points="374.4 51.01 376.71 50.4 376.08 52.7 374.4 51.01"/><polygon class="cls-5" points="385.2 43.81 387.51 43.2 386.88 45.5 385.2 43.81"/><polygon class="cls-5" points="378 43.81 380.31 43.2 379.68 45.5 378 43.81"/></g><g class="cls-13"><polygon class="cls-5" points="370.8 15.01 373.11 14.4 372.48 16.7 370.8 15.01"/><polygon class="cls-5" points="363.6 15.01 365.91 14.4 365.28 16.7 363.6 15.01"/><polygon class="cls-5" points="374.4 7.81 376.71 7.2 376.08 9.5 374.4 7.81"/><polygon class="cls-5" points="367.2 7.81 369.51 7.2 368.88 9.5 367.2 7.81"/><polygon class="cls-5" points="360 7.81 362.31 7.2 361.68 9.5 360 7.81"/><polygon class="cls-5" points="370.8 0.61 373.11 0 372.48 2.3 370.8 0.61"/><polygon class="cls-5" points="363.6 0.61 365.91 0 365.28 2.3 363.6 0.61"/></g><g class="cls-14"><polygon class="cls-5" points="370.8 29.41 373.11 28.8 372.48 31.1 370.8 29.41"/><polygon class="cls-5" points="363.6 29.41 365.91 28.8 365.28 31.1 363.6 29.41"/><polygon class="cls-5" points="374.4 22.21 376.71 21.6 376.08 23.9 374.4 22.21"/><polygon class="cls-5" points="367.2 22.21 369.51 21.6 368.88 23.9 367.2 22.21"/><polygon class="cls-5" points="360 22.21 362.31 21.6 361.68 23.9 360 22.21"/><polygon class="cls-5" points="370.8 15.01 373.11 14.4 372.48 16.7 370.8 15.01"/><polygon class="cls-5" points="363.6 15.01 365.91 14.4 365.28 16.7 363.6 15.01"/></g><g class="cls-15"><polygon class="cls-5" points="370.8 43.81 373.11 43.2 372.48 45.5 370.8 43.81"/><polygon class="cls-5" points="363.6 43.81 365.91 43.2 365.28 45.5 363.6 43.81"/><polygon class="cls-5" points="374.4 36.61 376.71 36 376.08 38.3 374.4 36.61"/><polygon class="cls-5" points="367.2 36.61 369.51 36 368.88 38.3 367.2 36.61"/><polygon class="cls-5" points="360 36.61 362.31 36 361.68 38.3 360 36.61"/><polygon class="cls-5" points="370.8 29.41 373.11 28.8 372.48 31.1 370.8 29.41"/><polygon class="cls-5" points="363.6 29.41 365.91 28.8 365.28 31.1 363.6 29.41"/></g><g class="cls-16"><polygon class="cls-5" points="370.8 58.21 373.11 57.6 372.48 59.9 370.8 58.21"/><polygon class="cls-5" points="363.6 58.21 365.91 57.6 365.28 59.9 363.6 58.21"/><polygon class="cls-5" points="374.4 51.01 376.71 50.4 376.08 52.7 374.4 51.01"/><polygon class="cls-5" points="367.2 51.01 369.51 50.4 368.88 52.7 367.2 51.01"/><polygon class="cls-5" points="360 51.01 362.31 50.4 361.68 52.7 360 51.01"/><polygon class="cls-5" points="370.8 43.81 373.11 43.2 372.48 45.5 370.8 43.81"/><polygon class="cls-5" points="363.6 43.81 365.91 43.2 365.28 45.5 363.6 43.81"/></g><g class="cls-17"><polygon class="cls-5" points="356.4 15.01 358.71 14.4 358.08 16.7 356.4 15.01"/><polygon class="cls-5" points="349.2 15.01 351.51 14.4 350.88 16.7 349.2 15.01"/><polygon class="cls-5" points="360 7.81 362.31 7.2 361.68 9.5 360 7.81"/><polygon class="cls-5" points="352.8 7.81 355.11 7.2 354.48 9.5 352.8 7.81"/><polygon class="cls-5" points="345.6 7.81 347.91 7.2 347.28 9.5 345.6 7.81"/><polygon class="cls-5" points="356.4 0.61 358.71 0 358.08 2.3 356.4 0.61"/><polygon class="cls-5" points="349.2 0.61 351.51 0 350.88 2.3 349.2 0.61"/></g><g class="cls-18"><polygon class="cls-5" points="356.4 29.41 358.71 28.8 358.08 31.1 356.4 29.41"/><polygon class="cls-5" points="349.2 29.41 351.51 28.8 350.88 31.1 349.2 29.41"/><polygon class="cls-5" points="360 22.21 362.31 21.6 361.68 23.9 360 22.21"/><polygon class="cls-5" points="352.8 22.21 355.11 21.6 354.48 23.9 352.8 22.21"/><polygon class="cls-5" points="345.6 22.21 347.91 21.6 347.28 23.9 345.6 22.21"/><polygon class="cls-5" points="356.4 15.01 358.71 14.4 358.08 16.7 356.4 15.01"/><polygon class="cls-5" points="349.2 15.01 351.51 14.4 350.88 16.7 349.2 15.01"/></g><g class="cls-19"><polygon class="cls-5" points="356.4 43.81 358.71 43.2 358.08 45.5 356.4 43.81"/><polygon class="cls-5" points="349.2 43.81 351.51 43.2 350.88 45.5 349.2 43.81"/><polygon class="cls-5" points="360 36.61 362.31 36 361.68 38.3 360 36.61"/><polygon class="cls-5" points="352.8 36.61 355.11 36 354.48 38.3 352.8 36.61"/><polygon class="cls-5" points="345.6 36.61 347.91 36 347.28 38.3 345.6 36.61"/><polygon class="cls-5" points="356.4 29.41 358.71 28.8 358.08 31.1 356.4 29.41"/><polygon class="cls-5" points="349.2 29.41 351.51 28.8 350.88 31.1 349.2 29.41"/></g><g class="cls-20"><polygon class="cls-5" points="356.4 58.21 358.71 57.6 358.08 59.9 356.4 58.21"/><polygon class="cls-5" points="349.2 58.21 351.51 57.6 350.88 59.9 349.2 58.21"/><polygon class="cls-5" points="360 51.01 362.31 50.4 361.68 52.7 360 51.01"/><polygon class="cls-5" points="352.8 51.01 355.11 50.4 354.48 52.7 352.8 51.01"/><polygon class="cls-5" points="345.6 51.01 347.91 50.4 347.28 52.7 345.6 51.01"/><polygon class="cls-5" points="356.4 43.81 358.71 43.2 358.08 45.5 356.4 43.81"/><polygon class="cls-5" points="349.2 43.81 351.51 43.2 350.88 45.5 349.2 43.81"/></g><g class="cls-21"><polygon class="cls-5" points="342 15.01 344.31 14.4 343.68 16.7 342 15.01"/><polygon class="cls-5" points="334.8 15.01 337.11 14.4 336.48 16.7 334.8 15.01"/><polygon class="cls-5" points="345.6 7.81 347.91 7.2 347.28 9.5 345.6 7.81"/><polygon class="cls-5" points="338.4 7.81 340.71 7.2 340.08 9.5 338.4 7.81"/><polygon class="cls-5" points="331.2 7.81 333.51 7.2 332.88 9.5 331.2 7.81"/><polygon class="cls-5" points="342 0.61 344.31 0 343.68 2.3 342 0.61"/><polygon class="cls-5" points="334.8 0.61 337.11 0 336.48 2.3 334.8 0.61"/></g><g class="cls-22"><polygon class="cls-5" points="342 29.41 344.31 28.8 343.68 31.1 342 29.41"/><polygon class="cls-5" points="334.8 29.41 337.11 28.8 336.48 31.1 334.8 29.41"/><polygon class="cls-5" points="345.6 22.21 347.91 21.6 347.28 23.9 345.6 22.21"/><polygon class="cls-5" points="338.4 22.21 340.71 21.6 340.08 23.9 338.4 22.21"/><polygon class="cls-5" points="331.2 22.21 333.51 21.6 332.88 23.9 331.2 22.21"/><polygon class="cls-5" points="342 15.01 344.31 14.4 343.68 16.7 342 15.01"/><polygon class="cls-5" points="334.8 15.01 337.11 14.4 336.48 16.7 334.8 15.01"/></g><g class="cls-23"><polygon class="cls-5" points="342 43.81 344.31 43.2 343.68 45.5 342 43.81"/><polygon class="cls-5" points="334.8 43.81 337.11 43.2 336.48 45.5 334.8 43.81"/><polygon class="cls-5" points="345.6 36.61 347.91 36 347.28 38.3 345.6 36.61"/><polygon class="cls-5" points="338.4 36.61 340.71 36 340.08 38.3 338.4 36.61"/><polygon class="cls-5" points="331.2 36.61 333.51 36 332.88 38.3 331.2 36.61"/><polygon class="cls-5" points="342 29.41 344.31 28.8 343.68 31.1 342 29.41"/><polygon class="cls-5" points="334.8 29.41 337.11 28.8 336.48 31.1 334.8 29.41"/></g><g class="cls-24"><polygon class="cls-5" points="342 58.21 344.31 57.6 343.68 59.9 342 58.21"/><polygon class="cls-5" points="334.8 58.21 337.11 57.6 336.48 59.9 334.8 58.21"/><polygon class="cls-5" points="345.6 51.01 347.91 50.4 347.28 52.7 345.6 51.01"/><polygon class="cls-5" points="338.4 51.01 340.71 50.4 340.08 52.7 338.4 51.01"/><polygon class="cls-5" points="331.2 51.01 333.51 50.4 332.88 52.7 331.2 51.01"/><polygon class="cls-5" points="342 43.81 344.31 43.2 343.68 45.5 342 43.81"/><polygon class="cls-5" points="334.8 43.81 337.11 43.2 336.48 45.5 334.8 43.81"/></g><g class="cls-25"><polygon class="cls-5" points="327.6 15.01 329.91 14.4 329.28 16.7 327.6 15.01"/><polygon class="cls-5" points="320.4 15.01 322.71 14.4 322.08 16.7 320.4 15.01"/><polygon class="cls-5" points="331.2 7.81 333.51 7.2 332.88 9.5 331.2 7.81"/><polygon class="cls-5" points="324 7.81 326.31 7.2 325.68 9.5 324 7.81"/><polygon class="cls-5" points="316.8 7.81 319.11 7.2 318.48 9.5 316.8 7.81"/><polygon class="cls-5" points="327.6 0.61 329.91 0 329.28 2.3 327.6 0.61"/><polygon class="cls-5" points="320.4 0.61 322.71 0 322.08 2.3 320.4 0.61"/></g><g class="cls-26"><polygon class="cls-5" points="327.6 29.41 329.91 28.8 329.28 31.1 327.6 29.41"/><polygon class="cls-5" points="320.4 29.41 322.71 28.8 322.08 31.1 320.4 29.41"/><polygon class="cls-5" points="331.2 22.21 333.51 21.6 332.88 23.9 331.2 22.21"/><polygon class="cls-5" points="324 22.21 326.31 21.6 325.68 23.9 324 22.21"/><polygon class="cls-5" points="316.8 22.21 319.11 21.6 318.48 23.9 316.8 22.21"/><polygon class="cls-5" points="327.6 15.01 329.91 14.4 329.28 16.7 327.6 15.01"/><polygon class="cls-5" points="320.4 15.01 322.71 14.4 322.08 16.7 320.4 15.01"/></g><g class="cls-27"><polygon class="cls-5" points="327.6 43.81 329.91 43.2 329.28 45.5 327.6 43.81"/><polygon class="cls-5" points="320.4 43.81 322.71 43.2 322.08 45.5 320.4 43.81"/><polygon class="cls-5" points="331.2 36.61 333.51 36 332.88 38.3 331.2 36.61"/><polygon class="cls-5" points="324 36.61 326.31 36 325.68 38.3 324 36.61"/><polygon class="cls-5" points="316.8 36.61 319.11 36 318.48 38.3 316.8 36.61"/><polygon class="cls-5" points="327.6 29.41 329.91 28.8 329.28 31.1 327.6 29.41"/><polygon class="cls-5" points="320.4 29.41 322.71 28.8 322.08 31.1 320.4 29.41"/></g><g class="cls-28"><polygon class="cls-5" points="327.6 58.21 329.91 57.6 329.28 59.9 327.6 58.21"/><polygon class="cls-5" points="320.4 58.21 322.71 57.6 322.08 59.9 320.4 58.21"/><polygon class="cls-5" points="331.2 51.01 333.51 50.4 332.88 52.7 331.2 51.01"/><polygon class="cls-5" points="324 51.01 326.31 50.4 325.68 52.7 324 51.01"/><polygon class="cls-5" points="316.8 51.01 319.11 50.4 318.48 52.7 316.8 51.01"/><polygon class="cls-5" points="327.6 43.81 329.91 43.2 329.28 45.5 327.6 43.81"/><polygon class="cls-5" points="320.4 43.81 322.71 43.2 322.08 45.5 320.4 43.81"/></g><g class="cls-29"><polygon class="cls-5" points="313.2 15.01 315.51 14.4 314.88 16.7 313.2 15.01"/><polygon class="cls-5" points="306 15.01 308.31 14.4 307.68 16.7 306 15.01"/><polygon class="cls-5" points="316.8 7.81 319.11 7.2 318.48 9.5 316.8 7.81"/><polygon class="cls-5" points="309.6 7.81 311.91 7.2 311.28 9.5 309.6 7.81"/><polygon class="cls-5" points="302.4 7.81 304.71 7.2 304.08 9.5 302.4 7.81"/><polygon class="cls-5" points="313.2 0.61 315.51 0 314.88 2.3 313.2 0.61"/><polygon class="cls-5" points="306 0.61 308.31 0 307.68 2.3 306 0.61"/></g><g class="cls-30"><polygon class="cls-5" points="313.2 29.41 315.51 28.8 314.88 31.1 313.2 29.41"/><polygon class="cls-5" points="306 29.41 308.31 28.8 307.68 31.1 306 29.41"/><polygon class="cls-5" points="316.8 22.21 319.11 21.6 318.48 23.9 316.8 22.21"/><polygon class="cls-5" points="309.6 22.21 311.91 21.6 311.28 23.9 309.6 22.21"/><polygon class="cls-5" points="302.4 22.21 304.71 21.6 304.08 23.9 302.4 22.21"/><polygon class="cls-5" points="313.2 15.01 315.51 14.4 314.88 16.7 313.2 15.01"/><polygon class="cls-5" points="306 15.01 308.31 14.4 307.68 16.7 306 15.01"/></g><g class="cls-31"><polygon class="cls-5" points="313.2 43.81 315.51 43.2 314.88 45.5 313.2 43.81"/><polygon class="cls-5" points="306 43.81 308.31 43.2 307.68 45.5 306 43.81"/><polygon class="cls-5" points="316.8 36.61 319.11 36 318.48 38.3 316.8 36.61"/><polygon class="cls-5" points="309.6 36.61 311.91 36 311.28 38.3 309.6 36.61"/><polygon class="cls-5" points="302.4 36.61 304.71 36 304.08 38.3 302.4 36.61"/><polygon class="cls-5" points="313.2 29.41 315.51 28.8 314.88 31.1 313.2 29.41"/><polygon class="cls-5" points="306 29.41 308.31 28.8 307.68 31.1 306 29.41"/></g><g class="cls-32"><polygon class="cls-5" points="313.2 58.21 315.51 57.6 314.88 59.9 313.2 58.21"/><polygon class="cls-5" points="306 58.21 308.31 57.6 307.68 59.9 306 58.21"/><polygon class="cls-5" points="316.8 51.01 319.11 50.4 318.48 52.7 316.8 51.01"/><polygon class="cls-5" points="309.6 51.01 311.91 50.4 311.28 52.7 309.6 51.01"/><polygon class="cls-5" points="302.4 51.01 304.71 50.4 304.08 52.7 302.4 51.01"/><polygon class="cls-5" points="313.2 43.81 315.51 43.2 314.88 45.5 313.2 43.81"/><polygon class="cls-5" points="306 43.81 308.31 43.2 307.68 45.5 306 43.81"/></g><g class="cls-33"><polygon class="cls-5" points="298.8 15.01 301.11 14.4 300.48 16.7 298.8 15.01"/><polygon class="cls-5" points="291.6 15.01 293.91 14.4 293.28 16.7 291.6 15.01"/><polygon class="cls-5" points="302.4 7.81 304.71 7.2 304.08 9.5 302.4 7.81"/><polygon class="cls-5" points="295.2 7.81 297.51 7.2 296.88 9.5 295.2 7.81"/><polygon class="cls-5" points="288 7.81 290.31 7.2 289.68 9.5 288 7.81"/><polygon class="cls-5" points="298.8 0.61 301.11 0 300.48 2.3 298.8 0.61"/><polygon class="cls-5" points="291.6 0.61 293.91 0 293.28 2.3 291.6 0.61"/></g><g class="cls-34"><polygon class="cls-5" points="298.8 29.41 301.11 28.8 300.48 31.1 298.8 29.41"/><polygon class="cls-5" points="291.6 29.41 293.91 28.8 293.28 31.1 291.6 29.41"/><polygon class="cls-5" points="302.4 22.21 304.71 21.6 304.08 23.9 302.4 22.21"/><polygon class="cls-5" points="295.2 22.21 297.51 21.6 296.88 23.9 295.2 22.21"/><polygon class="cls-5" points="288 22.21 290.31 21.6 289.68 23.9 288 22.21"/><polygon class="cls-5" points="298.8 15.01 301.11 14.4 300.48 16.7 298.8 15.01"/><polygon class="cls-5" points="291.6 15.01 293.91 14.4 293.28 16.7 291.6 15.01"/></g><g class="cls-35"><polygon class="cls-5" points="298.8 43.81 301.11 43.2 300.48 45.5 298.8 43.81"/><polygon class="cls-5" points="291.6 43.81 293.91 43.2 293.28 45.5 291.6 43.81"/><polygon class="cls-5" points="302.4 36.61 304.71 36 304.08 38.3 302.4 36.61"/><polygon class="cls-5" points="295.2 36.61 297.51 36 296.88 38.3 295.2 36.61"/><polygon class="cls-5" points="288 36.61 290.31 36 289.68 38.3 288 36.61"/><polygon class="cls-5" points="298.8 29.41 301.11 28.8 300.48 31.1 298.8 29.41"/><polygon class="cls-5" points="291.6 29.41 293.91 28.8 293.28 31.1 291.6 29.41"/></g><g class="cls-36"><polygon class="cls-5" points="298.8 58.21 301.11 57.6 300.48 59.9 298.8 58.21"/><polygon class="cls-5" points="291.6 58.21 293.91 57.6 293.28 59.9 291.6 58.21"/><polygon class="cls-5" points="302.4 51.01 304.71 50.4 304.08 52.7 302.4 51.01"/><polygon class="cls-5" points="295.2 51.01 297.51 50.4 296.88 52.7 295.2 51.01"/><polygon class="cls-5" points="288 51.01 290.31 50.4 289.68 52.7 288 51.01"/><polygon class="cls-5" points="298.8 43.81 301.11 43.2 300.48 45.5 298.8 43.81"/><polygon class="cls-5" points="291.6 43.81 293.91 43.2 293.28 45.5 291.6 43.81"/></g><g class="cls-37"><polygon class="cls-5" points="284.4 15.01 286.71 14.4 286.08 16.7 284.4 15.01"/><polygon class="cls-5" points="277.2 15.01 279.51 14.4 278.88 16.7 277.2 15.01"/><polygon class="cls-5" points="288 7.81 290.31 7.2 289.68 9.5 288 7.81"/><polygon class="cls-5" points="280.8 7.81 283.11 7.2 282.48 9.5 280.8 7.81"/><polygon class="cls-5" points="273.6 7.81 275.91 7.2 275.28 9.5 273.6 7.81"/><polygon class="cls-5" points="284.4 0.61 286.71 0 286.08 2.3 284.4 0.61"/><polygon class="cls-5" points="277.2 0.61 279.51 0 278.88 2.3 277.2 0.61"/></g><g class="cls-38"><polygon class="cls-5" points="284.4 29.41 286.71 28.8 286.08 31.1 284.4 29.41"/><polygon class="cls-5" points="277.2 29.41 279.51 28.8 278.88 31.1 277.2 29.41"/><polygon class="cls-5" points="288 22.21 290.31 21.6 289.68 23.9 288 22.21"/><polygon class="cls-5" points="280.8 22.21 283.11 21.6 282.48 23.9 280.8 22.21"/><polygon class="cls-5" points="273.6 22.21 275.91 21.6 275.28 23.9 273.6 22.21"/><polygon class="cls-5" points="284.4 15.01 286.71 14.4 286.08 16.7 284.4 15.01"/><polygon class="cls-5" points="277.2 15.01 279.51 14.4 278.88 16.7 277.2 15.01"/></g><g class="cls-39"><polygon class="cls-5" points="284.4 43.81 286.71 43.2 286.08 45.5 284.4 43.81"/><polygon class="cls-5" points="277.2 43.81 279.51 43.2 278.88 45.5 277.2 43.81"/><polygon class="cls-5" points="288 36.61 290.31 36 289.68 38.3 288 36.61"/><polygon class="cls-5" points="280.8 36.61 283.11 36 282.48 38.3 280.8 36.61"/><polygon class="cls-5" points="273.6 36.61 275.91 36 275.28 38.3 273.6 36.61"/><polygon class="cls-5" points="284.4 29.41 286.71 28.8 286.08 31.1 284.4 29.41"/><polygon class="cls-5" points="277.2 29.41 279.51 28.8 278.88 31.1 277.2 29.41"/></g><g class="cls-40"><polygon class="cls-5" points="284.4 58.21 286.71 57.6 286.08 59.9 284.4 58.21"/><polygon class="cls-5" points="277.2 58.21 279.51 57.6 278.88 59.9 277.2 58.21"/><polygon class="cls-5" points="288 51.01 290.31 50.4 289.68 52.7 288 51.01"/><polygon class="cls-5" points="280.8 51.01 283.11 50.4 282.48 52.7 280.8 51.01"/><polygon class="cls-5" points="273.6 51.01 275.91 50.4 275.28 52.7 273.6 51.01"/><polygon class="cls-5" points="284.4 43.81 286.71 43.2 286.08 45.5 284.4 43.81"/><polygon class="cls-5" points="277.2 43.81 279.51 43.2 278.88 45.5 277.2 43.81"/></g><g class="cls-41"><polygon class="cls-5" points="270 15.01 272.31 14.4 271.68 16.7 270 15.01"/><polygon class="cls-5" points="262.8 15.01 265.11 14.4 264.48 16.7 262.8 15.01"/><polygon class="cls-5" points="273.6 7.81 275.91 7.2 275.28 9.5 273.6 7.81"/><polygon class="cls-5" points="266.4 7.81 268.71 7.2 268.08 9.5 266.4 7.81"/><polygon class="cls-5" points="259.2 7.81 261.51 7.2 260.88 9.5 259.2 7.81"/><polygon class="cls-5" points="270 0.61 272.31 0 271.68 2.3 270 0.61"/><polygon class="cls-5" points="262.8 0.61 265.11 0 264.48 2.3 262.8 0.61"/></g><g class="cls-42"><polygon class="cls-5" points="270 29.41 272.31 28.8 271.68 31.1 270 29.41"/><polygon class="cls-5" points="262.8 29.41 265.11 28.8 264.48 31.1 262.8 29.41"/><polygon class="cls-5" points="273.6 22.21 275.91 21.6 275.28 23.9 273.6 22.21"/><polygon class="cls-5" points="266.4 22.21 268.71 21.6 268.08 23.9 266.4 22.21"/><polygon class="cls-5" points="259.2 22.21 261.51 21.6 260.88 23.9 259.2 22.21"/><polygon class="cls-5" points="270 15.01 272.31 14.4 271.68 16.7 270 15.01"/><polygon class="cls-5" points="262.8 15.01 265.11 14.4 264.48 16.7 262.8 15.01"/></g><g class="cls-43"><polygon class="cls-5" points="270 43.81 272.31 43.2 271.68 45.5 270 43.81"/><polygon class="cls-5" points="262.8 43.81 265.11 43.2 264.48 45.5 262.8 43.81"/><polygon class="cls-5" points="273.6 36.61 275.91 36 275.28 38.3 273.6 36.61"/><polygon class="cls-5" points="266.4 36.61 268.71 36 268.08 38.3 266.4 36.61"/><polygon class="cls-5" points="259.2 36.61 261.51 36 260.88 38.3 259.2 36.61"/><polygon class="cls-5" points="270 29.41 272.31 28.8 271.68 31.1 270 29.41"/><polygon class="cls-5" points="262.8 29.41 265.11 28.8 264.48 31.1 262.8 29.41"/></g><g class="cls-44"><polygon class="cls-5" points="270 58.21 272.31 57.6 271.68 59.9 270 58.21"/><polygon class="cls-5" points="262.8 58.21 265.11 57.6 264.48 59.9 262.8 58.21"/><polygon class="cls-5" points="273.6 51.01 275.91 50.4 275.28 52.7 273.6 51.01"/><polygon class="cls-5" points="266.4 51.01 268.71 50.4 268.08 52.7 266.4 51.01"/><polygon class="cls-5" points="259.2 51.01 261.51 50.4 260.88 52.7 259.2 51.01"/><polygon class="cls-5" points="270 43.81 272.31 43.2 271.68 45.5 270 43.81"/><polygon class="cls-5" points="262.8 43.81 265.11 43.2 264.48 45.5 262.8 43.81"/></g><g class="cls-45"><polygon class="cls-5" points="255.6 15.01 257.91 14.4 257.28 16.7 255.6 15.01"/><polygon class="cls-5" points="248.4 15.01 250.71 14.4 250.08 16.7 248.4 15.01"/><polygon class="cls-5" points="259.2 7.81 261.51 7.2 260.88 9.5 259.2 7.81"/><polygon class="cls-5" points="252 7.81 254.31 7.2 253.68 9.5 252 7.81"/><polygon class="cls-5" points="244.8 7.81 247.11 7.2 246.48 9.5 244.8 7.81"/><polygon class="cls-5" points="255.6 0.61 257.91 0 257.28 2.3 255.6 0.61"/><polygon class="cls-5" points="248.4 0.61 250.71 0 250.08 2.3 248.4 0.61"/></g><g class="cls-46"><polygon class="cls-5" points="255.6 29.41 257.91 28.8 257.28 31.1 255.6 29.41"/><polygon class="cls-5" points="248.4 29.41 250.71 28.8 250.08 31.1 248.4 29.41"/><polygon class="cls-5" points="259.2 22.21 261.51 21.6 260.88 23.9 259.2 22.21"/><polygon class="cls-5" points="252 22.21 254.31 21.6 253.68 23.9 252 22.21"/><polygon class="cls-5" points="244.8 22.21 247.11 21.6 246.48 23.9 244.8 22.21"/><polygon class="cls-5" points="255.6 15.01 257.91 14.4 257.28 16.7 255.6 15.01"/><polygon class="cls-5" points="248.4 15.01 250.71 14.4 250.08 16.7 248.4 15.01"/></g><g class="cls-47"><polygon class="cls-5" points="255.6 43.81 257.91 43.2 257.28 45.5 255.6 43.81"/><polygon class="cls-5" points="248.4 43.81 250.71 43.2 250.08 45.5 248.4 43.81"/><polygon class="cls-5" points="259.2 36.61 261.51 36 260.88 38.3 259.2 36.61"/><polygon class="cls-5" points="252 36.61 254.31 36 253.68 38.3 252 36.61"/><polygon class="cls-5" points="244.8 36.61 247.11 36 246.48 38.3 244.8 36.61"/><polygon class="cls-5" points="255.6 29.41 257.91 28.8 257.28 31.1 255.6 29.41"/><polygon class="cls-5" points="248.4 29.41 250.71 28.8 250.08 31.1 248.4 29.41"/></g><g class="cls-48"><polygon class="cls-5" points="255.6 58.21 257.91 57.6 257.28 59.9 255.6 58.21"/><polygon class="cls-5" points="248.4 58.21 250.71 57.6 250.08 59.9 248.4 58.21"/><polygon class="cls-5" points="259.2 51.01 261.51 50.4 260.88 52.7 259.2 51.01"/><polygon class="cls-5" points="252 51.01 254.31 50.4 253.68 52.7 252 51.01"/><polygon class="cls-5" points="244.8 51.01 247.11 50.4 246.48 52.7 244.8 51.01"/><polygon class="cls-5" points="255.6 43.81 257.91 43.2 257.28 45.5 255.6 43.81"/><polygon class="cls-5" points="248.4 43.81 250.71 43.2 250.08 45.5 248.4 43.81"/></g><g class="cls-49"><polygon class="cls-5" points="241.2 15.01 243.51 14.4 242.88 16.7 241.2 15.01"/><polygon class="cls-5" points="234 15.01 236.31 14.4 235.68 16.7 234 15.01"/><polygon class="cls-5" points="244.8 7.81 247.11 7.2 246.48 9.5 244.8 7.81"/><polygon class="cls-5" points="237.6 7.81 239.91 7.2 239.28 9.5 237.6 7.81"/><polygon class="cls-5" points="230.4 7.81 232.71 7.2 232.08 9.5 230.4 7.81"/><polygon class="cls-5" points="241.2 0.61 243.51 0 242.88 2.3 241.2 0.61"/><polygon class="cls-5" points="234 0.61 236.31 0 235.68 2.3 234 0.61"/></g><g class="cls-50"><polygon class="cls-5" points="241.2 29.41 243.51 28.8 242.88 31.1 241.2 29.41"/><polygon class="cls-5" points="234 29.41 236.31 28.8 235.68 31.1 234 29.41"/><polygon class="cls-5" points="244.8 22.21 247.11 21.6 246.48 23.9 244.8 22.21"/><polygon class="cls-5" points="237.6 22.21 239.91 21.6 239.28 23.9 237.6 22.21"/><polygon class="cls-5" points="230.4 22.21 232.71 21.6 232.08 23.9 230.4 22.21"/><polygon class="cls-5" points="241.2 15.01 243.51 14.4 242.88 16.7 241.2 15.01"/><polygon class="cls-5" points="234 15.01 236.31 14.4 235.68 16.7 234 15.01"/></g><g class="cls-51"><polygon class="cls-5" points="241.2 43.81 243.51 43.2 242.88 45.5 241.2 43.81"/><polygon class="cls-5" points="234 43.81 236.31 43.2 235.68 45.5 234 43.81"/><polygon class="cls-5" points="244.8 36.61 247.11 36 246.48 38.3 244.8 36.61"/><polygon class="cls-5" points="237.6 36.61 239.91 36 239.28 38.3 237.6 36.61"/><polygon class="cls-5" points="230.4 36.61 232.71 36 232.08 38.3 230.4 36.61"/><polygon class="cls-5" points="241.2 29.41 243.51 28.8 242.88 31.1 241.2 29.41"/><polygon class="cls-5" points="234 29.41 236.31 28.8 235.68 31.1 234 29.41"/></g><g class="cls-52"><polygon class="cls-5" points="241.2 58.21 243.51 57.6 242.88 59.9 241.2 58.21"/><polygon class="cls-5" points="234 58.21 236.31 57.6 235.68 59.9 234 58.21"/><polygon class="cls-5" points="244.8 51.01 247.11 50.4 246.48 52.7 244.8 51.01"/><polygon class="cls-5" points="237.6 51.01 239.91 50.4 239.28 52.7 237.6 51.01"/><polygon class="cls-5" points="230.4 51.01 232.71 50.4 232.08 52.7 230.4 51.01"/><polygon class="cls-5" points="241.2 43.81 243.51 43.2 242.88 45.5 241.2 43.81"/><polygon class="cls-5" points="234 43.81 236.31 43.2 235.68 45.5 234 43.81"/></g><g class="cls-53"><polygon class="cls-5" points="226.8 15.01 229.11 14.4 228.48 16.7 226.8 15.01"/><polygon class="cls-5" points="219.6 15.01 221.91 14.4 221.28 16.7 219.6 15.01"/><polygon class="cls-5" points="230.4 7.81 232.71 7.2 232.08 9.5 230.4 7.81"/><polygon class="cls-5" points="223.2 7.81 225.51 7.2 224.88 9.5 223.2 7.81"/><polygon class="cls-5" points="216 7.81 218.31 7.2 217.68 9.5 216 7.81"/><polygon class="cls-5" points="226.8 0.61 229.11 0 228.48 2.3 226.8 0.61"/><polygon class="cls-5" points="219.6 0.61 221.91 0 221.28 2.3 219.6 0.61"/></g><g class="cls-54"><polygon class="cls-5" points="226.8 29.41 229.11 28.8 228.48 31.1 226.8 29.41"/><polygon class="cls-5" points="219.6 29.41 221.91 28.8 221.28 31.1 219.6 29.41"/><polygon class="cls-5" points="230.4 22.21 232.71 21.6 232.08 23.9 230.4 22.21"/><polygon class="cls-5" points="223.2 22.21 225.51 21.6 224.88 23.9 223.2 22.21"/><polygon class="cls-5" points="216 22.21 218.31 21.6 217.68 23.9 216 22.21"/><polygon class="cls-5" points="226.8 15.01 229.11 14.4 228.48 16.7 226.8 15.01"/><polygon class="cls-5" points="219.6 15.01 221.91 14.4 221.28 16.7 219.6 15.01"/></g><g class="cls-55"><polygon class="cls-5" points="226.8 43.81 229.11 43.2 228.48 45.5 226.8 43.81"/><polygon class="cls-5" points="219.6 43.81 221.91 43.2 221.28 45.5 219.6 43.81"/><polygon class="cls-5" points="230.4 36.61 232.71 36 232.08 38.3 230.4 36.61"/><polygon class="cls-5" points="223.2 36.61 225.51 36 224.88 38.3 223.2 36.61"/><polygon class="cls-5" points="216 36.61 218.31 36 217.68 38.3 216 36.61"/><polygon class="cls-5" points="226.8 29.41 229.11 28.8 228.48 31.1 226.8 29.41"/><polygon class="cls-5" points="219.6 29.41 221.91 28.8 221.28 31.1 219.6 29.41"/></g><g class="cls-56"><polygon class="cls-5" points="226.8 58.21 229.11 57.6 228.48 59.9 226.8 58.21"/><polygon class="cls-5" points="219.6 58.21 221.91 57.6 221.28 59.9 219.6 58.21"/><polygon class="cls-5" points="230.4 51.01 232.71 50.4 232.08 52.7 230.4 51.01"/><polygon class="cls-5" points="223.2 51.01 225.51 50.4 224.88 52.7 223.2 51.01"/><polygon class="cls-5" points="216 51.01 218.31 50.4 217.68 52.7 216 51.01"/><polygon class="cls-5" points="226.8 43.81 229.11 43.2 228.48 45.5 226.8 43.81"/><polygon class="cls-5" points="219.6 43.81 221.91 43.2 221.28 45.5 219.6 43.81"/></g><g class="cls-57"><polygon class="cls-5" points="212.4 15.01 214.71 14.4 214.08 16.7 212.4 15.01"/><polygon class="cls-5" points="205.2 15.01 207.51 14.4 206.88 16.7 205.2 15.01"/><polygon class="cls-5" points="216 7.81 218.31 7.2 217.68 9.5 216 7.81"/><polygon class="cls-5" points="208.8 7.81 211.11 7.2 210.48 9.5 208.8 7.81"/><polygon class="cls-5" points="201.6 7.81 203.91 7.2 203.28 9.5 201.6 7.81"/><polygon class="cls-5" points="212.4 0.61 214.71 0 214.08 2.3 212.4 0.61"/><polygon class="cls-5" points="205.2 0.61 207.51 0 206.88 2.3 205.2 0.61"/></g><g class="cls-58"><polygon class="cls-5" points="212.4 29.41 214.71 28.8 214.08 31.1 212.4 29.41"/><polygon class="cls-5" points="205.2 29.41 207.51 28.8 206.88 31.1 205.2 29.41"/><polygon class="cls-5" points="216 22.21 218.31 21.6 217.68 23.9 216 22.21"/><polygon class="cls-5" points="208.8 22.21 211.11 21.6 210.48 23.9 208.8 22.21"/><polygon class="cls-5" points="201.6 22.21 203.91 21.6 203.28 23.9 201.6 22.21"/><polygon class="cls-5" points="212.4 15.01 214.71 14.4 214.08 16.7 212.4 15.01"/><polygon class="cls-5" points="205.2 15.01 207.51 14.4 206.88 16.7 205.2 15.01"/></g><g class="cls-59"><polygon class="cls-5" points="212.4 43.81 214.71 43.2 214.08 45.5 212.4 43.81"/><polygon class="cls-5" points="205.2 43.81 207.51 43.2 206.88 45.5 205.2 43.81"/><polygon class="cls-5" points="216 36.61 218.31 36 217.68 38.3 216 36.61"/><polygon class="cls-5" points="208.8 36.61 211.11 36 210.48 38.3 208.8 36.61"/><polygon class="cls-5" points="201.6 36.61 203.91 36 203.28 38.3 201.6 36.61"/><polygon class="cls-5" points="212.4 29.41 214.71 28.8 214.08 31.1 212.4 29.41"/><polygon class="cls-5" points="205.2 29.41 207.51 28.8 206.88 31.1 205.2 29.41"/></g><g class="cls-60"><polygon class="cls-5" points="212.4 58.21 214.71 57.6 214.08 59.9 212.4 58.21"/><polygon class="cls-5" points="205.2 58.21 207.51 57.6 206.88 59.9 205.2 58.21"/><polygon class="cls-5" points="216 51.01 218.31 50.4 217.68 52.7 216 51.01"/><polygon class="cls-5" points="208.8 51.01 211.11 50.4 210.48 52.7 208.8 51.01"/><polygon class="cls-5" points="201.6 51.01 203.91 50.4 203.28 52.7 201.6 51.01"/><polygon class="cls-5" points="212.4 43.81 214.71 43.2 214.08 45.5 212.4 43.81"/><polygon class="cls-5" points="205.2 43.81 207.51 43.2 206.88 45.5 205.2 43.81"/></g><g class="cls-61"><polygon class="cls-5" points="198 15.01 200.31 14.4 199.68 16.7 198 15.01"/><polygon class="cls-5" points="190.8 15.01 193.11 14.4 192.48 16.7 190.8 15.01"/><polygon class="cls-5" points="201.6 7.81 203.91 7.2 203.28 9.5 201.6 7.81"/><polygon class="cls-5" points="194.4 7.81 196.71 7.2 196.08 9.5 194.4 7.81"/><polygon class="cls-5" points="187.2 7.81 189.51 7.2 188.88 9.5 187.2 7.81"/><polygon class="cls-5" points="198 0.61 200.31 0 199.68 2.3 198 0.61"/><polygon class="cls-5" points="190.8 0.61 193.11 0 192.48 2.3 190.8 0.61"/></g><g class="cls-62"><polygon class="cls-5" points="198 29.41 200.31 28.8 199.68 31.1 198 29.41"/><polygon class="cls-5" points="190.8 29.41 193.11 28.8 192.48 31.1 190.8 29.41"/><polygon class="cls-5" points="201.6 22.21 203.91 21.6 203.28 23.9 201.6 22.21"/><polygon class="cls-5" points="194.4 22.21 196.71 21.6 196.08 23.9 194.4 22.21"/><polygon class="cls-5" points="187.2 22.21 189.51 21.6 188.88 23.9 187.2 22.21"/><polygon class="cls-5" points="198 15.01 200.31 14.4 199.68 16.7 198 15.01"/><polygon class="cls-5" points="190.8 15.01 193.11 14.4 192.48 16.7 190.8 15.01"/></g><g class="cls-63"><polygon class="cls-5" points="198 43.81 200.31 43.2 199.68 45.5 198 43.81"/><polygon class="cls-5" points="190.8 43.81 193.11 43.2 192.48 45.5 190.8 43.81"/><polygon class="cls-5" points="201.6 36.61 203.91 36 203.28 38.3 201.6 36.61"/><polygon class="cls-5" points="194.4 36.61 196.71 36 196.08 38.3 194.4 36.61"/><polygon class="cls-5" points="187.2 36.61 189.51 36 188.88 38.3 187.2 36.61"/><polygon class="cls-5" points="198 29.41 200.31 28.8 199.68 31.1 198 29.41"/><polygon class="cls-5" points="190.8 29.41 193.11 28.8 192.48 31.1 190.8 29.41"/></g><g class="cls-64"><polygon class="cls-5" points="198 58.21 200.31 57.6 199.68 59.9 198 58.21"/><polygon class="cls-5" points="190.8 58.21 193.11 57.6 192.48 59.9 190.8 58.21"/><polygon class="cls-5" points="201.6 51.01 203.91 50.4 203.28 52.7 201.6 51.01"/><polygon class="cls-5" points="194.4 51.01 196.71 50.4 196.08 52.7 194.4 51.01"/><polygon class="cls-5" points="187.2 51.01 189.51 50.4 188.88 52.7 187.2 51.01"/><polygon class="cls-5" points="198 43.81 200.31 43.2 199.68 45.5 198 43.81"/><polygon class="cls-5" points="190.8 43.81 193.11 43.2 192.48 45.5 190.8 43.81"/></g><g class="cls-65"><polygon class="cls-5" points="183.6 15.01 185.91 14.4 185.28 16.7 183.6 15.01"/><polygon class="cls-5" points="176.4 15.01 178.71 14.4 178.08 16.7 176.4 15.01"/><polygon class="cls-5" points="187.2 7.81 189.51 7.2 188.88 9.5 187.2 7.81"/><polygon class="cls-5" points="180 7.81 182.31 7.2 181.68 9.5 180 7.81"/><polygon class="cls-5" points="172.8 7.81 175.11 7.2 174.48 9.5 172.8 7.81"/><polygon class="cls-5" points="183.6 0.61 185.91 0 185.28 2.3 183.6 0.61"/><polygon class="cls-5" points="176.4 0.61 178.71 0 178.08 2.3 176.4 0.61"/></g><g class="cls-66"><polygon class="cls-5" points="183.6 29.41 185.91 28.8 185.28 31.1 183.6 29.41"/><polygon class="cls-5" points="176.4 29.41 178.71 28.8 178.08 31.1 176.4 29.41"/><polygon class="cls-5" points="187.2 22.21 189.51 21.6 188.88 23.9 187.2 22.21"/><polygon class="cls-5" points="180 22.21 182.31 21.6 181.68 23.9 180 22.21"/><polygon class="cls-5" points="172.8 22.21 175.11 21.6 174.48 23.9 172.8 22.21"/><polygon class="cls-5" points="183.6 15.01 185.91 14.4 185.28 16.7 183.6 15.01"/><polygon class="cls-5" points="176.4 15.01 178.71 14.4 178.08 16.7 176.4 15.01"/></g><g class="cls-67"><polygon class="cls-5" points="183.6 43.81 185.91 43.2 185.28 45.5 183.6 43.81"/><polygon class="cls-5" points="176.4 43.81 178.71 43.2 178.08 45.5 176.4 43.81"/><polygon class="cls-5" points="187.2 36.61 189.51 36 188.88 38.3 187.2 36.61"/><polygon class="cls-5" points="180 36.61 182.31 36 181.68 38.3 180 36.61"/><polygon class="cls-5" points="172.8 36.61 175.11 36 174.48 38.3 172.8 36.61"/><polygon class="cls-5" points="183.6 29.41 185.91 28.8 185.28 31.1 183.6 29.41"/><polygon class="cls-5" points="176.4 29.41 178.71 28.8 178.08 31.1 176.4 29.41"/></g><g class="cls-68"><polygon class="cls-5" points="183.6 58.21 185.91 57.6 185.28 59.9 183.6 58.21"/><polygon class="cls-5" points="176.4 58.21 178.71 57.6 178.08 59.9 176.4 58.21"/><polygon class="cls-5" points="187.2 51.01 189.51 50.4 188.88 52.7 187.2 51.01"/><polygon class="cls-5" points="180 51.01 182.31 50.4 181.68 52.7 180 51.01"/><polygon class="cls-5" points="172.8 51.01 175.11 50.4 174.48 52.7 172.8 51.01"/><polygon class="cls-5" points="183.6 43.81 185.91 43.2 185.28 45.5 183.6 43.81"/><polygon class="cls-5" points="176.4 43.81 178.71 43.2 178.08 45.5 176.4 43.81"/></g><g class="cls-69"><polygon class="cls-5" points="169.2 15.01 171.51 14.4 170.88 16.7 169.2 15.01"/><polygon class="cls-5" points="162 15.01 164.31 14.4 163.68 16.7 162 15.01"/><polygon class="cls-5" points="172.8 7.81 175.11 7.2 174.48 9.5 172.8 7.81"/><polygon class="cls-5" points="165.6 7.81 167.91 7.2 167.28 9.5 165.6 7.81"/><polygon class="cls-5" points="158.4 7.81 160.71 7.2 160.08 9.5 158.4 7.81"/><polygon class="cls-5" points="169.2 0.61 171.51 0 170.88 2.3 169.2 0.61"/><polygon class="cls-5" points="162 0.61 164.31 0 163.68 2.3 162 0.61"/></g><g class="cls-70"><polygon class="cls-5" points="169.2 29.41 171.51 28.8 170.88 31.1 169.2 29.41"/><polygon class="cls-5" points="162 29.41 164.31 28.8 163.68 31.1 162 29.41"/><polygon class="cls-5" points="172.8 22.21 175.11 21.6 174.48 23.9 172.8 22.21"/><polygon class="cls-5" points="165.6 22.21 167.91 21.6 167.28 23.9 165.6 22.21"/><polygon class="cls-5" points="158.4 22.21 160.71 21.6 160.08 23.9 158.4 22.21"/><polygon class="cls-5" points="169.2 15.01 171.51 14.4 170.88 16.7 169.2 15.01"/><polygon class="cls-5" points="162 15.01 164.31 14.4 163.68 16.7 162 15.01"/></g><g class="cls-71"><polygon class="cls-5" points="169.2 43.81 171.51 43.2 170.88 45.5 169.2 43.81"/><polygon class="cls-5" points="162 43.81 164.31 43.2 163.68 45.5 162 43.81"/><polygon class="cls-5" points="172.8 36.61 175.11 36 174.48 38.3 172.8 36.61"/><polygon class="cls-5" points="165.6 36.61 167.91 36 167.28 38.3 165.6 36.61"/><polygon class="cls-5" points="158.4 36.61 160.71 36 160.08 38.3 158.4 36.61"/><polygon class="cls-5" points="169.2 29.41 171.51 28.8 170.88 31.1 169.2 29.41"/><polygon class="cls-5" points="162 29.41 164.31 28.8 163.68 31.1 162 29.41"/></g><g class="cls-72"><polygon class="cls-5" points="169.2 58.21 171.51 57.6 170.88 59.9 169.2 58.21"/><polygon class="cls-5" points="162 58.21 164.31 57.6 163.68 59.9 162 58.21"/><polygon class="cls-5" points="172.8 51.01 175.11 50.4 174.48 52.7 172.8 51.01"/><polygon class="cls-5" points="165.6 51.01 167.91 50.4 167.28 52.7 165.6 51.01"/><polygon class="cls-5" points="158.4 51.01 160.71 50.4 160.08 52.7 158.4 51.01"/><polygon class="cls-5" points="169.2 43.81 171.51 43.2 170.88 45.5 169.2 43.81"/><polygon class="cls-5" points="162 43.81 164.31 43.2 163.68 45.5 162 43.81"/></g><g class="cls-73"><polygon class="cls-5" points="154.8 15.01 157.11 14.4 156.48 16.7 154.8 15.01"/><polygon class="cls-5" points="147.6 15.01 149.91 14.4 149.28 16.7 147.6 15.01"/><polygon class="cls-5" points="158.4 7.81 160.71 7.2 160.08 9.5 158.4 7.81"/><polygon class="cls-5" points="151.2 7.81 153.51 7.2 152.88 9.5 151.2 7.81"/><polygon class="cls-5" points="144 7.81 146.31 7.2 145.68 9.5 144 7.81"/><polygon class="cls-5" points="154.8 0.61 157.11 0 156.48 2.3 154.8 0.61"/><polygon class="cls-5" points="147.6 0.61 149.91 0 149.28 2.3 147.6 0.61"/></g><g class="cls-74"><polygon class="cls-5" points="154.8 29.41 157.11 28.8 156.48 31.1 154.8 29.41"/><polygon class="cls-5" points="147.6 29.41 149.91 28.8 149.28 31.1 147.6 29.41"/><polygon class="cls-5" points="158.4 22.21 160.71 21.6 160.08 23.9 158.4 22.21"/><polygon class="cls-5" points="151.2 22.21 153.51 21.6 152.88 23.9 151.2 22.21"/><polygon class="cls-5" points="144 22.21 146.31 21.6 145.68 23.9 144 22.21"/><polygon class="cls-5" points="154.8 15.01 157.11 14.4 156.48 16.7 154.8 15.01"/><polygon class="cls-5" points="147.6 15.01 149.91 14.4 149.28 16.7 147.6 15.01"/></g><g class="cls-75"><polygon class="cls-5" points="154.8 43.81 157.11 43.2 156.48 45.5 154.8 43.81"/><polygon class="cls-5" points="147.6 43.81 149.91 43.2 149.28 45.5 147.6 43.81"/><polygon class="cls-5" points="158.4 36.61 160.71 36 160.08 38.3 158.4 36.61"/><polygon class="cls-5" points="151.2 36.61 153.51 36 152.88 38.3 151.2 36.61"/><polygon class="cls-5" points="144 36.61 146.31 36 145.68 38.3 144 36.61"/><polygon class="cls-5" points="154.8 29.41 157.11 28.8 156.48 31.1 154.8 29.41"/><polygon class="cls-5" points="147.6 29.41 149.91 28.8 149.28 31.1 147.6 29.41"/></g><g class="cls-76"><polygon class="cls-5" points="154.8 58.21 157.11 57.6 156.48 59.9 154.8 58.21"/><polygon class="cls-5" points="147.6 58.21 149.91 57.6 149.28 59.9 147.6 58.21"/><polygon class="cls-5" points="158.4 51.01 160.71 50.4 160.08 52.7 158.4 51.01"/><polygon class="cls-5" points="151.2 51.01 153.51 50.4 152.88 52.7 151.2 51.01"/><polygon class="cls-5" points="144 51.01 146.31 50.4 145.68 52.7 144 51.01"/><polygon class="cls-5" points="154.8 43.81 157.11 43.2 156.48 45.5 154.8 43.81"/><polygon class="cls-5" points="147.6 43.81 149.91 43.2 149.28 45.5 147.6 43.81"/></g><g class="cls-77"><polygon class="cls-5" points="140.4 15.01 142.71 14.4 142.08 16.7 140.4 15.01"/><polygon class="cls-5" points="133.2 15.01 135.51 14.4 134.88 16.7 133.2 15.01"/><polygon class="cls-5" points="144 7.81 146.31 7.2 145.68 9.5 144 7.81"/><polygon class="cls-5" points="136.8 7.81 139.11 7.2 138.48 9.5 136.8 7.81"/><polygon class="cls-5" points="129.6 7.81 131.91 7.2 131.28 9.5 129.6 7.81"/><polygon class="cls-5" points="140.4 0.61 142.71 0 142.08 2.3 140.4 0.61"/><polygon class="cls-5" points="133.2 0.61 135.51 0 134.88 2.3 133.2 0.61"/></g><g class="cls-78"><polygon class="cls-5" points="140.4 29.41 142.71 28.8 142.08 31.1 140.4 29.41"/><polygon class="cls-5" points="133.2 29.41 135.51 28.8 134.88 31.1 133.2 29.41"/><polygon class="cls-5" points="144 22.21 146.31 21.6 145.68 23.9 144 22.21"/><polygon class="cls-5" points="136.8 22.21 139.11 21.6 138.48 23.9 136.8 22.21"/><polygon class="cls-5" points="129.6 22.21 131.91 21.6 131.28 23.9 129.6 22.21"/><polygon class="cls-5" points="140.4 15.01 142.71 14.4 142.08 16.7 140.4 15.01"/><polygon class="cls-5" points="133.2 15.01 135.51 14.4 134.88 16.7 133.2 15.01"/></g><g class="cls-79"><polygon class="cls-5" points="140.4 43.81 142.71 43.2 142.08 45.5 140.4 43.81"/><polygon class="cls-5" points="133.2 43.81 135.51 43.2 134.88 45.5 133.2 43.81"/><polygon class="cls-5" points="144 36.61 146.31 36 145.68 38.3 144 36.61"/><polygon class="cls-5" points="136.8 36.61 139.11 36 138.48 38.3 136.8 36.61"/><polygon class="cls-5" points="129.6 36.61 131.91 36 131.28 38.3 129.6 36.61"/><polygon class="cls-5" points="140.4 29.41 142.71 28.8 142.08 31.1 140.4 29.41"/><polygon class="cls-5" points="133.2 29.41 135.51 28.8 134.88 31.1 133.2 29.41"/></g><g class="cls-80"><polygon class="cls-5" points="140.4 58.21 142.71 57.6 142.08 59.9 140.4 58.21"/><polygon class="cls-5" points="133.2 58.21 135.51 57.6 134.88 59.9 133.2 58.21"/><polygon class="cls-5" points="144 51.01 146.31 50.4 145.68 52.7 144 51.01"/><polygon class="cls-5" points="136.8 51.01 139.11 50.4 138.48 52.7 136.8 51.01"/><polygon class="cls-5" points="129.6 51.01 131.91 50.4 131.28 52.7 129.6 51.01"/><polygon class="cls-5" points="140.4 43.81 142.71 43.2 142.08 45.5 140.4 43.81"/><polygon class="cls-5" points="133.2 43.81 135.51 43.2 134.88 45.5 133.2 43.81"/></g><g class="cls-81"><polygon class="cls-5" points="126 15.01 128.31 14.4 127.68 16.7 126 15.01"/><polygon class="cls-5" points="118.8 15.01 121.11 14.4 120.48 16.7 118.8 15.01"/><polygon class="cls-5" points="129.6 7.81 131.91 7.2 131.28 9.5 129.6 7.81"/><polygon class="cls-5" points="122.4 7.81 124.71 7.2 124.08 9.5 122.4 7.81"/><polygon class="cls-5" points="115.2 7.81 117.51 7.2 116.88 9.5 115.2 7.81"/><polygon class="cls-5" points="126 0.61 128.31 0 127.68 2.3 126 0.61"/><polygon class="cls-5" points="118.8 0.61 121.11 0 120.48 2.3 118.8 0.61"/></g><g class="cls-82"><polygon class="cls-5" points="126 29.41 128.31 28.8 127.68 31.1 126 29.41"/><polygon class="cls-5" points="118.8 29.41 121.11 28.8 120.48 31.1 118.8 29.41"/><polygon class="cls-5" points="129.6 22.21 131.91 21.6 131.28 23.9 129.6 22.21"/><polygon class="cls-5" points="122.4 22.21 124.71 21.6 124.08 23.9 122.4 22.21"/><polygon class="cls-5" points="115.2 22.21 117.51 21.6 116.88 23.9 115.2 22.21"/><polygon class="cls-5" points="126 15.01 128.31 14.4 127.68 16.7 126 15.01"/><polygon class="cls-5" points="118.8 15.01 121.11 14.4 120.48 16.7 118.8 15.01"/></g><g class="cls-83"><polygon class="cls-5" points="126 43.81 128.31 43.2 127.68 45.5 126 43.81"/><polygon class="cls-5" points="118.8 43.81 121.11 43.2 120.48 45.5 118.8 43.81"/><polygon class="cls-5" points="129.6 36.61 131.91 36 131.28 38.3 129.6 36.61"/><polygon class="cls-5" points="122.4 36.61 124.71 36 124.08 38.3 122.4 36.61"/><polygon class="cls-5" points="115.2 36.61 117.51 36 116.88 38.3 115.2 36.61"/><polygon class="cls-5" points="126 29.41 128.31 28.8 127.68 31.1 126 29.41"/><polygon class="cls-5" points="118.8 29.41 121.11 28.8 120.48 31.1 118.8 29.41"/></g><g class="cls-84"><polygon class="cls-5" points="126 58.21 128.31 57.6 127.68 59.9 126 58.21"/><polygon class="cls-5" points="118.8 58.21 121.11 57.6 120.48 59.9 118.8 58.21"/><polygon class="cls-5" points="129.6 51.01 131.91 50.4 131.28 52.7 129.6 51.01"/><polygon class="cls-5" points="122.4 51.01 124.71 50.4 124.08 52.7 122.4 51.01"/><polygon class="cls-5" points="115.2 51.01 117.51 50.4 116.88 52.7 115.2 51.01"/><polygon class="cls-5" points="126 43.81 128.31 43.2 127.68 45.5 126 43.81"/><polygon class="cls-5" points="118.8 43.81 121.11 43.2 120.48 45.5 118.8 43.81"/></g><g class="cls-85"><polygon class="cls-5" points="111.6 15.01 113.91 14.4 113.28 16.7 111.6 15.01"/><polygon class="cls-5" points="104.4 15.01 106.71 14.4 106.08 16.7 104.4 15.01"/><polygon class="cls-5" points="115.2 7.81 117.51 7.2 116.88 9.5 115.2 7.81"/><polygon class="cls-5" points="108 7.81 110.31 7.2 109.68 9.5 108 7.81"/><polygon class="cls-5" points="100.8 7.81 103.11 7.2 102.48 9.5 100.8 7.81"/><polygon class="cls-5" points="111.6 0.61 113.91 0 113.28 2.3 111.6 0.61"/><polygon class="cls-5" points="104.4 0.61 106.71 0 106.08 2.3 104.4 0.61"/></g><g class="cls-86"><polygon class="cls-5" points="111.6 29.41 113.91 28.8 113.28 31.1 111.6 29.41"/><polygon class="cls-5" points="104.4 29.41 106.71 28.8 106.08 31.1 104.4 29.41"/><polygon class="cls-5" points="115.2 22.21 117.51 21.6 116.88 23.9 115.2 22.21"/><polygon class="cls-5" points="108 22.21 110.31 21.6 109.68 23.9 108 22.21"/><polygon class="cls-5" points="100.8 22.21 103.11 21.6 102.48 23.9 100.8 22.21"/><polygon class="cls-5" points="111.6 15.01 113.91 14.4 113.28 16.7 111.6 15.01"/><polygon class="cls-5" points="104.4 15.01 106.71 14.4 106.08 16.7 104.4 15.01"/></g><g class="cls-87"><polygon class="cls-5" points="111.6 43.81 113.91 43.2 113.28 45.5 111.6 43.81"/><polygon class="cls-5" points="104.4 43.81 106.71 43.2 106.08 45.5 104.4 43.81"/><polygon class="cls-5" points="115.2 36.61 117.51 36 116.88 38.3 115.2 36.61"/><polygon class="cls-5" points="108 36.61 110.31 36 109.68 38.3 108 36.61"/><polygon class="cls-5" points="100.8 36.61 103.11 36 102.48 38.3 100.8 36.61"/><polygon class="cls-5" points="111.6 29.41 113.91 28.8 113.28 31.1 111.6 29.41"/><polygon class="cls-5" points="104.4 29.41 106.71 28.8 106.08 31.1 104.4 29.41"/></g><g class="cls-88"><polygon class="cls-5" points="111.6 58.21 113.91 57.6 113.28 59.9 111.6 58.21"/><polygon class="cls-5" points="104.4 58.21 106.71 57.6 106.08 59.9 104.4 58.21"/><polygon class="cls-5" points="115.2 51.01 117.51 50.4 116.88 52.7 115.2 51.01"/><polygon class="cls-5" points="108 51.01 110.31 50.4 109.68 52.7 108 51.01"/><polygon class="cls-5" points="100.8 51.01 103.11 50.4 102.48 52.7 100.8 51.01"/><polygon class="cls-5" points="111.6 43.81 113.91 43.2 113.28 45.5 111.6 43.81"/><polygon class="cls-5" points="104.4 43.81 106.71 43.2 106.08 45.5 104.4 43.81"/></g><g class="cls-89"><polygon class="cls-5" points="97.2 15.01 99.51 14.4 98.88 16.7 97.2 15.01"/><polygon class="cls-5" points="90 15.01 92.31 14.4 91.68 16.7 90 15.01"/><polygon class="cls-5" points="100.8 7.81 103.11 7.2 102.48 9.5 100.8 7.81"/><polygon class="cls-5" points="93.6 7.81 95.91 7.2 95.28 9.5 93.6 7.81"/><polygon class="cls-5" points="86.4 7.81 88.71 7.2 88.08 9.5 86.4 7.81"/><polygon class="cls-5" points="97.2 0.61 99.51 0 98.88 2.3 97.2 0.61"/><polygon class="cls-5" points="90 0.61 92.31 0 91.68 2.3 90 0.61"/></g><g class="cls-90"><polygon class="cls-5" points="97.2 29.41 99.51 28.8 98.88 31.1 97.2 29.41"/><polygon class="cls-5" points="90 29.41 92.31 28.8 91.68 31.1 90 29.41"/><polygon class="cls-5" points="100.8 22.21 103.11 21.6 102.48 23.9 100.8 22.21"/><polygon class="cls-5" points="93.6 22.21 95.91 21.6 95.28 23.9 93.6 22.21"/><polygon class="cls-5" points="86.4 22.21 88.71 21.6 88.08 23.9 86.4 22.21"/><polygon class="cls-5" points="97.2 15.01 99.51 14.4 98.88 16.7 97.2 15.01"/><polygon class="cls-5" points="90 15.01 92.31 14.4 91.68 16.7 90 15.01"/></g><g class="cls-91"><polygon class="cls-5" points="97.2 43.81 99.51 43.2 98.88 45.5 97.2 43.81"/><polygon class="cls-5" points="90 43.81 92.31 43.2 91.68 45.5 90 43.81"/><polygon class="cls-5" points="100.8 36.61 103.11 36 102.48 38.3 100.8 36.61"/><polygon class="cls-5" points="93.6 36.61 95.91 36 95.28 38.3 93.6 36.61"/><polygon class="cls-5" points="86.4 36.61 88.71 36 88.08 38.3 86.4 36.61"/><polygon class="cls-5" points="97.2 29.41 99.51 28.8 98.88 31.1 97.2 29.41"/><polygon class="cls-5" points="90 29.41 92.31 28.8 91.68 31.1 90 29.41"/></g><g class="cls-92"><polygon class="cls-5" points="97.2 58.21 99.51 57.6 98.88 59.9 97.2 58.21"/><polygon class="cls-5" points="90 58.21 92.31 57.6 91.68 59.9 90 58.21"/><polygon class="cls-5" points="100.8 51.01 103.11 50.4 102.48 52.7 100.8 51.01"/><polygon class="cls-5" points="93.6 51.01 95.91 50.4 95.28 52.7 93.6 51.01"/><polygon class="cls-5" points="86.4 51.01 88.71 50.4 88.08 52.7 86.4 51.01"/><polygon class="cls-5" points="97.2 43.81 99.51 43.2 98.88 45.5 97.2 43.81"/><polygon class="cls-5" points="90 43.81 92.31 43.2 91.68 45.5 90 43.81"/></g><g class="cls-93"><polygon class="cls-5" points="82.8 15.01 85.11 14.4 84.48 16.7 82.8 15.01"/><polygon class="cls-5" points="75.6 15.01 77.91 14.4 77.28 16.7 75.6 15.01"/><polygon class="cls-5" points="86.4 7.81 88.71 7.2 88.08 9.5 86.4 7.81"/><polygon class="cls-5" points="79.2 7.81 81.51 7.2 80.88 9.5 79.2 7.81"/><polygon class="cls-5" points="72 7.81 74.31 7.2 73.68 9.5 72 7.81"/><polygon class="cls-5" points="82.8 0.61 85.11 0 84.48 2.3 82.8 0.61"/><polygon class="cls-5" points="75.6 0.61 77.91 0 77.28 2.3 75.6 0.61"/></g><g class="cls-94"><polygon class="cls-5" points="82.8 29.41 85.11 28.8 84.48 31.1 82.8 29.41"/><polygon class="cls-5" points="75.6 29.41 77.91 28.8 77.28 31.1 75.6 29.41"/><polygon class="cls-5" points="86.4 22.21 88.71 21.6 88.08 23.9 86.4 22.21"/><polygon class="cls-5" points="79.2 22.21 81.51 21.6 80.88 23.9 79.2 22.21"/><polygon class="cls-5" points="72 22.21 74.31 21.6 73.68 23.9 72 22.21"/><polygon class="cls-5" points="82.8 15.01 85.11 14.4 84.48 16.7 82.8 15.01"/><polygon class="cls-5" points="75.6 15.01 77.91 14.4 77.28 16.7 75.6 15.01"/></g><g class="cls-95"><polygon class="cls-5" points="82.8 43.81 85.11 43.2 84.48 45.5 82.8 43.81"/><polygon class="cls-5" points="75.6 43.81 77.91 43.2 77.28 45.5 75.6 43.81"/><polygon class="cls-5" points="86.4 36.61 88.71 36 88.08 38.3 86.4 36.61"/><polygon class="cls-5" points="79.2 36.61 81.51 36 80.88 38.3 79.2 36.61"/><polygon class="cls-5" points="72 36.61 74.31 36 73.68 38.3 72 36.61"/><polygon class="cls-5" points="82.8 29.41 85.11 28.8 84.48 31.1 82.8 29.41"/><polygon class="cls-5" points="75.6 29.41 77.91 28.8 77.28 31.1 75.6 29.41"/></g><g class="cls-96"><polygon class="cls-5" points="82.8 58.21 85.11 57.6 84.48 59.9 82.8 58.21"/><polygon class="cls-5" points="75.6 58.21 77.91 57.6 77.28 59.9 75.6 58.21"/><polygon class="cls-5" points="86.4 51.01 88.71 50.4 88.08 52.7 86.4 51.01"/><polygon class="cls-5" points="79.2 51.01 81.51 50.4 80.88 52.7 79.2 51.01"/><polygon class="cls-5" points="72 51.01 74.31 50.4 73.68 52.7 72 51.01"/><polygon class="cls-5" points="82.8 43.81 85.11 43.2 84.48 45.5 82.8 43.81"/><polygon class="cls-5" points="75.6 43.81 77.91 43.2 77.28 45.5 75.6 43.81"/></g><g class="cls-97"><polygon class="cls-5" points="68.4 15.01 70.71 14.4 70.08 16.7 68.4 15.01"/><polygon class="cls-5" points="61.2 15.01 63.51 14.4 62.88 16.7 61.2 15.01"/><polygon class="cls-5" points="72 7.81 74.31 7.2 73.68 9.5 72 7.81"/><polygon class="cls-5" points="64.8 7.81 67.11 7.2 66.48 9.5 64.8 7.81"/><polygon class="cls-5" points="57.6 7.81 59.91 7.2 59.28 9.5 57.6 7.81"/><polygon class="cls-5" points="68.4 0.61 70.71 0 70.08 2.3 68.4 0.61"/><polygon class="cls-5" points="61.2 0.61 63.51 0 62.88 2.3 61.2 0.61"/></g><g class="cls-98"><polygon class="cls-5" points="68.4 29.41 70.71 28.8 70.08 31.1 68.4 29.41"/><polygon class="cls-5" points="61.2 29.41 63.51 28.8 62.88 31.1 61.2 29.41"/><polygon class="cls-5" points="72 22.21 74.31 21.6 73.68 23.9 72 22.21"/><polygon class="cls-5" points="64.8 22.21 67.11 21.6 66.48 23.9 64.8 22.21"/><polygon class="cls-5" points="57.6 22.21 59.91 21.6 59.28 23.9 57.6 22.21"/><polygon class="cls-5" points="68.4 15.01 70.71 14.4 70.08 16.7 68.4 15.01"/><polygon class="cls-5" points="61.2 15.01 63.51 14.4 62.88 16.7 61.2 15.01"/></g><g class="cls-99"><polygon class="cls-5" points="68.4 43.81 70.71 43.2 70.08 45.5 68.4 43.81"/><polygon class="cls-5" points="61.2 43.81 63.51 43.2 62.88 45.5 61.2 43.81"/><polygon class="cls-5" points="72 36.61 74.31 36 73.68 38.3 72 36.61"/><polygon class="cls-5" points="64.8 36.61 67.11 36 66.48 38.3 64.8 36.61"/><polygon class="cls-5" points="57.6 36.61 59.91 36 59.28 38.3 57.6 36.61"/><polygon class="cls-5" points="68.4 29.41 70.71 28.8 70.08 31.1 68.4 29.41"/><polygon class="cls-5" points="61.2 29.41 63.51 28.8 62.88 31.1 61.2 29.41"/></g><g class="cls-100"><polygon class="cls-5" points="68.4 58.21 70.71 57.6 70.08 59.9 68.4 58.21"/><polygon class="cls-5" points="61.2 58.21 63.51 57.6 62.88 59.9 61.2 58.21"/><polygon class="cls-5" points="72 51.01 74.31 50.4 73.68 52.7 72 51.01"/><polygon class="cls-5" points="64.8 51.01 67.11 50.4 66.48 52.7 64.8 51.01"/><polygon class="cls-5" points="57.6 51.01 59.91 50.4 59.28 52.7 57.6 51.01"/><polygon class="cls-5" points="68.4 43.81 70.71 43.2 70.08 45.5 68.4 43.81"/><polygon class="cls-5" points="61.2 43.81 63.51 43.2 62.88 45.5 61.2 43.81"/></g><g class="cls-101"><polygon class="cls-5" points="54 15.01 56.31 14.4 55.68 16.7 54 15.01"/><polygon class="cls-5" points="46.8 15.01 49.11 14.4 48.48 16.7 46.8 15.01"/><polygon class="cls-5" points="57.6 7.81 59.91 7.2 59.28 9.5 57.6 7.81"/><polygon class="cls-5" points="50.4 7.81 52.71 7.2 52.08 9.5 50.4 7.81"/><polygon class="cls-5" points="43.2 7.81 45.51 7.2 44.88 9.5 43.2 7.81"/><polygon class="cls-5" points="54 0.61 56.31 0 55.68 2.3 54 0.61"/><polygon class="cls-5" points="46.8 0.61 49.11 0 48.48 2.3 46.8 0.61"/></g><g class="cls-102"><polygon class="cls-5" points="54 29.41 56.31 28.8 55.68 31.1 54 29.41"/><polygon class="cls-5" points="46.8 29.41 49.11 28.8 48.48 31.1 46.8 29.41"/><polygon class="cls-5" points="57.6 22.21 59.91 21.6 59.28 23.9 57.6 22.21"/><polygon class="cls-5" points="50.4 22.21 52.71 21.6 52.08 23.9 50.4 22.21"/><polygon class="cls-5" points="43.2 22.21 45.51 21.6 44.88 23.9 43.2 22.21"/><polygon class="cls-5" points="54 15.01 56.31 14.4 55.68 16.7 54 15.01"/><polygon class="cls-5" points="46.8 15.01 49.11 14.4 48.48 16.7 46.8 15.01"/></g><g class="cls-103"><polygon class="cls-5" points="54 43.81 56.31 43.2 55.68 45.5 54 43.81"/><polygon class="cls-5" points="46.8 43.81 49.11 43.2 48.48 45.5 46.8 43.81"/><polygon class="cls-5" points="57.6 36.61 59.91 36 59.28 38.3 57.6 36.61"/><polygon class="cls-5" points="50.4 36.61 52.71 36 52.08 38.3 50.4 36.61"/><polygon class="cls-5" points="43.2 36.61 45.51 36 44.88 38.3 43.2 36.61"/><polygon class="cls-5" points="54 29.41 56.31 28.8 55.68 31.1 54 29.41"/><polygon class="cls-5" points="46.8 29.41 49.11 28.8 48.48 31.1 46.8 29.41"/></g><g class="cls-104"><polygon class="cls-5" points="54 58.21 56.31 57.6 55.68 59.9 54 58.21"/><polygon class="cls-5" points="46.8 58.21 49.11 57.6 48.48 59.9 46.8 58.21"/><polygon class="cls-5" points="57.6 51.01 59.91 50.4 59.28 52.7 57.6 51.01"/><polygon class="cls-5" points="50.4 51.01 52.71 50.4 52.08 52.7 50.4 51.01"/><polygon class="cls-5" points="43.2 51.01 45.51 50.4 44.88 52.7 43.2 51.01"/><polygon class="cls-5" points="54 43.81 56.31 43.2 55.68 45.5 54 43.81"/><polygon class="cls-5" points="46.8 43.81 49.11 43.2 48.48 45.5 46.8 43.81"/></g><g class="cls-105"><polygon class="cls-5" points="39.6 15.01 41.91 14.4 41.28 16.7 39.6 15.01"/><polygon class="cls-5" points="32.4 15.01 34.71 14.4 34.08 16.7 32.4 15.01"/><polygon class="cls-5" points="43.2 7.81 45.51 7.2 44.88 9.5 43.2 7.81"/><polygon class="cls-5" points="36 7.81 38.31 7.2 37.68 9.5 36 7.81"/><polygon class="cls-5" points="28.8 7.81 31.11 7.2 30.48 9.5 28.8 7.81"/><polygon class="cls-5" points="39.6 0.61 41.91 0 41.28 2.3 39.6 0.61"/><polygon class="cls-5" points="32.4 0.61 34.71 0 34.08 2.3 32.4 0.61"/></g><g class="cls-106"><polygon class="cls-5" points="39.6 29.41 41.91 28.8 41.28 31.1 39.6 29.41"/><polygon class="cls-5" points="32.4 29.41 34.71 28.8 34.08 31.1 32.4 29.41"/><polygon class="cls-5" points="43.2 22.21 45.51 21.6 44.88 23.9 43.2 22.21"/><polygon class="cls-5" points="36 22.21 38.31 21.6 37.68 23.9 36 22.21"/><polygon class="cls-5" points="28.8 22.21 31.11 21.6 30.48 23.9 28.8 22.21"/><polygon class="cls-5" points="39.6 15.01 41.91 14.4 41.28 16.7 39.6 15.01"/><polygon class="cls-5" points="32.4 15.01 34.71 14.4 34.08 16.7 32.4 15.01"/></g><g class="cls-107"><polygon class="cls-5" points="39.6 43.81 41.91 43.2 41.28 45.5 39.6 43.81"/><polygon class="cls-5" points="32.4 43.81 34.71 43.2 34.08 45.5 32.4 43.81"/><polygon class="cls-5" points="43.2 36.61 45.51 36 44.88 38.3 43.2 36.61"/><polygon class="cls-5" points="36 36.61 38.31 36 37.68 38.3 36 36.61"/><polygon class="cls-5" points="28.8 36.61 31.11 36 30.48 38.3 28.8 36.61"/><polygon class="cls-5" points="39.6 29.41 41.91 28.8 41.28 31.1 39.6 29.41"/><polygon class="cls-5" points="32.4 29.41 34.71 28.8 34.08 31.1 32.4 29.41"/></g><g class="cls-108"><polygon class="cls-5" points="39.6 58.21 41.91 57.6 41.28 59.9 39.6 58.21"/><polygon class="cls-5" points="32.4 58.21 34.71 57.6 34.08 59.9 32.4 58.21"/><polygon class="cls-5" points="43.2 51.01 45.51 50.4 44.88 52.7 43.2 51.01"/><polygon class="cls-5" points="36 51.01 38.31 50.4 37.68 52.7 36 51.01"/><polygon class="cls-5" points="28.8 51.01 31.11 50.4 30.48 52.7 28.8 51.01"/><polygon class="cls-5" points="39.6 43.81 41.91 43.2 41.28 45.5 39.6 43.81"/><polygon class="cls-5" points="32.4 43.81 34.71 43.2 34.08 45.5 32.4 43.81"/></g><g class="cls-109"><polygon class="cls-5" points="25.2 15.01 27.51 14.4 26.88 16.7 25.2 15.01"/><polygon class="cls-5" points="18 15.01 20.31 14.4 19.68 16.7 18 15.01"/><polygon class="cls-5" points="28.8 7.81 31.11 7.2 30.48 9.5 28.8 7.81"/><polygon class="cls-5" points="21.6 7.81 23.91 7.2 23.28 9.5 21.6 7.81"/><polygon class="cls-5" points="14.4 7.81 16.71 7.2 16.08 9.5 14.4 7.81"/><polygon class="cls-5" points="25.2 0.61 27.51 0 26.88 2.3 25.2 0.61"/><polygon class="cls-5" points="18 0.61 20.31 0 19.68 2.3 18 0.61"/></g><g class="cls-110"><polygon class="cls-5" points="25.2 29.41 27.51 28.8 26.88 31.1 25.2 29.41"/><polygon class="cls-5" points="18 29.41 20.31 28.8 19.68 31.1 18 29.41"/><polygon class="cls-5" points="28.8 22.21 31.11 21.6 30.48 23.9 28.8 22.21"/><polygon class="cls-5" points="21.6 22.21 23.91 21.6 23.28 23.9 21.6 22.21"/><polygon class="cls-5" points="14.4 22.21 16.71 21.6 16.08 23.9 14.4 22.21"/><polygon class="cls-5" points="25.2 15.01 27.51 14.4 26.88 16.7 25.2 15.01"/><polygon class="cls-5" points="18 15.01 20.31 14.4 19.68 16.7 18 15.01"/></g><g class="cls-111"><polygon class="cls-5" points="25.2 43.81 27.51 43.2 26.88 45.5 25.2 43.81"/><polygon class="cls-5" points="18 43.81 20.31 43.2 19.68 45.5 18 43.81"/><polygon class="cls-5" points="28.8 36.61 31.11 36 30.48 38.3 28.8 36.61"/><polygon class="cls-5" points="21.6 36.61 23.91 36 23.28 38.3 21.6 36.61"/><polygon class="cls-5" points="14.4 36.61 16.71 36 16.08 38.3 14.4 36.61"/><polygon class="cls-5" points="25.2 29.41 27.51 28.8 26.88 31.1 25.2 29.41"/><polygon class="cls-5" points="18 29.41 20.31 28.8 19.68 31.1 18 29.41"/></g><g class="cls-112"><polygon class="cls-5" points="25.2 58.21 27.51 57.6 26.88 59.9 25.2 58.21"/><polygon class="cls-5" points="18 58.21 20.31 57.6 19.68 59.9 18 58.21"/><polygon class="cls-5" points="28.8 51.01 31.11 50.4 30.48 52.7 28.8 51.01"/><polygon class="cls-5" points="21.6 51.01 23.91 50.4 23.28 52.7 21.6 51.01"/><polygon class="cls-5" points="14.4 51.01 16.71 50.4 16.08 52.7 14.4 51.01"/><polygon class="cls-5" points="25.2 43.81 27.51 43.2 26.88 45.5 25.2 43.81"/><polygon class="cls-5" points="18 43.81 20.31 43.2 19.68 45.5 18 43.81"/></g><g class="cls-113"><polygon class="cls-5" points="10.8 15.01 13.11 14.4 12.48 16.7 10.8 15.01"/><polygon class="cls-5" points="3.6 15.01 5.91 14.4 5.28 16.7 3.6 15.01"/><polygon class="cls-5" points="14.4 7.81 16.71 7.2 16.08 9.5 14.4 7.81"/><polygon class="cls-5" points="7.2 7.81 9.51 7.2 8.88 9.5 7.2 7.81"/><polygon class="cls-5" points="0 7.81 2.31 7.2 1.68 9.5 0 7.81"/><polygon class="cls-5" points="10.8 0.61 13.11 0 12.48 2.3 10.8 0.61"/><polygon class="cls-5" points="3.6 0.61 5.91 0 5.28 2.3 3.6 0.61"/></g><g class="cls-114"><polygon class="cls-5" points="10.8 29.41 13.11 28.8 12.48 31.1 10.8 29.41"/><polygon class="cls-5" points="3.6 29.41 5.91 28.8 5.28 31.1 3.6 29.41"/><polygon class="cls-5" points="14.4 22.21 16.71 21.6 16.08 23.9 14.4 22.21"/><polygon class="cls-5" points="7.2 22.21 9.51 21.6 8.88 23.9 7.2 22.21"/><polygon class="cls-5" points="0 22.21 2.31 21.6 1.68 23.9 0 22.21"/><polygon class="cls-5" points="10.8 15.01 13.11 14.4 12.48 16.7 10.8 15.01"/><polygon class="cls-5" points="3.6 15.01 5.91 14.4 5.28 16.7 3.6 15.01"/></g><g class="cls-115"><polygon class="cls-5" points="10.8 43.81 13.11 43.2 12.48 45.5 10.8 43.81"/><polygon class="cls-5" points="3.6 43.81 5.91 43.2 5.28 45.5 3.6 43.81"/><polygon class="cls-5" points="14.4 36.61 16.71 36 16.08 38.3 14.4 36.61"/><polygon class="cls-5" points="7.2 36.61 9.51 36 8.88 38.3 7.2 36.61"/><polygon class="cls-5" points="0 36.61 2.31 36 1.68 38.3 0 36.61"/><polygon class="cls-5" points="10.8 29.41 13.11 28.8 12.48 31.1 10.8 29.41"/><polygon class="cls-5" points="3.6 29.41 5.91 28.8 5.28 31.1 3.6 29.41"/></g><g class="cls-116"><polygon class="cls-5" points="10.8 58.21 13.11 57.6 12.48 59.9 10.8 58.21"/><polygon class="cls-5" points="3.6 58.21 5.91 57.6 5.28 59.9 3.6 58.21"/><polygon class="cls-5" points="14.4 51.01 16.71 50.4 16.08 52.7 14.4 51.01"/><polygon class="cls-5" points="7.2 51.01 9.51 50.4 8.88 52.7 7.2 51.01"/><polygon class="cls-5" points="0 51.01 2.31 50.4 1.68 52.7 0 51.01"/><polygon class="cls-5" points="10.8 43.81 13.11 43.2 12.48 45.5 10.8 43.81"/><polygon class="cls-5" points="3.6 43.81 5.91 43.2 5.28 45.5 3.6 43.81"/></g></g></g></g></svg>