<?xml version="1.0" encoding="iso-8859-1"?>
<!-- Generator: Adobe Illustrator 19.2.1, SVG Export Plug-In . SVG Version: 6.00 Build 0)  -->
<svg version="1.1" xmlns="http://www.w3.org/2000/svg" xmlns:xlink="http://www.w3.org/1999/xlink" x="0px" y="0px"
	 viewBox="0 0 30.078 26.895" style="enable-background:new 0 0 30.078 26.895;" xml:space="preserve">
<g id="motion6">
	<g>
		<path style="fill:#D83C92;" d="M0.223,4.286C0.286,4.184,0.361,4.088,0.45,3.999c0.269-0.268,6.661-6.531,12.709-2.835
			c5.731,3.503,3.991,10.087,3.42,12.25l-0.093,0.358c-0.037,0.149-0.087,0.33-0.144,0.538c-0.881,3.186-1.326,6.721,2.054,8.787
			c4.146,2.534,8.989-2.503,9.037-2.555c0.581-0.614,1.55-0.641,2.165-0.06c0.614,0.581,0.645,1.551,0.06,2.165
			c-0.267,0.282-6.62,6.876-12.859,3.063c-5.807-3.549-4.002-10.073-3.409-12.217c0.049-0.177,0.092-0.331,0.123-0.457l0.105-0.406
			c0.805-3.045,1.298-6.804-2.055-8.854C7.571,1.339,2.659,6.122,2.61,6.171C2.01,6.764,1.04,6.761,0.445,6.162
			C-0.061,5.651-0.136,4.874,0.223,4.286z"/>
	</g>
</g>
<g id="Layer_1">
</g>
</svg>
