<?xml version="1.0" encoding="iso-8859-1"?>
<!-- Generator: Adobe Illustrator 19.2.1, SVG Export Plug-In . SVG Version: 6.00 Build 0)  -->
<svg version="1.1" xmlns="http://www.w3.org/2000/svg" xmlns:xlink="http://www.w3.org/1999/xlink" x="0px" y="0px"
	 viewBox="0 0 83 64" style="enable-background:new 0 0 83 64;" xml:space="preserve">
<g id="others7">
	<rect x="20.5" y="5" style="fill:none;" width="6" height="6"/>
	<rect x="30.5" y="5" style="fill:none;" width="6" height="6"/>
	<rect x="10.5" y="5" style="fill:none;" width="6" height="6"/>
	<rect x="10.5" y="53" style="fill:none;" width="6" height="6"/>
	<rect x="60.5" y="5" style="fill:none;" width="6" height="6"/>
	<rect x="40.5" y="5" style="fill:none;" width="6" height="6"/>
	<rect x="70.5" y="5" style="fill:none;" width="6" height="6"/>
	<rect x="50.5" y="5" style="fill:none;" width="6" height="6"/>
	<rect x="5" y="14" style="fill:none;" width="34" height="34"/>
	<rect x="70.5" y="53" style="fill:none;" width="6" height="6"/>
	<rect x="43" y="14" style="fill:none;" width="35" height="34"/>
	<rect x="60.5" y="53" style="fill:none;" width="6" height="6"/>
	<rect x="20.5" y="53" style="fill:none;" width="6" height="6"/>
	<rect x="50.5" y="53" style="fill:none;" width="6" height="6"/>
	<rect x="30.5" y="53" style="fill:none;" width="6" height="6"/>
	<rect x="40.5" y="53" style="fill:none;" width="6" height="6"/>
	<path style="fill:#D83C92;" d="M80.5,11V5H83V0H0v5h6.5v6H0v1v41h6.5v6H0v1.667V64h83v-5h-2.5v-6H83V11H80.5z M70.5,5h6v6h-6V5z
		 M60.5,5h6v6h-6V5z M50.5,5h6v6h-6V5z M40.5,5h6v6h-6V5z M30.5,5h6v6h-6V5z M20.5,5h6v6h-6V5z M10.5,5h6v6h-6V5z M5,15h33v33H5V15z
		 M16.5,59h-6v-6h6V59z M26.5,59h-6v-6h6V59z M36.5,59h-6v-6h6V59z M46.5,59h-6v-6h6V59z M56.5,59h-6v-6h6V59z M66.5,59h-6v-6h6V59z
		 M76.5,59h-6v-6h6V59z M78,48H44V15h34V48z"/>
</g>
<g id="Layer_1">
</g>
</svg>
