<?xml version="1.0" encoding="iso-8859-1"?>
<!-- Generator: Adobe Illustrator 19.2.1, SVG Export Plug-In . SVG Version: 6.00 Build 0)  -->
<svg version="1.1" xmlns="http://www.w3.org/2000/svg" xmlns:xlink="http://www.w3.org/1999/xlink" x="0px" y="0px"
	 viewBox="0 0 46.509 79.145" style="enable-background:new 0 0 46.509 79.145;" xml:space="preserve">
<g id="others2">
	<g>
		<g>
			<path style="fill:#59C1A5;" d="M33.894,79.116L3.999,75.713c-2.47-0.281-4.251-2.52-3.969-4.989L7.626,3.999
				c0.281-2.47,2.52-4.251,4.989-3.969l29.896,3.404c2.47,0.281,4.251,2.52,3.969,4.989l-7.596,66.725
				C38.602,77.617,36.364,79.397,33.894,79.116z M12.439,1.574C10.821,1.39,9.355,2.556,9.17,4.174L1.574,70.899
				c-0.184,1.618,0.982,3.085,2.601,3.269l29.896,3.404c1.618,0.184,3.085-0.982,3.269-2.601l7.596-66.725
				c0.184-1.618-0.982-3.085-2.601-3.269L12.439,1.574z"/>
		</g>
		<g>
			
				<rect x="7.192" y="12.614" transform="matrix(0.9936 0.1131 -0.1131 0.9936 4.6234 -2.3636)" style="fill:#59C1A5;" width="31.895" height="53.891"/>
		</g>
		<g>
			<path style="fill:#59C1A5;" d="M29.264,10.204l-6.178-0.703c-0.426-0.049-0.764-0.158-0.716-0.585
				c0.049-0.426,0.402-0.457,0.829-0.409l6.178,0.703c0.426,0.049,0.764,0.158,0.716,0.585S29.69,10.253,29.264,10.204z"/>
		</g>
		<g>
			
				<ellipse transform="matrix(0.1131 -0.9936 0.9936 0.1131 17.5427 32.5848)" style="fill:#59C1A5;" cx="27.024" cy="6.466" rx="0.735" ry="0.735"/>
		</g>
		<g>
			
				<ellipse transform="matrix(0.1131 -0.9936 0.9936 0.1131 -53.8879 82.9221)" style="fill:#59C1A5;" cx="19.505" cy="71.647" rx="3.274" ry="3.274"/>
		</g>
	</g>
</g>
<g id="Layer_1">
</g>
</svg>
