<?xml version="1.0" encoding="iso-8859-1"?>
<!-- Generator: Adobe Illustrator 19.2.1, SVG Export Plug-In . SVG Version: 6.00 Build 0)  -->
<svg version="1.1" xmlns="http://www.w3.org/2000/svg" xmlns:xlink="http://www.w3.org/1999/xlink" x="0px" y="0px"
	 viewBox="0 0 63.315 84.299" style="enable-background:new 0 0 63.315 84.299;" xml:space="preserve">
<g id="others1">
	<g>
		<circle style="fill:#EEBC1C;" cx="35.967" cy="27.348" r="27.348"/>
		<path style="fill:none;stroke:#D83C92;stroke-width:3;stroke-miterlimit:10;" d="M56.258,31.792c0-19.561-16.576-27.3-27.376-27.3
			S1.5,12.231,1.5,31.792c0,19.561,16.125,26.659,16.125,26.659c0,18.14-1.583,24.348,11.257,24.348
			c12.96,0,11.246-6.209,11.246-24.348C40.127,58.451,56.258,51.353,56.258,31.792z"/>
		<path style="fill:none;stroke:#59C1A5;stroke-width:3;stroke-linecap:round;stroke-miterlimit:10;" d="M28.653,31.208
			c-3.057,0-0.903,9.703,1.762,9.703s8.495-9.853,4.175-9.853s-0.013,32.088-0.013,32.088H22.955c0,0,4.307-31.908-0.013-31.908
			s1.51,9.688,4.175,9.688s4.82-9.71,1.762-9.71"/>
		
			<line style="fill:none;stroke:#59C1A5;stroke-width:3;stroke-linecap:round;stroke-linejoin:round;stroke-miterlimit:10;" x1="22.099" y1="69.146" x2="36.099" y2="69.146"/>
		
			<line style="fill:none;stroke:#59C1A5;stroke-width:3;stroke-linecap:round;stroke-linejoin:round;stroke-miterlimit:10;" x1="22.099" y1="73.146" x2="36.099" y2="73.146"/>
	</g>
</g>
<g id="Layer_1">
</g>
</svg>
