<?xml version="1.0" encoding="iso-8859-1"?>
<!-- Generator: Adobe Illustrator 19.2.1, SVG Export Plug-In . SVG Version: 6.00 Build 0)  -->
<svg version="1.1" xmlns="http://www.w3.org/2000/svg" xmlns:xlink="http://www.w3.org/1999/xlink" x="0px" y="0px"
	 viewBox="0 0 51.713 63.163" style="enable-background:new 0 0 51.713 63.163;" xml:space="preserve">
<g id="print4">
	<g>
		<g>
			<path style="fill:#EEBC1C;" d="M1.66,63.163c-0.373,0-0.746-0.142-1.03-0.427c-0.569-0.569-0.569-1.492,0-2.061l9.214-9.214
				l-8.605-8.605c-0.569-0.569-0.569-1.492,0-2.061l8.25-8.25l-9.062-9.062c-0.569-0.569-0.569-1.492,0-2.061l9.518-9.518
				L0.528,2.487c-0.569-0.569-0.569-1.492,0-2.061c0.568-0.569,1.492-0.569,2.06,0l10.447,10.447c0.569,0.569,0.569,1.492,0,2.061
				l-9.518,9.518l9.062,9.062c0.569,0.569,0.569,1.492,0,2.061l-8.25,8.25l8.605,8.605c0.569,0.569,0.569,1.492,0,2.061L2.69,62.736
				C2.406,63.021,2.033,63.163,1.66,63.163z"/>
		</g>
		<g>
			<path style="fill:#EEBC1C;" d="M14.41,63.163c-0.373,0-0.746-0.142-1.03-0.427c-0.569-0.569-0.569-1.492,0-2.061l9.214-9.214
				l-8.605-8.605c-0.569-0.569-0.569-1.492,0-2.061l8.25-8.25l-9.062-9.062c-0.569-0.569-0.569-1.492,0-2.061l9.518-9.518
				l-9.417-9.417c-0.569-0.569-0.569-1.492,0-2.061c0.568-0.569,1.492-0.569,2.06,0l10.447,10.447c0.569,0.569,0.569,1.492,0,2.061
				l-9.518,9.518l9.062,9.062c0.569,0.569,0.569,1.492,0,2.061l-8.25,8.25l8.605,8.605c0.569,0.569,0.569,1.492,0,2.061
				L15.44,62.736C15.156,63.021,14.783,63.163,14.41,63.163z"/>
		</g>
		<g>
			<path style="fill:#EEBC1C;" d="M27.16,63.163c-0.373,0-0.746-0.142-1.03-0.427c-0.569-0.569-0.569-1.492,0-2.061l9.214-9.214
				l-8.605-8.605c-0.569-0.569-0.569-1.492,0-2.061l8.25-8.25l-9.062-9.062c-0.569-0.569-0.569-1.492,0-2.061l9.518-9.518
				l-9.417-9.417c-0.569-0.569-0.569-1.492,0-2.061c0.568-0.569,1.492-0.569,2.06,0l10.447,10.447c0.569,0.569,0.569,1.492,0,2.061
				l-9.518,9.518l9.062,9.062c0.569,0.569,0.569,1.492,0,2.061l-8.25,8.25l8.605,8.605c0.569,0.569,0.569,1.492,0,2.061
				L28.19,62.736C27.906,63.021,27.532,63.163,27.16,63.163z"/>
		</g>
		<g>
			<path style="fill:#EEBC1C;" d="M39.91,63.163c-0.373,0-0.746-0.142-1.03-0.427c-0.569-0.569-0.569-1.492,0-2.061l9.214-9.214
				l-8.605-8.605c-0.569-0.569-0.569-1.492,0-2.061l8.25-8.25l-9.062-9.062c-0.569-0.569-0.569-1.492,0-2.061l9.518-9.518
				l-9.417-9.417c-0.569-0.569-0.569-1.492,0-2.061c0.568-0.569,1.492-0.569,2.06,0l10.447,10.447c0.569,0.569,0.569,1.492,0,2.061
				l-9.518,9.518l9.062,9.062c0.569,0.569,0.569,1.492,0,2.061l-8.25,8.25l8.605,8.605c0.569,0.569,0.569,1.492,0,2.061
				L40.94,62.736C40.656,63.021,40.282,63.163,39.91,63.163z"/>
		</g>
	</g>
</g>
<g id="Layer_1">
</g>
</svg>
