<?xml version="1.0" encoding="iso-8859-1"?>
<!-- Generator: Adobe Illustrator 19.2.0, SVG Export Plug-In . SVG Version: 6.00 Build 0)  -->
<svg version="1.1" xmlns="http://www.w3.org/2000/svg" xmlns:xlink="http://www.w3.org/1999/xlink" x="0px" y="0px"
	 viewBox="0 0 112.793 132.471" style="enable-background:new 0 0 112.793 132.471;" xml:space="preserve">
<g id="Layer_4">
	<g>
		<g>
			<path style="fill:#404041;" d="M106.49,132.471H66.237c-1.819,0-3.291-1.472-3.291-3.291V88.924c0-1.331,0.8-2.533,2.031-3.041
				c1.234-0.511,2.649-0.228,3.587,0.714l40.253,40.256c0.942,0.942,1.225,2.356,0.714,3.587
				C109.023,131.67,107.82,132.471,106.49,132.471z M69.528,125.888h29.015L69.528,96.869V125.888z"/>
		</g>
		<g>
			<path style="fill:#404041;" d="M66.237,132.471H3.291c-1.819,0-3.291-1.472-3.291-3.291V3.291C0,1.472,1.472,0,3.291,0h62.946
				c1.819,0,3.291,1.472,3.291,3.291v125.888C69.528,130.999,68.056,132.471,66.237,132.471z M6.583,125.888h56.363V6.583H6.583
				V125.888z"/>
		</g>
		<g>
			<path style="fill:#404041;" d="M66.237,93.115c-25.673,0-46.559-20.886-46.559-46.559S40.564,0,66.237,0
				s46.556,20.883,46.556,46.556S91.91,93.115,66.237,93.115z M66.237,6.583c-22.044,0-39.976,17.933-39.976,39.973
				c0,22.044,17.933,39.976,39.976,39.976c22.04,0,39.973-17.933,39.973-39.976C106.21,24.515,88.277,6.583,66.237,6.583z"/>
		</g>
	</g>
</g>
<g id="Layer_1">
</g>
</svg>
