<?xml version="1.0" encoding="iso-8859-1"?>
<!-- Generator: Adobe Illustrator 19.2.1, SVG Export Plug-In . SVG Version: 6.00 Build 0)  -->
<svg version="1.1" xmlns="http://www.w3.org/2000/svg" xmlns:xlink="http://www.w3.org/1999/xlink" x="0px" y="0px"
	 viewBox="0 0 134.908 214.812" style="enable-background:new 0 0 134.908 214.812;" xml:space="preserve">
<g id="others5">
	<g>
		<path style="fill:none;stroke:#EEBC1C;stroke-width:3;stroke-linecap:round;stroke-linejoin:round;stroke-miterlimit:10;" d="
			M45.308,70.83"/>
		<path style="fill:none;stroke:#EEBC1C;stroke-width:3;stroke-miterlimit:10;" d="M1.599,73.554c0,0,29-19.653,49-0.041v58.696
			c0,0-24-15.96-49,0V73.554z"/>
		<path style="fill:#EEBC1C;" d="M102.536,73.358c0,0-30.24-20.4-51.12-0.042v60.927c0,0,25.92-16.567,51.12,0V73.358z"/>
		
			<polyline style="fill:none;stroke:#EEBC1C;stroke-width:3;stroke-linecap:round;stroke-linejoin:round;stroke-miterlimit:10;" points="
			10.055,87.415 15.504,81.966 21.007,87.468 26.272,82.204 31.113,87.045 36.139,82.018 41.483,87.362 		"/>
		
			<polyline style="fill:none;stroke:#EEBC1C;stroke-width:3;stroke-linecap:round;stroke-linejoin:round;stroke-miterlimit:10;" points="
			10.055,98.655 15.504,93.206 21.007,98.708 26.272,93.444 31.113,98.285 36.139,93.259 41.483,98.602 		"/>
		
			<polyline style="fill:none;stroke:#EEBC1C;stroke-width:3;stroke-linecap:round;stroke-linejoin:round;stroke-miterlimit:10;" points="
			10.055,110.175 15.504,104.726 21.007,110.228 26.272,104.964 31.113,109.805 36.139,104.779 41.483,110.122 		"/>
		<g>
			<defs>
				<path id="SVGID_1_" d="M105.099,77.085c0,0-31-20.4-52-0.042v60.927c0,0,27-16.567,52,0V77.085z"/>
			</defs>
			<clipPath id="SVGID_2_">
				<use xlink:href="#SVGID_1_"  style="overflow:visible;"/>
			</clipPath>
			
				<line style="clip-path:url(#SVGID_2_);fill:none;stroke:#EEBC1C;stroke-width:3;stroke-miterlimit:10;" x1="111.09" y1="1.061" x2="31.867" y2="80.284"/>
			
				<line style="clip-path:url(#SVGID_2_);fill:#59C1A5;stroke:#EEBC1C;stroke-width:3;stroke-miterlimit:10;" x1="111.09" y1="7.754" x2="31.867" y2="86.977"/>
			
				<line style="clip-path:url(#SVGID_2_);fill:#59C1A5;stroke:#EEBC1C;stroke-width:3;stroke-miterlimit:10;" x1="111.09" y1="7.754" x2="31.867" y2="86.977"/>
			
				<line style="clip-path:url(#SVGID_2_);fill:#59C1A5;stroke:#EEBC1C;stroke-width:3;stroke-miterlimit:10;" x1="111.09" y1="14.448" x2="31.867" y2="93.671"/>
			
				<line style="clip-path:url(#SVGID_2_);fill:#59C1A5;stroke:#EEBC1C;stroke-width:3;stroke-miterlimit:10;" x1="111.09" y1="21.141" x2="31.867" y2="100.364"/>
			
				<line style="clip-path:url(#SVGID_2_);fill:#59C1A5;stroke:#EEBC1C;stroke-width:3;stroke-miterlimit:10;" x1="111.09" y1="21.141" x2="31.867" y2="100.364"/>
			
				<line style="clip-path:url(#SVGID_2_);fill:#59C1A5;stroke:#EEBC1C;stroke-width:3;stroke-miterlimit:10;" x1="111.09" y1="27.835" x2="29.856" y2="109.069"/>
			
				<line style="clip-path:url(#SVGID_2_);fill:#59C1A5;stroke:#EEBC1C;stroke-width:3;stroke-miterlimit:10;" x1="111.09" y1="34.528" x2="31.867" y2="113.751"/>
			
				<line style="clip-path:url(#SVGID_2_);fill:#59C1A5;stroke:#EEBC1C;stroke-width:3;stroke-miterlimit:10;" x1="111.09" y1="34.528" x2="28.989" y2="116.629"/>
			
				<line style="clip-path:url(#SVGID_2_);fill:#59C1A5;stroke:#EEBC1C;stroke-width:3;stroke-miterlimit:10;" x1="111.09" y1="41.222" x2="31.867" y2="120.445"/>
			
				<line style="clip-path:url(#SVGID_2_);fill:#59C1A5;stroke:#EEBC1C;stroke-width:3;stroke-miterlimit:10;" x1="111.09" y1="47.915" x2="31.867" y2="127.138"/>
			
				<line style="clip-path:url(#SVGID_2_);fill:#59C1A5;stroke:#EEBC1C;stroke-width:3;stroke-miterlimit:10;" x1="111.09" y1="47.915" x2="31.867" y2="127.138"/>
			
				<line style="clip-path:url(#SVGID_2_);fill:#59C1A5;stroke:#EEBC1C;stroke-width:3;stroke-miterlimit:10;" x1="111.09" y1="54.609" x2="31.867" y2="133.832"/>
			
				<line style="clip-path:url(#SVGID_2_);fill:#59C1A5;stroke:#EEBC1C;stroke-width:3;stroke-miterlimit:10;" x1="111.09" y1="61.302" x2="31.867" y2="140.525"/>
			
				<line style="clip-path:url(#SVGID_2_);fill:#59C1A5;stroke:#EEBC1C;stroke-width:3;stroke-miterlimit:10;" x1="111.09" y1="61.302" x2="31.867" y2="140.525"/>
			
				<line style="clip-path:url(#SVGID_2_);fill:#59C1A5;stroke:#EEBC1C;stroke-width:3;stroke-miterlimit:10;" x1="111.09" y1="67.996" x2="31.867" y2="147.219"/>
			
				<line style="clip-path:url(#SVGID_2_);fill:#59C1A5;stroke:#EEBC1C;stroke-width:3;stroke-miterlimit:10;" x1="111.09" y1="74.689" x2="31.867" y2="153.912"/>
			
				<line style="clip-path:url(#SVGID_2_);fill:#59C1A5;stroke:#EEBC1C;stroke-width:3;stroke-miterlimit:10;" x1="115.95" y1="69.829" x2="31.867" y2="153.912"/>
			
				<line style="clip-path:url(#SVGID_2_);fill:none;stroke:#EEBC1C;stroke-width:3;stroke-miterlimit:10;" x1="122.242" y1="69.829" x2="31.867" y2="160.204"/>
			
				<line style="clip-path:url(#SVGID_2_);fill:#59C1A5;stroke:#EEBC1C;stroke-width:3;stroke-miterlimit:10;" x1="111.09" y1="87.674" x2="31.867" y2="166.897"/>
			
				<line style="clip-path:url(#SVGID_2_);fill:#59C1A5;stroke:#EEBC1C;stroke-width:3;stroke-miterlimit:10;" x1="123.372" y1="75.393" x2="31.867" y2="166.897"/>
			
				<line style="clip-path:url(#SVGID_2_);fill:#59C1A5;stroke:#EEBC1C;stroke-width:3;stroke-miterlimit:10;" x1="125.174" y1="80.284" x2="31.867" y2="173.591"/>
			
				<line style="clip-path:url(#SVGID_2_);fill:#59C1A5;stroke:#EEBC1C;stroke-width:3;stroke-miterlimit:10;" x1="111.09" y1="101.061" x2="31.867" y2="180.284"/>
			
				<line style="clip-path:url(#SVGID_2_);fill:#59C1A5;stroke:#EEBC1C;stroke-width:3;stroke-miterlimit:10;" x1="125.174" y1="86.977" x2="31.867" y2="180.284"/>
			
				<line style="clip-path:url(#SVGID_2_);fill:#59C1A5;stroke:#EEBC1C;stroke-width:3;stroke-miterlimit:10;" x1="127.596" y1="91.249" x2="31.867" y2="186.978"/>
			
				<line style="clip-path:url(#SVGID_2_);fill:#59C1A5;stroke:#EEBC1C;stroke-width:3;stroke-miterlimit:10;" x1="111.09" y1="114.448" x2="31.867" y2="193.671"/>
			
				<line style="clip-path:url(#SVGID_2_);fill:#59C1A5;stroke:#EEBC1C;stroke-width:3;stroke-miterlimit:10;" x1="127.89" y1="97.648" x2="31.867" y2="193.671"/>
			
				<line style="clip-path:url(#SVGID_2_);fill:#59C1A5;stroke:#EEBC1C;stroke-width:3;stroke-miterlimit:10;" x1="131.17" y1="101.061" x2="31.867" y2="200.365"/>
			
				<line style="clip-path:url(#SVGID_2_);fill:#59C1A5;stroke:#EEBC1C;stroke-width:3;stroke-miterlimit:10;" x1="111.09" y1="127.835" x2="31.867" y2="207.058"/>
			
				<line style="clip-path:url(#SVGID_2_);fill:#59C1A5;stroke:#EEBC1C;stroke-width:3;stroke-miterlimit:10;" x1="131.318" y1="107.607" x2="31.867" y2="207.058"/>
			
				<line style="clip-path:url(#SVGID_2_);fill:#59C1A5;stroke:#EEBC1C;stroke-width:3;stroke-miterlimit:10;" x1="133.748" y1="111.871" x2="31.867" y2="213.752"/>
		</g>
	</g>
</g>
<g id="Layer_1">
</g>
</svg>
