<?xml version="1.0" encoding="iso-8859-1"?>
<!-- Generator: Adobe Illustrator 19.2.1, SVG Export Plug-In . SVG Version: 6.00 Build 0)  -->
<svg version="1.1" xmlns="http://www.w3.org/2000/svg" xmlns:xlink="http://www.w3.org/1999/xlink" x="0px" y="0px"
	 viewBox="0 0 92.124 68.726" style="enable-background:new 0 0 92.124 68.726;" xml:space="preserve">
<g id="motion4.2">
	<path style="fill:none;stroke:#59C1A5;stroke-width:3;stroke-linecap:round;stroke-miterlimit:10;" d="M88.751,40.392
		c6.14-10.704-4.784-15.958-4.784-15.958c-1.723-10.341-11.689-9.744-11.689-9.744C70.768,3,59.382,6.335,59.382,6.335
		c-5.494-8.963-15.958-2.718-15.958-2.718c-9.246-5.212-13.687,4.156-13.687,4.156C16.984,4.771,17.622,15.73,17.622,15.73
		c-3.863-1.795-8.425,0.841-8.425,0.841c-6.499,4.896-2.373,11.274-2.373,11.274C1.419,29.558,1.5,35.297,1.5,35.297
		c0.253,7.148,8.222,9.196,8.222,9.196L40.157,49.3l0,0c0,0,2.088,11.781,14.264,10.94c0,0,2.463,6.904,12.642,4.959
		c0,0,8.291,5.192,13.393-1.043c3.302,0.865,8.802-2.935,3.876-8.174C84.332,55.982,93.692,52.354,88.751,40.392z"/>
</g>
<g id="Layer_1">
</g>
</svg>
