<?xml version="1.0" encoding="iso-8859-1"?>
<!-- Generator: Adobe Illustrator 19.2.1, SVG Export Plug-In . SVG Version: 6.00 Build 0)  -->
<svg version="1.1" xmlns="http://www.w3.org/2000/svg" xmlns:xlink="http://www.w3.org/1999/xlink" x="0px" y="0px"
	 viewBox="0 0 37.24 30.616" style="enable-background:new 0 0 37.24 30.616;" xml:space="preserve">
<g id="small8">
	<g>
		<path style="fill:#59C1A5;" d="M2.535,29.999c-0.101-0.11-0.191-0.234-0.266-0.371c-0.23-0.416-5.559-10.251,0.963-16.248
			c6.18-5.683,13.494-1.328,15.897,0.103l0.399,0.235c0.166,0.095,0.366,0.218,0.597,0.359c3.525,2.155,7.62,3.905,11.266,0.553
			c4.472-4.111,0.083-11.663,0.038-11.739c-0.538-0.91-0.237-2.084,0.673-2.623c0.91-0.538,2.086-0.241,2.622,0.673
			c0.248,0.418,5.988,10.32-0.741,16.507c-6.262,5.758-13.482,1.346-15.854-0.104c-0.196-0.12-0.366-0.224-0.506-0.305l-0.452-0.265
			c-3.383-2.015-7.73-3.9-11.347-0.574C1.52,20.156,5.579,27.703,5.621,27.779c0.507,0.926,0.17,2.09-0.755,2.599
			C4.078,30.811,3.118,30.633,2.535,29.999z"/>
	</g>
</g>
<g id="Layer_1">
</g>
</svg>
