<?xml version="1.0" encoding="iso-8859-1"?>
<!-- Generator: Adobe Illustrator 19.2.0, SVG Export Plug-In . SVG Version: 6.00 Build 0)  -->
<svg version="1.1" id="Layer_1" xmlns="http://www.w3.org/2000/svg" xmlns:xlink="http://www.w3.org/1999/xlink" x="0px" y="0px"
	 viewBox="0 0 602.503 38.604" style="enable-background:new 0 0 602.503 38.604;" xml:space="preserve">
<g id="Layer_2">
	<g style="enable-background:new    ;">
		<path style="fill:#404041;" d="M12.485,8.142h8.855c2.136,0.035,4.726,0.07,7.315,1.925c4.131,2.906,4.761,7.876,4.761,10.642
			c0,4.235-1.435,8.541-5.075,10.642c-2.45,1.435-5.041,1.47-7.946,1.505h-7.91V8.142z M17.105,12.342v16.348h1.96
			c3.501,0,4.726-0.176,5.776-0.561c1.785-0.7,3.675-2.24,3.675-7.386c0-2.311-0.35-6.091-3.78-7.736
			c-1.33-0.595-2.065-0.63-5.181-0.665H17.105z"/>
		<path style="fill:#404041;" d="M70.979,28.024h-9.275l-1.436,4.83h-4.936l8.331-24.713h5.251l8.436,24.713h-4.936L70.979,28.024z
			 M69.754,23.999l-3.396-11.377l-3.431,11.377H69.754z"/>
		<path style="fill:#404041;" d="M114.589,28.024h-9.276l-1.435,4.83h-4.936l8.33-24.713h5.251l8.436,24.713h-4.936L114.589,28.024z
			 M113.363,23.999l-3.396-11.377l-3.43,11.377H113.363z"/>
		<path style="fill:#404041;" d="M145.177,8.142h8.331c1.365,0,2.801,0,4.235,0.385c2.416,0.665,5.811,2.835,5.811,7.841
			c0,3.291-1.54,6.826-5.95,7.806c-1.365,0.314-2.66,0.314-4.165,0.314h-3.605v8.366h-4.656V8.142z M149.833,12.097v8.576h3.325
			c0.979,0,1.82,0,2.625-0.21c2.87-0.7,3.046-3.326,3.046-4.201c0-1.82-0.806-2.765-1.226-3.15c-1.155-0.98-2.766-1.015-4.271-1.015
			H149.833z"/>
		<path style="fill:#404041;" d="M214.725,8.142l-5.426,24.713h-5.391l-3.465-17.187l-3.57,17.187h-5.391l-5.146-24.713h4.726
			l3.36,18.832l3.851-18.832h4.305l3.921,18.832l3.465-18.832H214.725z"/>
		<path style="fill:#404041;" d="M248.856,33.484c-3.115,0-5.986-0.875-8.506-3.78c-2.45-2.835-3.291-6.056-3.291-9.171
			c0-7.561,5.11-13.022,11.866-13.022c6.126,0,11.866,4.551,11.831,12.987C260.723,27.569,256.452,33.484,248.856,33.484z
			 M248.891,11.747c-4.235,0-7.07,3.431-7.07,8.577c0,5.565,3.08,8.891,7.176,8.891c3.08,0,7.036-2.24,7.141-8.19
			C256.242,16.192,253.757,11.747,248.891,11.747z"/>
		<path style="fill:#404041;" d="M286.2,8.142h7.875c3.291,0.035,5.496,0.035,7.666,1.785c1.54,1.26,2.73,3.22,2.73,6.09
			c0,4.726-3.465,6.372-4.865,6.792l5.495,10.046h-5.285l-4.9-9.171h-4.131v9.171H286.2V8.142z M290.785,12.132v7.736h1.61
			c1.575,0,2.17-0.035,3.045-0.07c1.016-0.035,4.341-0.21,4.341-3.816c0-0.524-0.035-2.345-1.96-3.325
			c-0.98-0.49-2.171-0.525-4.9-0.525H290.785z"/>
		<path style="fill:#404041;" d="M343.076,17.453l8.646,15.402h-5.285l-6.581-11.621l-4.025,4.62v7.001h-4.586V8.142h4.586v11.341
			l9.906-11.341h5.46L343.076,17.453z"/>
		<path style="fill:#404041;" d="M378.214,25.504c0.595,0.91,2.45,3.745,7.666,3.745c0.875,0,1.785-0.07,2.66-0.42
			c1.785-0.735,2.101-1.995,2.101-2.835c0-1.575-1.086-2.136-1.855-2.45c-0.561-0.211-0.63-0.245-2.87-0.771l-2.976-0.63
			c-1.575-0.385-2.346-0.561-3.115-0.875c-1.12-0.455-4.166-1.961-4.166-6.056c0-4.691,3.956-7.701,9.767-7.701
			c5.32,0,8.19,2.625,9.94,5.006l-3.78,2.835c-0.84-1.225-2.45-3.675-6.405-3.675c-2.485,0-4.655,1.12-4.655,3.01
			c0,2.101,2.31,2.521,4.55,2.94l2.556,0.56c3.325,0.7,8.016,2.066,8.016,7.352c0,5.67-5.25,7.945-10.501,7.945
			c-1.365,0-2.905-0.14-4.41-0.56c-1.646-0.49-4.551-1.681-6.406-4.69L378.214,25.504z"/>
		<path style="fill:#404041;" d="M466.415,29.214v3.641h-16.066v-3.396c3.011-2.065,5.985-4.9,7.386-6.336
			c1.295-1.33,3.466-3.605,3.466-6.721c0-1.819-0.91-3.535-3.115-3.535c-3.466,0-3.36,3.78-3.326,5.461l-4.41-0.385
			c0-3.326,1.085-5.461,1.995-6.546c1.295-1.505,3.535-2.556,6.091-2.556c4.48,0,7.596,2.905,7.596,7.386
			c0,3.816-2.345,6.546-4.936,8.892c-0.525,0.454-3.675,3.115-5.006,4.095H466.415z"/>
		<path style="fill:#404041;" d="M502.43,32.435c-1.12,0.525-2.345,0.735-3.57,0.735c-4.061,0-6.056-2.416-6.86-3.676
			c-1.471-2.346-1.716-5.601-1.716-8.331c0-2.416,0.176-6.336,2.101-8.996c1.295-1.785,3.641-3.326,6.686-3.326
			c2.101,0,4.69,0.7,6.511,3.431s1.96,6.336,1.96,8.646C507.54,25.153,506.945,30.369,502.43,32.435z M499.034,12.692
			c-3.78,0-4.2,4.48-4.2,8.542c0,3.851,0.35,8.051,4.131,8.051c3.325,0,4.061-3.256,4.061-8.226
			C503.025,15.667,501.975,12.692,499.034,12.692z"/>
		<path style="fill:#404041;" d="M543.134,9.227v23.628h-4.306V19.342c0-2.24,0-2.905-1.925-2.905h-3.851v-2.695h0.455
			c2.205-0.035,5.181-0.07,6.126-4.516H543.134z"/>
		<path style="fill:#404041;" d="M585.029,15.352c-0.07-2.135-1.75-2.66-2.766-2.66c-3.43,0-4.025,4.096-4.2,7.316
			c1.226-1.541,2.87-2.38,4.971-2.38c3.36,0,6.756,2.346,6.756,7.351c0,4.865-3.396,8.191-7.946,8.191
			c-3.43,0-5.495-1.82-6.511-3.36c-1.47-2.24-1.819-5.461-1.819-8.086c0-3.292,0.454-12.882,8.785-12.882
			c3.081,0,5.181,1.47,6.23,3.116c0.7,1.12,0.876,2.135,0.98,2.765L585.029,15.352z M582.02,21.583
			c-2.416,0-3.536,1.855-3.536,3.815c0,0.735,0.176,3.851,3.431,3.851c2.66,0,3.466-2.065,3.466-3.815
			C585.38,23.123,584.119,21.583,582.02,21.583z"/>
	</g>
</g>
<g id="Layer_1_1_">
</g>
</svg>
