<?xml version="1.0" encoding="utf-8"?>
<!-- Generator: Adobe Illustrator 19.2.1, SVG Export Plug-In . SVG Version: 6.00 Build 0)  -->
<svg version="1.1" id="Layer_1" xmlns="http://www.w3.org/2000/svg" xmlns:xlink="http://www.w3.org/1999/xlink" x="0px" y="0px"
	 viewBox="0 0 143.9 98.6" style="enable-background:new 0 0 143.9 98.6;" xml:space="preserve">
<style type="text/css">
	.st0{fill:#A5A3A5;}
</style>
<g>
	<g>
		<path class="st0" d="M88.5,81.8c-18.7,0-34.2-14.9-34.8-33.8c-0.6-19.2,14.6-35.3,33.8-35.9c9.3-0.3,18.2,3.1,24.9,9.5
			c6.8,6.4,10.7,15,10.9,24.3c0.6,19.2-14.6,35.3-33.8,35.9l0,0C89.2,81.7,88.8,81.8,88.5,81.8z M89.5,81.6L89.5,81.6L89.5,81.6z
			 M88.5,14.6c-0.3,0-0.7,0-1,0c-17.8,0.5-31.8,15.4-31.3,33.2c0.5,17.8,15.5,31.8,33.2,31.3c17.8-0.5,31.8-15.4,31.3-33.2
			c-0.3-8.6-3.9-16.6-10.1-22.5C104.6,17.7,96.8,14.6,88.5,14.6z"/>
	</g>
	
		<rect x="23.5" y="4.2" transform="matrix(-1.617539e-05 -1 1 -1.617539e-05 19.3551 80.6432)" class="st0" width="52.9" height="52.9"/>
	<g>
		<path class="st0" d="M38.7,93.2L34,32.6l54.9,26.2L38.7,93.2z M41.7,43.9l2.9,37l30.6-21L41.7,43.9z"/>
	</g>
</g>
</svg>
