<?xml version="1.0" encoding="utf-8"?>
<!-- Generator: Adobe Illustrator 19.2.0, SVG Export Plug-In . SVG Version: 6.00 Build 0)  -->
<svg version="1.1" xmlns="http://www.w3.org/2000/svg" xmlns:xlink="http://www.w3.org/1999/xlink" x="0px" y="0px"
	 viewBox="0 0 123.5 91" style="enable-background:new 0 0 123.5 91;" xml:space="preserve">
<style type="text/css">
	.st0{fill:none;stroke:#EFBC1B;stroke-width:8;stroke-linecap:round;stroke-linejoin:round;stroke-miterlimit:10;}
	.st1{fill:url(#);}
	.st2{clip-path:url(#SVGID_2_);}
	.st3{fill:none;stroke:#EFBC1B;stroke-width:6.1737;stroke-linecap:round;stroke-linejoin:round;stroke-miterlimit:10;}
	.st4{fill:none;stroke:#EFBC1B;stroke-width:3;stroke-linecap:round;stroke-linejoin:round;stroke-miterlimit:10;}
	.st5{fill:#EFBC1B;}
	.st6{clip-path:url(#SVGID_4_);}
	.st7{fill:#EDBB1C;}
	.st8{fill:none;stroke:#EFBC1B;stroke-width:3;stroke-miterlimit:10;}
	.st9{fill:#EFBC1B;stroke:#EFBC1B;stroke-width:3;stroke-miterlimit:10;}
	.st10{fill:none;stroke:#EFBC1B;stroke-width:2.25;stroke-miterlimit:10;}
	.st11{fill:none;stroke:#EFBC1B;stroke-width:2.25;stroke-linecap:round;stroke-linejoin:round;stroke-miterlimit:10;}
	.st12{fill:none;stroke:#EFBC1B;stroke-width:6;stroke-linecap:round;stroke-linejoin:round;stroke-miterlimit:10;}
	.st13{fill:none;stroke:#EFBC1B;stroke-width:2;stroke-linecap:round;stroke-linejoin:round;stroke-miterlimit:10;}
	.st14{clip-path:url(#SVGID_6_);fill:none;stroke:#EFBC1B;stroke-width:2.25;stroke-miterlimit:10;}
	.st15{clip-path:url(#SVGID_6_);fill:#57C1A5;stroke:#EFBC1B;stroke-width:2.25;stroke-miterlimit:10;}
	.st16{fill:#D83A91;}
	.st17{fill:none;stroke:#D83A91;stroke-width:3;stroke-linecap:round;stroke-linejoin:round;stroke-miterlimit:10;}
	.st18{clip-path:url(#SVGID_8_);}
	.st19{fill:none;stroke:#D83A91;stroke-width:6.1737;stroke-linecap:round;stroke-linejoin:round;stroke-miterlimit:10;}
	.st20{fill:none;stroke:#D83A91;stroke-width:8;stroke-linecap:round;stroke-linejoin:round;stroke-miterlimit:10;}
	.st21{fill:#D73B90;}
	.st22{fill:none;stroke:#D83A91;stroke-width:8;stroke-miterlimit:10;}
	.st23{fill:none;stroke:#D83A91;stroke-width:3;stroke-miterlimit:10;}
	.st24{fill:none;stroke:#D83A91;stroke-width:2.25;stroke-miterlimit:10;}
	.st25{fill:none;stroke:#D83A91;stroke-width:6;stroke-linecap:round;stroke-linejoin:round;stroke-miterlimit:10;}
	.st26{fill:none;stroke:#57C1A5;stroke-width:8;stroke-linecap:round;stroke-linejoin:round;stroke-miterlimit:10;}
	.st27{fill:#57C1A5;}
	.st28{clip-path:url(#SVGID_10_);}
	.st29{fill:none;stroke:#57C1A5;stroke-width:6.1737;stroke-linecap:round;stroke-linejoin:round;stroke-miterlimit:10;}
	.st30{fill:#58C0A4;}
	.st31{fill:none;stroke:#57C1A5;stroke-width:3;stroke-miterlimit:10;}
	.st32{fill:none;stroke:#57C1A5;stroke-width:8;stroke-miterlimit:10;}
	.st33{fill:none;stroke:#57C1A5;stroke-width:2.25;stroke-linecap:round;stroke-linejoin:round;stroke-miterlimit:10;}
	.st34{clip-path:url(#SVGID_12_);fill:none;stroke:#57C1A5;stroke-width:2.25;stroke-miterlimit:10;}
	.st35{clip-path:url(#SVGID_12_);fill:#57C1A5;stroke:#57C1A5;stroke-width:2.25;stroke-miterlimit:10;}
	.st36{fill:none;stroke:#57C1A5;stroke-width:2;stroke-linecap:round;stroke-linejoin:round;stroke-miterlimit:10;}
	.st37{fill:#404041;}
	.st38{fill:#5D5D5D;}
	.st39{display:none;}
</style>
<g id="print">
</g>
<g id="motion">
</g>
<g id="interaction">
	<g>
		<g>
			<path class="st27" d="M119.8,87H8.3c-0.7,0-1.3-0.6-1.3-1.3V21.3c0-0.7,0.6-1.3,1.3-1.3h111.5c0.7,0,1.3,0.6,1.3,1.3v64.5
				C121,86.4,120.5,87,119.8,87z M9.6,84.5h109v-62H9.6V84.5z"/>
		</g>
		<g>
			<path class="st27" d="M120.1,15H8c-0.5,0-0.9-0.4-0.9-0.9V5.7c0-0.5,0.4-0.9,0.9-0.9h112.1c0.5,0,0.9,0.4,0.9,0.9v8.5
				C121,14.6,120.6,15,120.1,15z"/>
		</g>
		<g>
			<circle class="st27" cx="7.1" cy="9.9" r="3.1"/>
		</g>
		<g>
			<circle class="st27" cx="14.9" cy="9.9" r="3.1"/>
		</g>
		<g>
			<circle class="st27" cx="23" cy="9.9" r="3.1"/>
		</g>
		<g>
			<path class="st27" d="M55,41.2H2.3c-0.7,0-1.3-0.6-1.3-1.3s0.6-1.3,1.3-1.3H55c0.7,0,1.3,0.6,1.3,1.3S55.7,41.2,55,41.2z"/>
		</g>
		<g>
			<path class="st27" d="M55,47.5H2.3C1.6,47.5,1,47,1,46.3S1.6,45,2.3,45H55c0.7,0,1.3,0.6,1.3,1.3S55.7,47.5,55,47.5z"/>
		</g>
		<g>
			<path class="st27" d="M55,53.8H2.3c-0.7,0-1.3-0.6-1.3-1.3c0-0.7,0.6-1.3,1.3-1.3H55c0.7,0,1.3,0.6,1.3,1.3
				C56.3,53.3,55.7,53.8,55,53.8z"/>
		</g>
		<g>
			<path class="st27" d="M55,60.2H2.3C1.6,60.2,1,59.7,1,59c0-0.7,0.6-1.3,1.3-1.3H55c0.7,0,1.3,0.6,1.3,1.3
				C56.3,59.7,55.7,60.2,55,60.2z"/>
		</g>
		<g>
			<circle class="st27" cx="87" cy="63.2" r="11.7"/>
			<path class="st27" d="M87,76.1c-7.1,0-12.9-5.8-12.9-12.9S79.9,50.3,87,50.3s12.9,5.8,12.9,12.9S94.1,76.1,87,76.1z M87,52.8
				c-5.8,0-10.4,4.7-10.4,10.4S81.2,73.6,87,73.6c5.8,0,10.4-4.7,10.4-10.4S92.7,52.8,87,52.8z"/>
		</g>
		<g>
			<path class="st27" d="M113.6,64.2H87c-0.4,0-0.9-0.2-1.1-0.6c-0.2-0.4-0.2-0.9,0-1.3l13.3-23c0.2-0.4,0.6-0.6,1.1-0.6
				c0.4,0,0.9,0.2,1.1,0.6l13.3,23c0.2,0.4,0.2,0.9,0,1.3C114.4,63.9,114,64.2,113.6,64.2z M89.2,61.7h22.3l-11.1-19.3L89.2,61.7z"
				/>
		</g>
	</g>
</g>
<g id="logo">
</g>
<g id="border">
</g>
<g id="grid" class="st39">
</g>
</svg>
