<svg id="Layer_1" data-name="Layer 1" xmlns="http://www.w3.org/2000/svg" viewBox="0 0 181.28 42.62"><defs><style>.cls-1{fill:#404041;}</style></defs><title>logo</title><path class="cls-1" d="M101.47,35.83a1,1,0,0,1-.71-0.29A20.12,20.12,0,1,1,129.23,7.08a1,1,0,0,1,0,1.41l-27,27A1,1,0,0,1,101.47,35.83ZM115,3.19a18.12,18.12,0,0,0-13.5,30.21L127.09,7.81A18,18,0,0,0,115,3.19Z"/><path class="cls-1" d="M115,41.43a20,20,0,0,1-14.23-5.89,1,1,0,0,1,0-1.41L114.29,20.6a1,1,0,0,1,1.41,0l13.52,13.52a1,1,0,0,1,0,1.41A20,20,0,0,1,115,41.43Zm-12.09-6.62a18.13,18.13,0,0,0,24.18,0L115,22.72Z"/><path class="cls-1" d="M161.16,32.85A11.54,11.54,0,1,1,172.7,21.31,11.56,11.56,0,0,1,161.16,32.85Zm0-21.08a9.54,9.54,0,1,0,9.54,9.54A9.55,9.55,0,0,0,161.16,11.77Z"/><path class="cls-1" d="M21.31,42.62A21.31,21.31,0,0,1,21.31,0a1,1,0,0,1,1,1V41.62A1,1,0,0,1,21.31,42.62ZM20.31,2a19.31,19.31,0,0,0,0,38.57V2Z"/><path class="cls-1" d="M21.42,42.62a1,1,0,0,1-1-1V22.1a1,1,0,0,1,1-1H40.94a1,1,0,0,1,1,1A20.55,20.55,0,0,1,21.42,42.62Zm1-19.52v17.5a18.55,18.55,0,0,0,17.5-17.5H22.42Z"/><path class="cls-1" d="M83.18,41.43H71a1,1,0,0,1-1-1V28.2a1,1,0,0,1,1.71-.71L83.89,39.73A1,1,0,0,1,83.18,41.43ZM72,39.43h8.82L72,30.62v8.82Z"/><path class="cls-1" d="M71,41.43H51.83a1,1,0,0,1-1-1V2.19a1,1,0,0,1,1-1H71a1,1,0,0,1,1,1V40.43A1,1,0,0,1,71,41.43Zm-18.12-2H70V3.19H52.83V39.43Z"/><path class="cls-1" d="M71,29.48A14.15,14.15,0,1,1,85.1,15.33,14.16,14.16,0,0,1,71,29.48ZM71,3.19A12.15,12.15,0,1,0,83.1,15.33,12.16,12.16,0,0,0,71,3.19Z"/><path class="cls-1" d="M161.16,41.43a1,1,0,0,1-1-1V2.19a1,1,0,0,1,1-1A20.12,20.12,0,1,1,161.16,41.43Zm1-38.22V39.41A18.12,18.12,0,0,0,162.16,3.21Z"/><path class="cls-1" d="M161.16,41.43H142a1,1,0,0,1-1-1V2.19a1,1,0,0,1,1-1h19.12a1,1,0,0,1,1,1V40.43A1,1,0,0,1,161.16,41.43Zm-18.12-2h17.12V3.19H143V39.43Z"/><path class="cls-1" d="M34.42,15.11a1,1,0,0,1-.71-0.29L20.6,1.71A1,1,0,0,1,21.31,0H34.42a1,1,0,0,1,1,1V14.11A1,1,0,0,1,34.42,15.11ZM23.72,2l9.7,9.7V2h-9.7Z"/></svg>