<?xml version="1.0" encoding="utf-8"?>
<!-- Generator: Adobe Illustrator 19.2.0, SVG Export Plug-In . SVG Version: 6.00 Build 0)  -->
<svg version="1.1" xmlns="http://www.w3.org/2000/svg" xmlns:xlink="http://www.w3.org/1999/xlink" x="0px" y="0px"
	 viewBox="0 0 117.8 91" style="enable-background:new 0 0 117.8 91;" xml:space="preserve">
<style type="text/css">
	.st0{fill:none;stroke:#EFBC1B;stroke-width:8;stroke-linecap:round;stroke-linejoin:round;stroke-miterlimit:10;}
	.st1{fill:url(#);}
	.st2{clip-path:url(#SVGID_2_);}
	.st3{fill:none;stroke:#EFBC1B;stroke-width:6.1737;stroke-linecap:round;stroke-linejoin:round;stroke-miterlimit:10;}
	.st4{fill:none;stroke:#EFBC1B;stroke-width:3;stroke-linecap:round;stroke-linejoin:round;stroke-miterlimit:10;}
	.st5{fill:#EFBC1B;}
	.st6{clip-path:url(#SVGID_4_);}
	.st7{fill:#EDBB1C;}
	.st8{fill:none;stroke:#EFBC1B;stroke-width:3;stroke-miterlimit:10;}
	.st9{fill:#EFBC1B;stroke:#EFBC1B;stroke-width:3;stroke-miterlimit:10;}
	.st10{fill:none;stroke:#EFBC1B;stroke-width:2.25;stroke-miterlimit:10;}
	.st11{fill:none;stroke:#EFBC1B;stroke-width:2.25;stroke-linecap:round;stroke-linejoin:round;stroke-miterlimit:10;}
	.st12{fill:none;stroke:#EFBC1B;stroke-width:6;stroke-linecap:round;stroke-linejoin:round;stroke-miterlimit:10;}
	.st13{fill:none;stroke:#EFBC1B;stroke-width:2;stroke-linecap:round;stroke-linejoin:round;stroke-miterlimit:10;}
	.st14{clip-path:url(#SVGID_6_);fill:none;stroke:#EFBC1B;stroke-width:2.25;stroke-miterlimit:10;}
	.st15{clip-path:url(#SVGID_6_);fill:#57C1A5;stroke:#EFBC1B;stroke-width:2.25;stroke-miterlimit:10;}
	.st16{fill:#D83A91;}
	.st17{fill:none;stroke:#D83A91;stroke-width:3;stroke-linecap:round;stroke-linejoin:round;stroke-miterlimit:10;}
	.st18{clip-path:url(#SVGID_8_);}
	.st19{fill:none;stroke:#D83A91;stroke-width:6.1737;stroke-linecap:round;stroke-linejoin:round;stroke-miterlimit:10;}
	.st20{fill:none;stroke:#D83A91;stroke-width:8;stroke-linecap:round;stroke-linejoin:round;stroke-miterlimit:10;}
	.st21{fill:#D73B90;}
	.st22{fill:none;stroke:#D83A91;stroke-width:8;stroke-miterlimit:10;}
	.st23{fill:none;stroke:#D83A91;stroke-width:3;stroke-miterlimit:10;}
	.st24{fill:none;stroke:#D83A91;stroke-width:2.25;stroke-miterlimit:10;}
	.st25{fill:none;stroke:#D83A91;stroke-width:6;stroke-linecap:round;stroke-linejoin:round;stroke-miterlimit:10;}
	.st26{fill:none;stroke:#57C1A5;stroke-width:8;stroke-linecap:round;stroke-linejoin:round;stroke-miterlimit:10;}
	.st27{fill:#57C1A5;}
	.st28{clip-path:url(#SVGID_10_);}
	.st29{fill:none;stroke:#57C1A5;stroke-width:6.1737;stroke-linecap:round;stroke-linejoin:round;stroke-miterlimit:10;}
	.st30{fill:#58C0A4;}
	.st31{fill:none;stroke:#57C1A5;stroke-width:3;stroke-miterlimit:10;}
	.st32{fill:none;stroke:#57C1A5;stroke-width:8;stroke-miterlimit:10;}
	.st33{fill:none;stroke:#57C1A5;stroke-width:2.25;stroke-linecap:round;stroke-linejoin:round;stroke-miterlimit:10;}
	.st34{clip-path:url(#SVGID_12_);fill:none;stroke:#57C1A5;stroke-width:2.25;stroke-miterlimit:10;}
	.st35{clip-path:url(#SVGID_12_);fill:#57C1A5;stroke:#57C1A5;stroke-width:2.25;stroke-miterlimit:10;}
	.st36{fill:none;stroke:#57C1A5;stroke-width:2;stroke-linecap:round;stroke-linejoin:round;stroke-miterlimit:10;}
	.st37{fill:#404041;}
	.st38{fill:#5D5D5D;}
	.st39{display:none;}
</style>
<g id="print">
</g>
<g id="motion">
	<g>
		<g>
			<path class="st16" d="M76.4,72.2c-0.3,0-0.6-0.1-0.9-0.4c-0.5-0.5-0.5-1.3,0-1.8l4.1-4.1c0.5-0.5,1.3-0.5,1.8,0
				c0.5,0.5,0.5,1.3,0,1.8l-4.1,4.1C77,72.1,76.7,72.2,76.4,72.2z"/>
		</g>
		<g>
			<path class="st16" d="M60,72.2c-0.3,0-0.6-0.1-0.9-0.4c-0.5-0.5-0.5-1.3,0-1.8l4.1-4.1c0.5-0.5,1.3-0.5,1.8,0
				c0.5,0.5,0.5,1.3,0,1.8l-4.1,4.1C60.6,72.1,60.3,72.2,60,72.2z"/>
		</g>
		<g>
			<path class="st16" d="M43.6,72.2c-0.3,0-0.6-0.1-0.9-0.4c-0.5-0.5-0.5-1.3,0-1.8l4.1-4.1c0.5-0.5,1.3-0.5,1.8,0
				c0.5,0.5,0.5,1.3,0,1.8l-4.1,4.1C44.3,72.1,43.9,72.2,43.6,72.2z"/>
		</g>
		<g>
			<path class="st16" d="M81.9,72.2c-0.3,0-0.6-0.1-0.9-0.4c-0.5-0.5-0.5-1.3,0-1.8l4.1-4.1c0.5-0.5,1.3-0.5,1.8,0s0.5,1.3,0,1.8
				l-4.1,4.1C82.5,72.1,82.2,72.2,81.9,72.2z"/>
		</g>
		<g>
			<path class="st16" d="M65.5,72.2c-0.3,0-0.6-0.1-0.9-0.4c-0.5-0.5-0.5-1.3,0-1.8l4.1-4.1c0.5-0.5,1.3-0.5,1.8,0
				c0.5,0.5,0.5,1.3,0,1.8l-4.1,4.1C66.1,72.1,65.8,72.2,65.5,72.2z"/>
		</g>
		<g>
			<path class="st16" d="M49.1,72.2c-0.3,0-0.6-0.1-0.9-0.4c-0.5-0.5-0.5-1.3,0-1.8l4.1-4.1c0.5-0.5,1.3-0.5,1.8,0s0.5,1.3,0,1.8
				L50,71.9C49.7,72.1,49.4,72.2,49.1,72.2z"/>
		</g>
		<g>
			<path class="st16" d="M70.9,72.2c-0.3,0-0.6-0.1-0.9-0.4c-0.5-0.5-0.5-1.3,0-1.8l4.1-4.1c0.5-0.5,1.3-0.5,1.8,0s0.5,1.3,0,1.8
				l-4.1,4.1C71.6,72.1,71.2,72.2,70.9,72.2z"/>
		</g>
		<g>
			<path class="st16" d="M54.6,72.2c-0.3,0-0.6-0.1-0.9-0.4c-0.5-0.5-0.5-1.3,0-1.8l4.1-4.1c0.5-0.5,1.3-0.5,1.8,0
				c0.5,0.5,0.5,1.3,0,1.8l-4.1,4.1C55.2,72.1,54.9,72.2,54.6,72.2z"/>
		</g>
		<g>
			<path class="st16" d="M38.2,72.2c-0.3,0-0.6-0.1-0.9-0.4c-0.5-0.5-0.5-1.3,0-1.8l4.1-4.1c0.5-0.5,1.3-0.5,1.8,0
				c0.5,0.5,0.5,1.3,0,1.8L39,71.9C38.8,72.1,38.5,72.2,38.2,72.2z"/>
		</g>
		<g>
			<path class="st16" d="M27.2,72.2c-0.3,0-0.6-0.1-0.9-0.4c-0.5-0.5-0.5-1.3,0-1.8l4.1-4.1c0.5-0.5,1.3-0.5,1.8,0
				c0.5,0.5,0.5,1.3,0,1.8l-4.1,4.1C27.9,72.1,27.5,72.2,27.2,72.2z"/>
		</g>
		<g>
			<path class="st16" d="M32.7,72.2c-0.3,0-0.6-0.1-0.9-0.4c-0.5-0.5-0.5-1.3,0-1.8l4.1-4.1c0.5-0.5,1.3-0.5,1.8,0
				c0.5,0.5,0.5,1.3,0,1.8l-4.1,4.1C33.3,72.1,33,72.2,32.7,72.2z"/>
		</g>
		<g>
			<path class="st16" d="M21.8,72.2c-0.3,0-0.6-0.1-0.9-0.4c-0.5-0.5-0.5-1.3,0-1.8L25,66c0.5-0.5,1.3-0.5,1.8,0
				c0.5,0.5,0.5,1.3,0,1.8l-4.1,4.1C22.4,72.1,22.1,72.2,21.8,72.2z"/>
		</g>
		<g>
			<path class="st16" d="M103.7,72.2c-0.3,0-0.6-0.1-0.9-0.4c-0.5-0.5-0.5-1.3,0-1.8L107,66c0.5-0.5,1.3-0.5,1.8,0
				c0.5,0.5,0.5,1.3,0,1.8l-4.1,4.1C104.4,72.1,104.1,72.2,103.7,72.2z"/>
		</g>
		<g>
			<path class="st16" d="M87.4,72.2c-0.3,0-0.6-0.1-0.9-0.4c-0.5-0.5-0.5-1.3,0-1.8l4.1-4.1c0.5-0.5,1.3-0.5,1.8,0
				c0.5,0.5,0.5,1.3,0,1.8l-4.1,4.1C88,72.1,87.7,72.2,87.4,72.2z"/>
		</g>
		<g>
			<path class="st16" d="M109.2,72.2c-0.3,0-0.6-0.1-0.9-0.4c-0.5-0.5-0.5-1.3,0-1.8l4.1-4.1c0.5-0.5,1.3-0.5,1.8,0
				c0.5,0.5,0.5,1.3,0,1.8l-4.1,4.1C109.8,72.1,109.5,72.2,109.2,72.2z"/>
		</g>
		<g>
			<path class="st16" d="M92.8,72.2c-0.3,0-0.6-0.1-0.9-0.4c-0.5-0.5-0.5-1.3,0-1.8L96,66c0.5-0.5,1.3-0.5,1.8,0
				c0.5,0.5,0.5,1.3,0,1.8l-4.1,4.1C93.4,72.1,93.1,72.2,92.8,72.2z"/>
		</g>
		<g>
			<path class="st16" d="M98.3,72.2c-0.3,0-0.6-0.1-0.9-0.4c-0.5-0.5-0.5-1.3,0-1.8l4.1-4.1c0.5-0.5,1.3-0.5,1.8,0
				c0.5,0.5,0.5,1.3,0,1.8l-4.1,4.1C98.9,72.1,98.6,72.2,98.3,72.2z"/>
		</g>
		<g>
			<path class="st16" d="M61.4,55.9c-7.1,0-12.9-5.8-12.9-12.9S54.2,30,61.4,30S74.3,35.8,74.3,43S68.5,55.9,61.4,55.9z M61.4,32.5
				c-5.8,0-10.4,4.7-10.4,10.4s4.7,10.4,10.4,10.4c5.8,0,10.4-4.7,10.4-10.4S67.1,32.5,61.4,32.5z"/>
		</g>
		<g>
			<path class="st16" d="M100.1,4H6.8C6.1,4,5.5,4.5,5.5,5.2v79.8c0,0.7,0.6,1.3,1.3,1.3h0.6c0,0,0.1,0,0.1,0h91.8c0,0,0.1,0,0.1,0
				h0.6c0.7,0,1.3-0.6,1.3-1.3V5.2C101.4,4.5,100.8,4,100.1,4z M8.1,76.1V14.3h90.8v61.7H8.1z"/>
		</g>
		<g>
			<polygon class="st16" points="61.9,43 38.8,56.3 38.8,29.7 			"/>
		</g>
	</g>
</g>
<g id="interaction">
</g>
<g id="logo">
</g>
<g id="border">
</g>
<g id="grid" class="st39">
</g>
</svg>
