<?xml version="1.0" encoding="iso-8859-1"?>
<!-- Generator: Adobe Illustrator 19.2.0, SVG Export Plug-In . SVG Version: 6.00 Build 0)  -->
<svg version="1.1" xmlns="http://www.w3.org/2000/svg" xmlns:xlink="http://www.w3.org/1999/xlink" x="0px" y="0px"
	 viewBox="0 0 130.718 98.75" style="enable-background:new 0 0 130.718 98.75;" xml:space="preserve">
<g id="motion">
	<g>
		
			<line style="fill:none;stroke:#D83A91;stroke-width:3;stroke-linecap:round;stroke-linejoin:round;stroke-miterlimit:10;" x1="89.864" y1="75.418" x2="84.941" y2="80.346"/>
		
			<line style="fill:none;stroke:#D83A91;stroke-width:3;stroke-linecap:round;stroke-linejoin:round;stroke-miterlimit:10;" x1="70.222" y1="75.418" x2="65.299" y2="80.346"/>
		
			<line style="fill:none;stroke:#D83A91;stroke-width:3;stroke-linecap:round;stroke-linejoin:round;stroke-miterlimit:10;" x1="50.58" y1="75.418" x2="45.657" y2="80.346"/>
		
			<line style="fill:none;stroke:#D83A91;stroke-width:3;stroke-linecap:round;stroke-linejoin:round;stroke-miterlimit:10;" x1="96.427" y1="75.418" x2="91.504" y2="80.346"/>
		
			<line style="fill:none;stroke:#D83A91;stroke-width:3;stroke-linecap:round;stroke-linejoin:round;stroke-miterlimit:10;" x1="76.785" y1="75.418" x2="71.862" y2="80.346"/>
		
			<line style="fill:none;stroke:#D83A91;stroke-width:3;stroke-linecap:round;stroke-linejoin:round;stroke-miterlimit:10;" x1="57.12" y1="75.418" x2="52.197" y2="80.346"/>
		
			<line style="fill:none;stroke:#D83A91;stroke-width:3;stroke-linecap:round;stroke-linejoin:round;stroke-miterlimit:10;" x1="83.301" y1="75.418" x2="78.378" y2="80.346"/>
		
			<line style="fill:none;stroke:#D83A91;stroke-width:3;stroke-linecap:round;stroke-linejoin:round;stroke-miterlimit:10;" x1="63.682" y1="75.418" x2="58.759" y2="80.346"/>
		
			<line style="fill:none;stroke:#D83A91;stroke-width:3;stroke-linecap:round;stroke-linejoin:round;stroke-miterlimit:10;" x1="44.017" y1="75.418" x2="39.094" y2="80.346"/>
		
			<line style="fill:none;stroke:#D83A91;stroke-width:3;stroke-linecap:round;stroke-linejoin:round;stroke-miterlimit:10;" x1="30.915" y1="75.418" x2="25.992" y2="80.346"/>
		
			<line style="fill:none;stroke:#D83A91;stroke-width:3;stroke-linecap:round;stroke-linejoin:round;stroke-miterlimit:10;" x1="37.454" y1="75.418" x2="32.531" y2="80.346"/>
		
			<line style="fill:none;stroke:#D83A91;stroke-width:3;stroke-linecap:round;stroke-linejoin:round;stroke-miterlimit:10;" x1="24.352" y1="75.418" x2="19.429" y2="80.346"/>
		
			<line style="fill:none;stroke:#D83A91;stroke-width:3;stroke-linecap:round;stroke-linejoin:round;stroke-miterlimit:10;" x1="122.655" y1="75.418" x2="117.732" y2="80.346"/>
		
			<line style="fill:none;stroke:#D83A91;stroke-width:3;stroke-linecap:round;stroke-linejoin:round;stroke-miterlimit:10;" x1="103.013" y1="75.418" x2="98.09" y2="80.346"/>
		
			<line style="fill:none;stroke:#D83A91;stroke-width:3;stroke-linecap:round;stroke-linejoin:round;stroke-miterlimit:10;" x1="129.218" y1="75.418" x2="124.295" y2="80.346"/>
		
			<line style="fill:none;stroke:#D83A91;stroke-width:3;stroke-linecap:round;stroke-linejoin:round;stroke-miterlimit:10;" x1="109.552" y1="75.418" x2="104.629" y2="80.346"/>
		
			<line style="fill:none;stroke:#D83A91;stroke-width:3;stroke-linecap:round;stroke-linejoin:round;stroke-miterlimit:10;" x1="116.115" y1="75.418" x2="111.192" y2="80.346"/>
		<circle style="fill:none;stroke:#D83A91;stroke-width:3;stroke-miterlimit:10;" cx="66.924" cy="46.748" r="14.011"/>
		<path style="fill:#D83A91;" d="M114.908,0H0v98.72h2.259c0.05,0.009,0.095,0.03,0.148,0.03h110.095
			c0.052,0,0.098-0.021,0.148-0.03h2.259V0z M3,86.42V12.411h108.908V86.42H3z"/>
		<polygon style="fill:#D83A91;" points="67.516,46.748 39.903,62.69 39.903,30.806 		"/>
	</g>
</g>
<g id="Layer_1">
</g>
</svg>
