<?xml version="1.0" encoding="utf-8"?>
<!-- Generator: Adobe Illustrator 19.2.1, SVG Export Plug-In . SVG Version: 6.00 Build 0)  -->
<svg version="1.1" id="Layer_1" xmlns="http://www.w3.org/2000/svg" xmlns:xlink="http://www.w3.org/1999/xlink" x="0px" y="0px"
	 viewBox="0 0 130.7 98.8" style="enable-background:new 0 0 130.7 98.8;" xml:space="preserve">
<style type="text/css">
	.st0{fill:#FFFFFF;}
	.st1{fill:none;stroke:#A5A3A5;stroke-width:3;stroke-linecap:round;stroke-linejoin:round;stroke-miterlimit:10;}
	.st2{fill:none;stroke:#A5A3A5;stroke-width:3;stroke-miterlimit:10;}
	.st3{fill:#A5A3A5;}
</style>
<g id="motion">
	<g>
		<rect x="3.5" y="12.4" class="st0" width="108.8" height="74.4"/>
		<line class="st1" x1="89.9" y1="75.4" x2="84.9" y2="80.3"/>
		<line class="st1" x1="70.2" y1="75.4" x2="65.3" y2="80.3"/>
		<line class="st1" x1="50.6" y1="75.4" x2="45.7" y2="80.3"/>
		<line class="st1" x1="96.4" y1="75.4" x2="91.5" y2="80.3"/>
		<line class="st1" x1="76.8" y1="75.4" x2="71.9" y2="80.3"/>
		<line class="st1" x1="57.1" y1="75.4" x2="52.2" y2="80.3"/>
		<line class="st1" x1="83.3" y1="75.4" x2="78.4" y2="80.3"/>
		<line class="st1" x1="63.7" y1="75.4" x2="58.8" y2="80.3"/>
		<line class="st1" x1="44" y1="75.4" x2="39.1" y2="80.3"/>
		<line class="st1" x1="30.9" y1="75.4" x2="26" y2="80.3"/>
		<line class="st1" x1="37.5" y1="75.4" x2="32.5" y2="80.3"/>
		<line class="st1" x1="24.4" y1="75.4" x2="19.4" y2="80.3"/>
		<line class="st1" x1="122.7" y1="75.4" x2="117.7" y2="80.3"/>
		<line class="st1" x1="103" y1="75.4" x2="98.1" y2="80.3"/>
		<line class="st1" x1="129.2" y1="75.4" x2="124.3" y2="80.3"/>
		<line class="st1" x1="109.6" y1="75.4" x2="104.6" y2="80.3"/>
		<line class="st1" x1="116.1" y1="75.4" x2="111.2" y2="80.3"/>
		<circle class="st2" cx="66.9" cy="46.7" r="14"/>
		<path class="st3" d="M114.9,0H0v98.7h2.3h0.1h110.1c0.1,0,0.1,0,0.1,0h2.3V0L114.9,0z M3,86.4v-74h108.9v74H3z"/>
		<polygon class="st3" points="67.5,46.7 39.9,62.7 39.9,30.8 		"/>
	</g>
</g>
<g id="Layer_1_1_">
</g>
</svg>
