<?xml version="1.0" encoding="utf-8"?>
<!-- Generator: Adobe Illustrator 19.2.0, SVG Export Plug-In . SVG Version: 6.00 Build 0)  -->
<svg version="1.1" xmlns="http://www.w3.org/2000/svg" xmlns:xlink="http://www.w3.org/1999/xlink" x="0px" y="0px"
	 viewBox="0 0 83.5 91" style="enable-background:new 0 0 83.5 91;" xml:space="preserve">
<style type="text/css">
	.st0{fill:none;stroke:#EFBC1B;stroke-width:8;stroke-linecap:round;stroke-linejoin:round;stroke-miterlimit:10;}
	.st1{fill:url(#);}
	.st2{clip-path:url(#SVGID_2_);}
	.st3{fill:none;stroke:#EFBC1B;stroke-width:6.1737;stroke-linecap:round;stroke-linejoin:round;stroke-miterlimit:10;}
	.st4{fill:none;stroke:#EFBC1B;stroke-width:3;stroke-linecap:round;stroke-linejoin:round;stroke-miterlimit:10;}
	.st5{fill:#EFBC1B;}
	.st6{clip-path:url(#SVGID_4_);}
	.st7{fill:#EDBB1C;}
	.st8{fill:none;stroke:#EFBC1B;stroke-width:3;stroke-miterlimit:10;}
	.st9{fill:#EFBC1B;stroke:#EFBC1B;stroke-width:3;stroke-miterlimit:10;}
	.st10{fill:none;stroke:#EFBC1B;stroke-width:2.25;stroke-miterlimit:10;}
	.st11{fill:none;stroke:#EFBC1B;stroke-width:2.25;stroke-linecap:round;stroke-linejoin:round;stroke-miterlimit:10;}
	.st12{fill:none;stroke:#EFBC1B;stroke-width:6;stroke-linecap:round;stroke-linejoin:round;stroke-miterlimit:10;}
	.st13{fill:none;stroke:#EFBC1B;stroke-width:2;stroke-linecap:round;stroke-linejoin:round;stroke-miterlimit:10;}
	.st14{clip-path:url(#SVGID_6_);fill:none;stroke:#EFBC1B;stroke-width:2.25;stroke-miterlimit:10;}
	.st15{clip-path:url(#SVGID_6_);fill:#57C1A5;stroke:#EFBC1B;stroke-width:2.25;stroke-miterlimit:10;}
	.st16{fill:#D83A91;}
	.st17{fill:none;stroke:#D83A91;stroke-width:3;stroke-linecap:round;stroke-linejoin:round;stroke-miterlimit:10;}
	.st18{clip-path:url(#SVGID_8_);}
	.st19{fill:none;stroke:#D83A91;stroke-width:6.1737;stroke-linecap:round;stroke-linejoin:round;stroke-miterlimit:10;}
	.st20{fill:none;stroke:#D83A91;stroke-width:8;stroke-linecap:round;stroke-linejoin:round;stroke-miterlimit:10;}
	.st21{fill:#D73B90;}
	.st22{fill:none;stroke:#D83A91;stroke-width:8;stroke-miterlimit:10;}
	.st23{fill:none;stroke:#D83A91;stroke-width:3;stroke-miterlimit:10;}
	.st24{fill:none;stroke:#D83A91;stroke-width:2.25;stroke-miterlimit:10;}
	.st25{fill:none;stroke:#D83A91;stroke-width:6;stroke-linecap:round;stroke-linejoin:round;stroke-miterlimit:10;}
	.st26{fill:none;stroke:#57C1A5;stroke-width:8;stroke-linecap:round;stroke-linejoin:round;stroke-miterlimit:10;}
	.st27{fill:#57C1A5;}
	.st28{clip-path:url(#SVGID_10_);}
	.st29{fill:none;stroke:#57C1A5;stroke-width:6.1737;stroke-linecap:round;stroke-linejoin:round;stroke-miterlimit:10;}
	.st30{fill:#58C0A4;}
	.st31{fill:none;stroke:#57C1A5;stroke-width:3;stroke-miterlimit:10;}
	.st32{fill:none;stroke:#57C1A5;stroke-width:8;stroke-miterlimit:10;}
	.st33{fill:none;stroke:#57C1A5;stroke-width:2.25;stroke-linecap:round;stroke-linejoin:round;stroke-miterlimit:10;}
	.st34{clip-path:url(#SVGID_12_);fill:none;stroke:#57C1A5;stroke-width:2.25;stroke-miterlimit:10;}
	.st35{clip-path:url(#SVGID_12_);fill:#57C1A5;stroke:#57C1A5;stroke-width:2.25;stroke-miterlimit:10;}
	.st36{fill:none;stroke:#57C1A5;stroke-width:2;stroke-linecap:round;stroke-linejoin:round;stroke-miterlimit:10;}
	.st37{fill:#404041;}
	.st38{fill:#5D5D5D;}
	.st39{display:none;}
</style>
<g id="print">
	<g>
		<g>
			<path class="st5" d="M54.2,42c-0.3,0-0.6-0.1-0.9-0.4l-5.2-5.2l-5.2,5.2c-0.5,0.5-1.3,0.5-1.8,0c-0.5-0.5-0.5-1.3,0-1.8l6.1-6.1
				c0.5-0.5,1.3-0.5,1.8,0l5.2,5.2l5-5c0.5-0.5,1.3-0.5,1.8,0l4.5,4.5l4.7-4.7c0.5-0.5,1.3-0.5,1.8,0l5.9,5.9c0.5,0.5,0.5,1.3,0,1.8
				c-0.5,0.5-1.3,0.5-1.8,0L71,36.4l-4.7,4.7c-0.5,0.5-1.3,0.5-1.8,0l-4.5-4.5l-5,5C54.9,41.8,54.5,42,54.2,42z"/>
		</g>
		<g>
			<path class="st5" d="M54.2,54.5c-0.3,0-0.6-0.1-0.9-0.4l-5.2-5.2L42.9,54c-0.5,0.5-1.3,0.5-1.8,0c-0.5-0.5-0.5-1.3,0-1.8l6.1-6.1
				c0.5-0.5,1.3-0.5,1.8,0l5.2,5.2l5-5c0.5-0.5,1.3-0.5,1.8,0l4.5,4.5l4.7-4.7c0.5-0.5,1.3-0.5,1.8,0l5.9,5.9c0.5,0.5,0.5,1.3,0,1.8
				c-0.5,0.5-1.3,0.5-1.8,0L71,48.9l-4.7,4.7c-0.5,0.5-1.3,0.5-1.8,0l-4.5-4.5l-5,5C54.9,54.3,54.5,54.5,54.2,54.5z"/>
		</g>
		<g>
			<path class="st5" d="M54.2,67.3c-0.3,0-0.6-0.1-0.9-0.4l-5.2-5.2l-5.2,5.2c-0.5,0.5-1.3,0.5-1.8,0c-0.5-0.5-0.5-1.3,0-1.8
				l6.1-6.1c0.5-0.5,1.3-0.5,1.8,0l5.2,5.2l5-5c0.5-0.5,1.3-0.5,1.8,0l4.5,4.5l4.7-4.7c0.5-0.5,1.3-0.5,1.8,0l5.9,5.9
				c0.5,0.5,0.5,1.3,0,1.8s-1.3,0.5-1.8,0L71,61.7l-4.7,4.7c-0.5,0.5-1.3,0.5-1.8,0l-4.5-4.5l-5,5C54.9,67.1,54.5,67.3,54.2,67.3z"
				/>
		</g>
		<g>
			<path class="st5" d="M70.8,4.3H32.5c-0.3,0-0.6,0.1-0.9,0.4l-20.2,21c-0.2,0.2-0.4,0.6-0.4,0.9v58.7c0,0.7,0.5,1.3,1.2,1.3h58.5
				c0.7,0,1.2-0.6,1.2-1.3V5.5C72,4.8,71.5,4.3,70.8,4.3z M69.6,84H13.5V27l0,0v0h19.5V6.8H33l0,0h36.6V84z"/>
		</g>
		<g>
			<path class="st5" d="M15.5,76.5c-7.1,0-12.9-5.8-12.9-12.9c0-7.1,5.8-12.9,12.9-12.9s12.9,5.8,12.9,12.9
				C28.4,70.7,22.6,76.5,15.5,76.5z M15.5,53.1c-5.8,0-10.4,4.7-10.4,10.4C5.1,69.3,9.8,74,15.5,74c5.8,0,10.4-4.7,10.4-10.4
				C25.9,57.8,21.3,53.1,15.5,53.1z"/>
		</g>
	</g>
</g>
<g id="motion">
</g>
<g id="interaction">
</g>
<g id="logo">
</g>
<g id="border">
</g>
<g id="grid" class="st39">
</g>
</svg>
