<?xml version="1.0" encoding="utf-8"?>
<!-- Generator: Adobe Illustrator 19.2.1, SVG Export Plug-In . SVG Version: 6.00 Build 0)  -->
<svg version="1.1" id="Layer_1" xmlns="http://www.w3.org/2000/svg" xmlns:xlink="http://www.w3.org/1999/xlink" x="0px" y="0px"
	 viewBox="0 0 90.7 98.6" style="enable-background:new 0 0 90.7 98.6;" xml:space="preserve">
<style type="text/css">
	.st0{fill:#FFFFFF;}
	.st1{fill:none;stroke:#A5A3A5;stroke-width:3;stroke-linecap:round;stroke-linejoin:round;stroke-miterlimit:10;}
	.st2{fill:#A5A3A5;}
	.st3{fill:none;stroke:#A5A3A5;stroke-width:3;stroke-miterlimit:10;}
</style>
<g id="print">
	<g>
		<polygon class="st0" points="35.9,3 36.2,26.9 12.7,26.9 12.7,95.6 81.3,95.6 81.6,3 		"/>
		<polyline class="st1" points="47.3,43.6 54.6,36.4 61.9,43.7 68.9,36.7 75.4,43.1 82.1,36.4 89.2,43.6 		"/>
		<polyline class="st1" points="47.3,58.6 54.6,51.3 61.9,58.7 68.9,51.7 75.4,58.1 82.1,51.4 89.2,58.5 		"/>
		<polyline class="st1" points="47.3,74 54.6,66.7 61.9,74 68.9,67 75.4,73.5 82.1,66.8 89.2,73.9 		"/>
		<path class="st2" d="M83.3,0H35.9c-0.4,0-0.8,0.2-1,0.4L10.7,25.6c-0.3,0.3-0.4,0.7-0.4,1.1v71.9h73V0z M80.4,95.6H13.1V27.3l0,0
			v0.1h23.4V3h-0.1l0,0h43.9L80.4,95.6L80.4,95.6z"/>
		<circle class="st3" cx="15.5" cy="71.1" r="14"/>
	</g>
</g>
<g id="Layer_1_1_">
</g>
</svg>
