<?xml version="1.0" encoding="iso-8859-1"?>
<!-- Generator: Adobe Illustrator 19.2.0, SVG Export Plug-In . SVG Version: 6.00 Build 0)  -->
<svg version="1.1" xmlns="http://www.w3.org/2000/svg" xmlns:xlink="http://www.w3.org/1999/xlink" x="0px" y="0px"
	 viewBox="0 0 90.733 98.601" style="enable-background:new 0 0 90.733 98.601;" xml:space="preserve">
<g id="print">
	<g>
		
			<polyline style="fill:none;stroke:#EFBC1B;stroke-width:3;stroke-linecap:round;stroke-linejoin:round;stroke-miterlimit:10;" points="
			47.317,43.624 54.586,36.355 61.925,43.694 68.946,36.673 75.403,43.13 82.106,36.426 89.233,43.553 		"/>
		
			<polyline style="fill:none;stroke:#EFBC1B;stroke-width:3;stroke-linecap:round;stroke-linejoin:round;stroke-miterlimit:10;" points="
			47.317,58.614 54.586,51.346 61.925,58.685 68.946,51.664 75.403,58.121 82.106,51.417 89.233,58.544 		"/>
		
			<polyline style="fill:none;stroke:#EFBC1B;stroke-width:3;stroke-linecap:round;stroke-linejoin:round;stroke-miterlimit:10;" points="
			47.317,73.979 54.586,66.71 61.925,74.049 68.946,67.028 75.403,73.485 82.106,66.781 89.233,73.908 		"/>
		<path style="fill:#EFBC1B;" d="M83.295,0H35.909c-0.383,0-0.75,0.158-1.02,0.439L10.675,25.642
			c-0.27,0.281-0.422,0.663-0.422,1.061v71.898h73.042V0z M80.412,95.601H13.137V27.323l0.008-0.008v0.053h23.421V3.002h-0.061
			L36.507,3h43.905V95.601z"/>
		<circle style="fill:none;stroke:#EFBC1B;stroke-width:3;stroke-miterlimit:10;" cx="15.511" cy="71.091" r="14.011"/>
	</g>
</g>
<g id="Layer_1">
</g>
</svg>
