<?xml version="1.0" encoding="iso-8859-1"?>
<!-- Generator: Adobe Illustrator 19.2.1, SVG Export Plug-In . SVG Version: 6.00 Build 0)  -->
<svg version="1.1" xmlns="http://www.w3.org/2000/svg" xmlns:xlink="http://www.w3.org/1999/xlink" x="0px" y="0px"
	 viewBox="0 0 90.12 65.993" style="enable-background:new 0 0 90.12 65.993;" xml:space="preserve">
<g id="motion4.1">
	<path style="fill:#D83C92;" d="M82.832,54.482c2.424-0.074,3.251-0.77,3.251-0.77c8.343-5.395,1.168-14.821,1.168-14.821
		c6.459-9.641-4.784-15.958-4.784-15.958c-1.723-10.341-11.689-9.744-11.689-9.744C69.268,1.5,57.882,4.835,57.882,4.835
		c-5.494-8.963-15.958-2.718-15.958-2.718c-9.246-5.212-13.687,4.156-13.687,4.156C15.484,3.271,16.122,14.23,16.122,14.23
		c-3.863-1.795-8.425,0.841-8.425,0.841c-6.499,4.896-2.373,11.274-2.373,11.274C-0.081,28.058,0,33.796,0,33.796
		c0.253,7.148,8.222,9.196,8.222,9.196L38.657,47.8l0,0c0,0,2.088,11.781,14.264,10.94c0,0,2.463,6.904,12.642,4.959
		c0,0,7.968,5.8,13.393-1.043C78.956,62.656,86.869,61.536,82.832,54.482L82.832,54.482z"/>
</g>
<g id="Layer_1">
</g>
</svg>
