<?xml version="1.0" encoding="utf-8"?>
<!-- Generator: Adobe Illustrator 19.2.0, SVG Export Plug-In . SVG Version: 6.00 Build 0)  -->
<svg version="1.1" id="Layer_1" xmlns="http://www.w3.org/2000/svg" xmlns:xlink="http://www.w3.org/1999/xlink" x="0px" y="0px"
	 viewBox="0 0 465.1 465.1" style="enable-background:new 0 0 465.1 465.1;" xml:space="preserve">
<style type="text/css">
	.st0{fill:#FFFFFF;}
	.st1{fill:#57C1A5;}
	.st2{fill:#D83A91;}
</style>
<title>Motion_Interaction_Logo</title>
<g>
	<g id="Layer_1_1_">
		<rect x="110.1" y="152.2" class="st0" width="300.5" height="204.2"/>
		<rect x="31.3" y="107.3" class="st0" width="360.6" height="205.1"/>
		<g>
			<path class="st1" d="M400.2,320.7H23V99h377.1V320.7z M31.3,312.4h360.6V107.3H31.3V312.4z"/>
		</g>
		<rect x="23.2" y="48.5" class="st1" width="376.8" height="34"/>
		<circle class="st1" cx="23.2" cy="65.5" r="10.1"/>
		<circle class="st1" cx="49.1" cy="65.5" r="10.1"/>
		<circle class="st1" cx="75.6" cy="65.5" r="10.1"/>
		<g>
			<path class="st1" d="M181.7,169H7.2c-2.3,0-4.1-1.9-4.1-4.1c0-2.3,1.9-4.1,4.1-4.1c0,0,0,0,0,0h174.5c2.3,0,4.1,1.9,4.1,4.1
				C185.9,167.1,184,169,181.7,169C181.7,169,181.7,169,181.7,169z"/>
		</g>
		<g>
			<path class="st1" d="M181.7,190.1H7.2c-2.3,0-4.1-1.9-4.1-4.1c0-2.3,1.9-4.1,4.1-4.1c0,0,0,0,0,0h174.5c2.3,0,4.1,1.9,4.1,4.1
				C185.9,188.3,184,190.1,181.7,190.1C181.7,190.1,181.7,190.1,181.7,190.1z"/>
		</g>
		<g>
			<path class="st1" d="M181.7,211H7.2c-2.3,0-4.1-1.9-4.1-4.1c0-2.3,1.9-4.1,4.1-4.1h174.5c2.3,0,4.1,1.9,4.1,4.1
				C185.9,209.1,184,211,181.7,211C181.7,211,181.7,211,181.7,211z"/>
		</g>
		<g>
			<path class="st1" d="M181.7,232.1H7.2c-2.3,0-4.1-1.9-4.1-4.1c0-2.3,1.9-4.1,4.1-4.1h174.5c2.3,0,4.1,1.9,4.1,4.1
				C185.9,230.3,184,232.1,181.7,232.1C181.7,232.1,181.7,232.1,181.7,232.1z"/>
		</g>
		<circle class="st1" cx="283.5" cy="251.9" r="42.8"/>
		<g>
			<path class="st1" d="M378.3,254.2h-98l49-84.9L378.3,254.2z M294.1,246.3h70.5l-35.2-61.1L294.1,246.3z"/>
		</g>
		<g>
			<path class="st2" d="M336.3,348.8c-2.3,0-4.1-1.8-4.1-4.1c0-1.1,0.4-2.2,1.2-2.9l13.6-13.6c1.6-1.6,4.2-1.6,5.9,0
				c1.6,1.6,1.6,4.2,0,5.9l-13.6,13.6C338.4,348.3,337.3,348.8,336.3,348.8z"/>
		</g>
		<g>
			<path class="st2" d="M282,348.8c-2.3,0-4.1-1.8-4.1-4.1c0-1.1,0.4-2.2,1.2-2.9l13.6-13.6c1.6-1.6,4.2-1.6,5.9,0
				c1.6,1.6,1.6,4.2,0,5.9L285,347.6C284.2,348.3,283.1,348.8,282,348.8z"/>
		</g>
		<g>
			<path class="st2" d="M227.8,348.8c-2.3,0-4.1-1.8-4.1-4.1c0-1.1,0.4-2.2,1.2-2.9l13.6-13.6c1.6-1.6,4.2-1.6,5.9,0
				c1.6,1.6,1.6,4.2,0,5.9l-13.6,13.6C230,348.3,228.9,348.8,227.8,348.8z"/>
		</g>
		<g>
			<path class="st2" d="M354.4,348.8c-2.3,0-4.1-1.8-4.1-4.1c0-1.1,0.4-2.2,1.2-2.9l13.6-13.6c1.6-1.6,4.2-1.6,5.9,0
				c1.6,1.6,1.6,4.2,0,5.9l-13.6,13.6C356.5,348.3,355.5,348.8,354.4,348.8z"/>
		</g>
		<g>
			<path class="st2" d="M300.2,348.8c-2.3,0-4.1-1.8-4.1-4.1c0-1.1,0.4-2.2,1.2-2.9l13.6-13.6c1.6-1.6,4.2-1.6,5.9,0
				c1.6,1.6,1.6,4.2,0,5.9l-13.6,13.6C302.3,348.3,301.2,348.8,300.2,348.8z"/>
		</g>
		<g>
			<path class="st2" d="M245.9,348.8c-2.3,0-4.1-1.8-4.1-4.1c0-1.1,0.4-2.2,1.2-2.9l13.6-13.6c1.6-1.6,4.2-1.6,5.9,0
				c1.6,1.6,1.6,4.2,0,5.9l-13.6,13.6C248,348.3,247,348.8,245.9,348.8z"/>
		</g>
		<g>
			<path class="st2" d="M318.1,348.8c-2.3,0-4.1-1.8-4.1-4.1c0-1.1,0.4-2.2,1.2-2.9l13.6-13.6c1.6-1.6,4.2-1.6,5.9,0
				c1.6,1.6,1.6,4.2,0,5.9l-13.6,13.6C320.3,348.3,319.2,348.8,318.1,348.8z"/>
		</g>
		<g>
			<path class="st2" d="M264,348.8c-2.3,0-4.1-1.8-4.1-4.1c0-1.1,0.4-2.2,1.2-2.9l13.6-13.6c1.6-1.6,4.2-1.6,5.9,0
				c1.6,1.6,1.6,4.2,0,5.9l-13.6,13.6C266.2,348.3,265.1,348.8,264,348.8z"/>
		</g>
		<g>
			<path class="st2" d="M209.7,348.8c-2.3,0-4.1-1.8-4.1-4.1c0-1.1,0.4-2.2,1.2-2.9l13.6-13.6c1.6-1.6,4.2-1.6,5.9,0
				c1.6,1.6,1.6,4.2,0,5.9l-13.6,13.6C211.9,348.3,210.8,348.8,209.7,348.8z"/>
		</g>
		<g>
			<path class="st2" d="M173.6,348.8c-2.3,0-4.1-1.8-4.1-4.1c0-1.1,0.4-2.2,1.2-2.9l13.6-13.6c1.6-1.6,4.2-1.6,5.9,0
				c1.6,1.6,1.6,4.2,0,5.9l0,0l-13.6,13.6C175.7,348.3,174.7,348.8,173.6,348.8z"/>
		</g>
		<g>
			<path class="st2" d="M191.6,348.8c-2.3,0-4.1-1.8-4.1-4.1c0-1.1,0.4-2.2,1.2-2.9l13.6-13.6c1.6-1.6,4.2-1.6,5.9,0
				c1.6,1.6,1.6,4.2,0,5.9l0,0l-13.6,13.6C193.8,348.3,192.7,348.8,191.6,348.8z"/>
		</g>
		<g>
			<path class="st2" d="M155.4,348.8c-2.3,0-4.1-1.8-4.1-4.1c0-1.1,0.4-2.2,1.2-2.9l13.6-13.6c1.6-1.6,4.2-1.6,5.9,0
				c1.6,1.6,1.6,4.2,0,5.9l-13.5,13.6C157.6,348.4,156.6,348.8,155.4,348.8z"/>
		</g>
		<g>
			<path class="st2" d="M426.7,348.8c-2.3,0-4.1-1.8-4.1-4.1c0-1.1,0.4-2.2,1.2-2.9l13.6-13.6c1.6-1.6,4.2-1.6,5.9,0
				c1.6,1.6,1.6,4.2,0,5.9l-13.6,13.6C428.9,348.3,427.8,348.8,426.7,348.8z"/>
		</g>
		<g>
			<path class="st2" d="M372.5,348.8c-2.3,0-4.1-1.8-4.1-4.1c0-1.1,0.4-2.2,1.2-2.9l13.6-13.6c1.6-1.6,4.2-1.6,5.9,0
				c1.6,1.6,1.6,4.2,0,5.9l-13.6,13.6C374.7,348.3,373.6,348.8,372.5,348.8z"/>
		</g>
		<g>
			<path class="st2" d="M444.9,348.8c-2.3,0-4.1-1.8-4.1-4.1c0-1.1,0.4-2.2,1.2-2.9l13.6-13.6c1.6-1.6,4.2-1.6,5.9,0
				c1.6,1.6,1.6,4.2,0,5.9l-13.6,13.6C447,348.3,445.9,348.8,444.9,348.8z"/>
		</g>
		<g>
			<path class="st2" d="M390.6,348.8c-2.3,0-4.1-1.8-4.1-4.1c0-1.1,0.4-2.2,1.2-2.9l13.6-13.6c1.6-1.6,4.2-1.6,5.9,0
				c1.6,1.6,1.6,4.2,0,5.9l-13.6,13.6C392.7,348.3,391.7,348.8,390.6,348.8z"/>
		</g>
		<g>
			<path class="st2" d="M408.7,348.8c-2.3,0-4.1-1.8-4.1-4.1c0-1.1,0.4-2.2,1.2-2.9l13.6-13.6c1.6-1.6,4.2-1.6,5.9,0
				c1.6,1.6,1.6,4.2,0,5.9l-13.6,13.6C410.8,348.3,409.8,348.8,408.7,348.8z"/>
		</g>
		<g>
			<path class="st2" d="M283.5,294.7c-23.6,0-42.8-19.2-42.8-42.8s19.2-42.8,42.8-42.8c23.6,0,42.8,19.2,42.8,42.8
				C326.3,275.5,307.2,294.7,283.5,294.7z M283.5,217.4c-19.1,0-34.5,15.5-34.5,34.5s15.5,34.5,34.5,34.5s34.5-15.5,34.5-34.5
				c0,0,0,0,0,0C318,232.8,302.6,217.4,283.5,217.4z"/>
		</g>
		<path class="st2" d="M418.9,117.9H101.9v272.4h6.2c0.1,0,0.3,0.1,0.4,0.1h303.8c0.1,0,0.3,0,0.4-0.1h6.2V117.9z M110.1,356.4
			V152.2h300.5v204.2H110.1z"/>
		<polygon class="st2" points="280.2,253.9 204,297.9 204,209.9 		"/>
	</g>
</g>
</svg>
